<svg xmlns="http://www.w3.org/2000/svg" xmlns:xlink="http://www.w3.org/1999/xlink" xmlns:lucid="lucid" width="2807" height="1320"><g transform="translate(-5853 -540)" lucid:page-tab-id="0_0"><path d="M2500 0h6000v2000H2500z" fill="#fff"/><path d="M6944.36 912a8 8 0 0 1 8-8h184a8 8 0 0 1 8 8v248a8 8 0 0 1-8 8h-184a8 8 0 0 1-8-8z" fill="#fff"/><path d="M6944.36 944v-32a8 8 0 0 1 8-8h184a8 8 0 0 1 8 8v32" fill="#dedeff"/><path d="M6944.36 912a8 8 0 0 1 8-8h184a8 8 0 0 1 8 8v248a8 8 0 0 1-8 8h-184a8 8 0 0 1-8-8zM6944.36 944h200" stroke="#3a414a" fill="none"/><use xlink:href="#a" transform="matrix(1,0,0,1,6954.362882772959,904) translate(0 23.6)"/><use xlink:href="#b" transform="matrix(1,0,0,1,6949.362882772959,946.5) translate(0 17.1)"/><use xlink:href="#c" transform="matrix(1,0,0,1,6949.362882772959,946.5) translate(101.9 17.1)"/><use xlink:href="#d" transform="matrix(1,0,0,1,6949.362882772959,946.5) translate(135.45000000000002 17.1)"/><use xlink:href="#e" transform="matrix(1,0,0,1,6949.362882772959,978.5) translate(0 17.1)"/><use xlink:href="#f" transform="matrix(1,0,0,1,6949.362882772959,978.5) translate(49.95 17.1)"/><use xlink:href="#g" transform="matrix(1,0,0,1,6949.362882772959,1010.5) translate(0 17.1)"/><use xlink:href="#h" transform="matrix(1,0,0,1,6949.362882772959,1010.5) translate(47.85000000000001 17.1)"/><use xlink:href="#i" transform="matrix(1,0,0,1,6949.362882772959,1042.5) translate(0 17.1)"/><use xlink:href="#h" transform="matrix(1,0,0,1,6949.362882772959,1042.5) translate(24.9 17.1)"/><use xlink:href="#j" transform="matrix(1,0,0,1,6949.362882772959,1074.5) translate(0 17.1)"/><use xlink:href="#k" transform="matrix(1,0,0,1,6949.362882772959,1106.5) translate(0 17.1)"/><use xlink:href="#l" transform="matrix(1,0,0,1,6949.362882772959,1138.5) translate(0 17.1)"/><path d="M7552.18 912a8 8 0 0 1 8-8H7832a8 8 0 0 1 8 8v312a8 8 0 0 1-8 8h-271.82a8 8 0 0 1-8-8z" fill="#fff"/><path d="M7552.18 944v-32a8 8 0 0 1 8-8H7832a8 8 0 0 1 8 8v32" fill="#dedeff"/><path d="M7552.18 912a8 8 0 0 1 8-8H7832a8 8 0 0 1 8 8v312a8 8 0 0 1-8 8h-271.82a8 8 0 0 1-8-8zM7552.18 944H7840" stroke="#3a414a" fill="none"/><use xlink:href="#m" transform="matrix(1,0,0,1,7562.1814413864795,904) translate(0 23.6)"/><use xlink:href="#n" transform="matrix(1,0,0,1,7557.1814413864795,946.5) translate(0 17.1)"/><use xlink:href="#c" transform="matrix(1,0,0,1,7557.1814413864795,946.5) translate(115.9 17.1)"/><use xlink:href="#d" transform="matrix(1,0,0,1,7557.1814413864795,946.5) translate(149.45000000000002 17.1)"/><use xlink:href="#o" transform="matrix(1,0,0,1,7557.1814413864795,978.5) translate(0 17.1)"/><use xlink:href="#h" transform="matrix(1,0,0,1,7557.1814413864795,978.5) translate(144.79999999999998 17.1)"/><use xlink:href="#b" transform="matrix(1,0,0,1,7557.1814413864795,1010.5) translate(0 17.1)"/><use xlink:href="#c" transform="matrix(1,0,0,1,7557.1814413864795,1010.5) translate(101.9 17.1)"/><use xlink:href="#p" transform="matrix(1,0,0,1,7557.1814413864795,1010.5) translate(135.45000000000002 17.1)"/><use xlink:href="#q" transform="matrix(1,0,0,1,7557.1814413864795,1042.5) translate(0 17.1)"/><use xlink:href="#r" transform="matrix(1,0,0,1,7557.1814413864795,1042.5) translate(135.95 17.1)"/><use xlink:href="#e" transform="matrix(1,0,0,1,7557.1814413864795,1074.5) translate(0 17.1)"/><use xlink:href="#s" transform="matrix(1,0,0,1,7557.1814413864795,1074.5) translate(49.95 17.1)"/><use xlink:href="#j" transform="matrix(1,0,0,1,7557.1814413864795,1106.5) translate(0 17.1)"/><use xlink:href="#t" transform="matrix(1,0,0,1,7557.1814413864795,1138.5) translate(0 17.1)"/><use xlink:href="#u" transform="matrix(1,0,0,1,7557.1814413864795,1170.5) translate(0 17.1)"/><use xlink:href="#k" transform="matrix(1,0,0,1,7557.1814413864795,1202.5) translate(0 17.1)"/><path d="M8200 1326.5a8 8 0 0 1 8-8h184a8 8 0 0 1 8 8v248a8 8 0 0 1-8 8h-184a8 8 0 0 1-8-8z" fill="#fff"/><path d="M8200 1358.5v-32a8 8 0 0 1 8-8h184a8 8 0 0 1 8 8v32" fill="#dedeff"/><path d="M8200 1326.5a8 8 0 0 1 8-8h184a8 8 0 0 1 8 8v248a8 8 0 0 1-8 8h-184a8 8 0 0 1-8-8zM8200 1358.5h200" stroke="#3a414a" fill="none"/><use xlink:href="#v" transform="matrix(1,0,0,1,8210,1318.5000000000086) translate(0 23.6)"/><use xlink:href="#w" transform="matrix(1,0,0,1,8205,1361.0000000000086) translate(0 17.1)"/><use xlink:href="#c" transform="matrix(1,0,0,1,8205,1361.0000000000086) translate(106.85000000000001 17.1)"/><use xlink:href="#d" transform="matrix(1,0,0,1,8205,1361.0000000000086) translate(140.4 17.1)"/><use xlink:href="#e" transform="matrix(1,0,0,1,8205,1393.0000000000086) translate(0 17.1)"/><use xlink:href="#f" transform="matrix(1,0,0,1,8205,1393.0000000000086) translate(49.95 17.1)"/><use xlink:href="#b" transform="matrix(1,0,0,1,8205,1425.0000000000086) translate(0 17.1)"/><use xlink:href="#c" transform="matrix(1,0,0,1,8205,1425.0000000000086) translate(101.9 17.1)"/><use xlink:href="#p" transform="matrix(1,0,0,1,8205,1425.0000000000086) translate(135.45000000000002 17.1)"/><use xlink:href="#x" transform="matrix(1,0,0,1,8205,1457.0000000000086) translate(0 17.1)"/><use xlink:href="#r" transform="matrix(1,0,0,1,8205,1457.0000000000086) translate(126.9 17.1)"/><use xlink:href="#j" transform="matrix(1,0,0,1,8205,1489.0000000000086) translate(0 17.1)"/><use xlink:href="#k" transform="matrix(1,0,0,1,8205,1521.0000000000086) translate(0 17.1)"/><use xlink:href="#u" transform="matrix(1,0,0,1,8205,1553.0000000000086) translate(0 17.1)"/><path d="M7600 1548a8 8 0 0 1 8-8h184a8 8 0 0 1 8 8v248a8 8 0 0 1-8 8h-184a8 8 0 0 1-8-8z" fill="#fff"/><path d="M7600 1580v-32a8 8 0 0 1 8-8h184a8 8 0 0 1 8 8v32" fill="#dedeff"/><path d="M7600 1548a8 8 0 0 1 8-8h184a8 8 0 0 1 8 8v248a8 8 0 0 1-8 8h-184a8 8 0 0 1-8-8zM7600 1580h200" stroke="#3a414a" fill="none"/><use xlink:href="#y" transform="matrix(1,0,0,1,7610,1540) translate(0 23.6)"/><use xlink:href="#z" transform="matrix(1,0,0,1,7605,1582.5) translate(0 17.1)"/><use xlink:href="#c" transform="matrix(1,0,0,1,7605,1582.5) translate(97.85000000000001 17.1)"/><use xlink:href="#d" transform="matrix(1,0,0,1,7605,1582.5) translate(131.4 17.1)"/><use xlink:href="#A" transform="matrix(1,0,0,1,7605,1614.5) translate(0 17.1)"/><use xlink:href="#h" transform="matrix(1,0,0,1,7605,1614.5) translate(61.95 17.1)"/><use xlink:href="#B" transform="matrix(1,0,0,1,7605,1646.5) translate(0 17.1)"/><use xlink:href="#C" transform="matrix(1,0,0,1,7605,1646.5) translate(44 17.1)"/><use xlink:href="#b" transform="matrix(1,0,0,1,7605,1678.5) translate(0 17.1)"/><use xlink:href="#c" transform="matrix(1,0,0,1,7605,1678.5) translate(101.9 17.1)"/><use xlink:href="#p" transform="matrix(1,0,0,1,7605,1678.5) translate(135.45000000000002 17.1)"/><use xlink:href="#D" transform="matrix(1,0,0,1,7605,1710.5) translate(0 17.1)"/><use xlink:href="#r" transform="matrix(1,0,0,1,7605,1710.5) translate(117.9 17.1)"/><use xlink:href="#j" transform="matrix(1,0,0,1,7605,1742.5) translate(0 17.1)"/><use xlink:href="#u" transform="matrix(1,0,0,1,7605,1774.5) translate(0 17.1)"/><path d="M7164.86 960H7458a12 12 0 0 1 12 12v40a12 12 0 0 0 12 12h50.27" stroke="#3a414a" fill="none"/><path d="M7164.86 970v-20M7144.86 960h20" stroke="#3a414a" fill="#fff"/><path d="M7551.46 1034l-20-10 20-10" stroke="#3a414a" fill="#fff" fill-opacity="0"/><path d="M7551.46 1024h-20" stroke="#3a414a" fill="#fff"/><path d="M8160 912a8 8 0 0 1 8-8h224a8 8 0 0 1 8 8v184a8 8 0 0 1-8 8h-224a8 8 0 0 1-8-8z" fill="#fff"/><path d="M8160 944v-32a8 8 0 0 1 8-8h224a8 8 0 0 1 8 8v32" fill="#dedeff"/><path d="M8160 912a8 8 0 0 1 8-8h224a8 8 0 0 1 8 8v184a8 8 0 0 1-8 8h-224a8 8 0 0 1-8-8zM8160 944h240" stroke="#3a414a" fill="none"/><use xlink:href="#E" transform="matrix(1,0,0,1,8170,904) translate(0 23.6)"/><use xlink:href="#n" transform="matrix(1,0,0,1,8165,946.5) translate(0 17.1)"/><use xlink:href="#c" transform="matrix(1,0,0,1,8165,946.5) translate(115.9 17.1)"/><use xlink:href="#F" transform="matrix(1,0,0,1,8165,946.5) translate(149.45000000000002 17.1)"/><use xlink:href="#p" transform="matrix(1,0,0,1,8165,946.5) translate(190.35000000000002 17.1)"/><use xlink:href="#w" transform="matrix(1,0,0,1,8165,978.5) translate(0 17.1)"/><use xlink:href="#c" transform="matrix(1,0,0,1,8165,978.5) translate(106.85000000000001 17.1)"/><use xlink:href="#F" transform="matrix(1,0,0,1,8165,978.5) translate(140.4 17.1)"/><use xlink:href="#p" transform="matrix(1,0,0,1,8165,978.5) translate(181.3 17.1)"/><use xlink:href="#G" transform="matrix(1,0,0,1,8165,1010.5) translate(0 17.1)"/><use xlink:href="#H" transform="matrix(1,0,0,1,8165,1010.5) translate(53 17.1)"/><use xlink:href="#j" transform="matrix(1,0,0,1,8165,1042.5) translate(0 17.1)"/><use xlink:href="#I" transform="matrix(1,0,0,1,8165,1074.5) translate(0 17.1)"/><path d="M6944.36 1316a8 8 0 0 1 8-8h184a8 8 0 0 1 8 8v226a8 8 0 0 1-8 8h-184a8 8 0 0 1-8-8z" fill="#fff"/><path d="M6944.36 1348v-32a8 8 0 0 1 8-8h184a8 8 0 0 1 8 8v32" fill="#dedeff"/><path d="M6944.36 1316a8 8 0 0 1 8-8h184a8 8 0 0 1 8 8v226a8 8 0 0 1-8 8h-184a8 8 0 0 1-8-8zM6944.36 1348h200" stroke="#3a414a" fill="none"/><use xlink:href="#J" transform="matrix(1,0,0,1,6954.362882772959,1308) translate(0 23.6)"/><use xlink:href="#w" transform="matrix(1,0,0,1,6949.362882772959,1350.5) translate(0 16.799999999999997)"/><use xlink:href="#c" transform="matrix(1,0,0,1,6949.362882772959,1350.5) translate(106.85000000000001 16.799999999999997)"/><use xlink:href="#K" transform="matrix(1,0,0,1,6949.362882772959,1350.5) translate(140.4 16.799999999999997)"/><use xlink:href="#p" transform="matrix(1,0,0,1,6949.362882772959,1350.5) translate(0 38.4)"/><use xlink:href="#z" transform="matrix(1,0,0,1,6949.362882772959,1403.5) translate(0 16.799999999999997)"/><use xlink:href="#c" transform="matrix(1,0,0,1,6949.362882772959,1403.5) translate(97.85000000000001 16.799999999999997)"/><use xlink:href="#K" transform="matrix(1,0,0,1,6949.362882772959,1403.5) translate(131.4 16.799999999999997)"/><use xlink:href="#L" transform="matrix(1,0,0,1,6949.362882772959,1403.5) translate(0 38.4)"/><use xlink:href="#M" transform="matrix(1,0,0,1,6949.362882772959,1456.5) translate(0 17.1)"/><use xlink:href="#N" transform="matrix(1,0,0,1,6949.362882772959,1456.5) translate(134.7 17.1)"/><use xlink:href="#j" transform="matrix(1,0,0,1,6949.362882772959,1488.5) translate(0 17.1)"/><use xlink:href="#O" transform="matrix(1,0,0,1,6949.362882772959,1520.5) translate(0 17.1)"/><path d="M7164.86 960H7308a12 12 0 0 1 12 12v210.02a12 12 0 0 0 12 12h126a12 12 0 0 1 12 12v220.48a12 12 0 0 0 12 12h698.1" stroke="#3a414a" fill="none"/><path d="M7164.86 970v-20M7144.86 960h20" stroke="#3a414a" fill="#fff"/><path d="M8199.28 1448.5l-20-10 20-10" stroke="#3a414a" fill="#fff" fill-opacity="0"/><path d="M8199.28 1438.5h-20" stroke="#3a414a" fill="#fff"/><path d="M6923.86 960h-8a12 12 0 0 0-12 12v708a12 12 0 0 0 12 12h664.23" stroke="#3a414a" fill="none"/><path d="M6923.86 950v20M6943.86 960h-20" stroke="#3a414a" fill="#fff"/><path d="M7599.28 1702l-20-10 20-10" stroke="#3a414a" fill="#fff" fill-opacity="0"/><path d="M7599.28 1692h-20" stroke="#3a414a" fill="#fff"/><path d="M7164.27 1374.5H8179.5" stroke="#3a414a" fill="none"/><path d="M7145.1 1364.5l20 10-20 10" stroke="#3a414a" fill="#fff" fill-opacity="0"/><path d="M7145.1 1374.5h20M8179.5 1364.5v20M8199.5 1374.5h-20" stroke="#3a414a" fill="#fff"/><path d="M7164.27 1427.5h195.9a12 12 0 0 1 12 12V1584a12 12 0 0 0 12 12h195.33" stroke="#3a414a" fill="none"/><path d="M7145.1 1417.5l20 10-20 10" stroke="#3a414a" fill="#fff" fill-opacity="0"/><path d="M7145.1 1427.5h20M7579.5 1586v20M7599.5 1596h-20" stroke="#3a414a" fill="#fff"/><path d="M8420.5 1374.5h8a12 12 0 0 0 12-12v-139.25a12 12 0 0 0-12-12H8012a12 12 0 0 1-12-12V1004a12 12 0 0 1 12-12h128.1" stroke="#3a414a" fill="none"/><path d="M8420.5 1384.5v-20M8400.5 1374.5h20" stroke="#3a414a" fill="#fff"/><path d="M8159.28 1002l-20-10 20-10" stroke="#3a414a" fill="#fff" fill-opacity="0"/><path d="M8159.28 992h-20" stroke="#3a414a" fill="#fff"/><path d="M7860.5 960h279.6" stroke="#3a414a" fill="none"/><path d="M7860.5 970v-20M7840.5 960h20" stroke="#3a414a" fill="#fff"/><path d="M8159.27 970l-20-10 20-10" stroke="#3a414a" fill="#fff" fill-opacity="0"/><path d="M8159.27 960h-20" stroke="#3a414a" fill="#fff"/><path d="M6119.4 820h35.6a5 5 0 0 1 5 5 5 5 0 0 0 5 5h35.6" stroke="#3a414a" fill="none"/><path d="M6100.22 810l20 10-20 10" stroke="#3a414a" fill="#fff" fill-opacity="0"/><path d="M6100.22 820h20" stroke="#3a414a" fill="#fff"/><path d="M6219.78 840l-20-10 20-10" stroke="#3a414a" fill="#fff" fill-opacity="0"/><path d="M6219.78 830h-20" stroke="#3a414a" fill="#fff"/><path d="M6220 808a8 8 0 0 1 8-8h224a8 8 0 0 1 8 8v44a8 8 0 0 1-8 8h-224a8 8 0 0 1-8-8z" stroke="#000" stroke-opacity="0" fill="#fff" fill-opacity="0"/><g><use xlink:href="#P" transform="matrix(1,0,0,1,6225,805) translate(0 30.025)"/><use xlink:href="#Q" transform="matrix(1,0,0,1,6225,805) translate(24.950000000000003 30.025)"/></g><path d="M6100 936h43a7 7 0 0 1 7 7 7 7 0 0 0 7 7h23.6M6100.5 921v30" stroke="#3a414a" fill="none"/><path d="M6199.78 960l-20-10 20-10" stroke="#3a414a" fill="#fff" fill-opacity="0"/><path d="M6199.78 950h-20" stroke="#3a414a" fill="#fff"/><path d="M6200 928a8 8 0 0 1 8-8h224a8 8 0 0 1 8 8v44a8 8 0 0 1-8 8h-224a8 8 0 0 1-8-8z" stroke="#000" stroke-opacity="0" fill="#fff" fill-opacity="0"/><g><use xlink:href="#R" transform="matrix(1,0,0,1,6205,925) translate(0 30.025)"/><use xlink:href="#S" transform="matrix(1,0,0,1,6205,925) translate(15 30.025)"/><use xlink:href="#Q" transform="matrix(1,0,0,1,6205,925) translate(25 30.025)"/></g><path d="M6380 837a8 8 0 0 1 8-8h224a8 8 0 0 1 8 8v106.8a8 8 0 0 1-8 8h-224a8 8 0 0 1-8-8z" stroke="#000" stroke-opacity="0" fill="#fff" fill-opacity="0"/><g><use xlink:href="#T" transform="matrix(1,0,0,1,6385,834) translate(0 28.597916666666663)"/><use xlink:href="#U" transform="matrix(1,0,0,1,6385,834) translate(49.87222222222221 28.597916666666663)"/><use xlink:href="#V" transform="matrix(1,0,0,1,6385,834) translate(0 66.19791666666666)"/><use xlink:href="#W" transform="matrix(1,0,0,1,6385,834) translate(159.88703703703698 66.19791666666666)"/><use xlink:href="#X" transform="matrix(1,0,0,1,6385,834) translate(0 103.79791666666665)"/></g><defs><path fill="#3a414a" d="M96-169c-40 0-48 33-48 73s9 75 48 75c24 0 41-14 43-38l32 2c-6 37-31 61-74 61-59 0-76-41-82-99-10-93 101-131 147-64 4 7 5 14 7 22l-32 3c-4-21-16-35-41-35" id="Y"/><path fill="#3a414a" d="M100-194c62-1 85 37 85 99 1 63-27 99-86 99S16-35 15-95c0-66 28-99 85-99zM99-20c44 1 53-31 53-75 0-43-8-75-51-75s-53 32-53 75 10 74 51 75" id="Z"/><path fill="#3a414a" d="M210-169c-67 3-38 105-44 169h-31v-121c0-29-5-50-35-48C34-165 62-65 56 0H25l-1-190h30c1 10-1 24 2 32 10-44 99-50 107 0 11-21 27-35 58-36 85-2 47 119 55 194h-31v-121c0-29-5-49-35-48" id="aa"/><path fill="#3a414a" d="M115-194c55 1 70 41 70 98S169 2 115 4C84 4 66-9 55-30l1 105H24l-1-265h31l2 30c10-21 28-34 59-34zm-8 174c40 0 45-34 45-75s-6-73-45-74c-42 0-51 32-51 76 0 43 10 73 51 73" id="ab"/><path fill="#3a414a" d="M141-36C126-15 110 5 73 4 37 3 15-17 15-53c-1-64 63-63 125-63 3-35-9-54-41-54-24 1-41 7-42 31l-33-3c5-37 33-52 76-52 45 0 72 20 72 64v82c-1 20 7 32 28 27v20c-31 9-61-2-59-35zM48-53c0 20 12 33 32 33 41-3 63-29 60-74-43 2-92-5-92 41" id="ac"/><path fill="#3a414a" d="M117-194c89-4 53 116 60 194h-32v-121c0-31-8-49-39-48C34-167 62-67 57 0H25l-1-190h30c1 10-1 24 2 32 11-22 29-35 61-36" id="ad"/><path fill="#3a414a" d="M179-190L93 31C79 59 56 82 12 73V49c39 6 53-20 64-50L1-190h34L92-34l54-156h33" id="ae"/><g id="a"><use transform="matrix(0.05,0,0,0.05,0,0)" xlink:href="#Y"/><use transform="matrix(0.05,0,0,0.05,9,0)" xlink:href="#Z"/><use transform="matrix(0.05,0,0,0.05,19,0)" xlink:href="#aa"/><use transform="matrix(0.05,0,0,0.05,33.95,0)" xlink:href="#ab"/><use transform="matrix(0.05,0,0,0.05,43.95,0)" xlink:href="#ac"/><use transform="matrix(0.05,0,0,0.05,53.95,0)" xlink:href="#ad"/><use transform="matrix(0.05,0,0,0.05,63.95,0)" xlink:href="#ae"/></g><path fill="#3a414a" d="M-5 72V49h209v23H-5" id="af"/><path fill="#3a414a" d="M24-231v-30h32v30H24zM24 0v-190h32V0H24" id="ag"/><path fill="#3a414a" d="M85-194c31 0 48 13 60 33l-1-100h32l1 261h-30c-2-10 0-23-3-31C134-8 116 4 85 4 32 4 16-35 15-94c0-66 23-100 70-100zm9 24c-40 0-46 34-46 75 0 40 6 74 45 74 42 0 51-32 51-76 0-42-9-74-50-73" id="ah"/><g id="b"><use transform="matrix(0.05,0,0,0.05,0,0)" xlink:href="#Y"/><use transform="matrix(0.05,0,0,0.05,9,0)" xlink:href="#Z"/><use transform="matrix(0.05,0,0,0.05,19,0)" xlink:href="#aa"/><use transform="matrix(0.05,0,0,0.05,33.95,0)" xlink:href="#ab"/><use transform="matrix(0.05,0,0,0.05,43.95,0)" xlink:href="#ac"/><use transform="matrix(0.05,0,0,0.05,53.95,0)" xlink:href="#ad"/><use transform="matrix(0.05,0,0,0.05,63.95,0)" xlink:href="#ae"/><use transform="matrix(0.05,0,0,0.05,72.95,0)" xlink:href="#af"/><use transform="matrix(0.05,0,0,0.05,82.95,0)" xlink:href="#ag"/><use transform="matrix(0.05,0,0,0.05,86.9,0)" xlink:href="#ah"/></g><path fill="#3a414a" d="M33 0v-248h34V0H33" id="ai"/><path fill="#3a414a" d="M190 0L58-211 59 0H30v-248h39L202-35l-2-213h31V0h-41" id="aj"/><path fill="#3a414a" d="M127-220V0H93v-220H8v-28h204v28h-85" id="ak"/><g id="c"><use transform="matrix(0.05,0,0,0.05,0,0)" xlink:href="#ai"/><use transform="matrix(0.05,0,0,0.05,5,0)" xlink:href="#aj"/><use transform="matrix(0.05,0,0,0.05,17.950000000000003,0)" xlink:href="#ak"/></g><path fill="#3a414a" d="M87 75C49 33 22-17 22-94c0-76 28-126 65-167h31c-38 41-64 92-64 168S80 34 118 75H87" id="al"/><path fill="#3a414a" d="M30-248c87 1 191-15 191 75 0 78-77 80-158 76V0H30v-248zm33 125c57 0 124 11 124-50 0-59-68-47-124-48v98" id="am"/><path fill="#3a414a" d="M194 0L95-120 63-95V0H30v-248h33v124l119-124h40L117-140 236 0h-42" id="an"/><path fill="#3a414a" d="M33-261c38 41 65 92 65 168S71 34 33 75H2C39 34 66-17 66-93S39-220 2-261h31" id="ao"/><g id="d"><use transform="matrix(0.05,0,0,0.05,0,0)" xlink:href="#al"/><use transform="matrix(0.05,0,0,0.05,5.95,0)" xlink:href="#am"/><use transform="matrix(0.05,0,0,0.05,17.95,0)" xlink:href="#an"/><use transform="matrix(0.05,0,0,0.05,29.950000000000003,0)" xlink:href="#ao"/></g><path fill="#3a414a" d="M100-194c63 0 86 42 84 106H49c0 40 14 67 53 68 26 1 43-12 49-29l28 8c-11 28-37 45-77 45C44 4 14-33 15-96c1-61 26-98 85-98zm52 81c6-60-76-77-97-28-3 7-6 17-6 28h103" id="ap"/><g id="e"><use transform="matrix(0.05,0,0,0.05,0,0)" xlink:href="#ad"/><use transform="matrix(0.05,0,0,0.05,10,0)" xlink:href="#ac"/><use transform="matrix(0.05,0,0,0.05,20,0)" xlink:href="#aa"/><use transform="matrix(0.05,0,0,0.05,34.95,0)" xlink:href="#ap"/></g><path fill="#3a414a" d="M137 0h-34L2-248h35l83 218 83-218h36" id="aq"/><path fill="#3a414a" d="M205 0l-28-72H64L36 0H1l101-248h38L239 0h-34zm-38-99l-47-123c-12 45-31 82-46 123h93" id="ar"/><path fill="#3a414a" d="M233-177c-1 41-23 64-60 70L243 0h-38l-65-103H63V0H30v-248c88 3 205-21 203 71zM63-129c60-2 137 13 137-47 0-61-80-42-137-45v92" id="as"/><path fill="#3a414a" d="M212-179c-10-28-35-45-73-45-59 0-87 40-87 99 0 60 29 101 89 101 43 0 62-24 78-52l27 14C228-24 195 4 139 4 59 4 22-46 18-125c-6-104 99-153 187-111 19 9 31 26 39 46" id="at"/><path fill="#3a414a" d="M197 0v-115H63V0H30v-248h33v105h134v-105h34V0h-34" id="au"/><path fill="#3a414a" d="M54-142c48-35 137-8 131 61C196 18 31 33 14-55l32-4c7 23 22 37 52 37 35-1 51-22 54-58 4-55-73-65-99-34H22l8-134h141v27H59" id="av"/><path fill="#3a414a" d="M101-251c68 0 85 55 85 127S166 4 100 4C33 4 14-52 14-124c0-73 17-127 87-127zm-1 229c47 0 54-49 54-102s-4-102-53-102c-51 0-55 48-55 102 0 53 5 102 54 102" id="aw"/><g id="f"><use transform="matrix(0.05,0,0,0.05,0,0)" xlink:href="#aq"/><use transform="matrix(0.05,0,0,0.05,10.65,0)" xlink:href="#ar"/><use transform="matrix(0.05,0,0,0.05,22.65,0)" xlink:href="#as"/><use transform="matrix(0.05,0,0,0.05,35.6,0)" xlink:href="#at"/><use transform="matrix(0.05,0,0,0.05,48.550000000000004,0)" xlink:href="#au"/><use transform="matrix(0.05,0,0,0.05,61.5,0)" xlink:href="#ar"/><use transform="matrix(0.05,0,0,0.05,73.5,0)" xlink:href="#as"/><use transform="matrix(0.05,0,0,0.05,86.45,0)" xlink:href="#al"/><use transform="matrix(0.05,0,0,0.05,92.4,0)" xlink:href="#av"/><use transform="matrix(0.05,0,0,0.05,102.4,0)" xlink:href="#aw"/><use transform="matrix(0.05,0,0,0.05,112.4,0)" xlink:href="#ao"/></g><path fill="#3a414a" d="M24 0v-261h32V0H24" id="ax"/><g id="g"><use transform="matrix(0.05,0,0,0.05,0,0)" xlink:href="#ap"/><use transform="matrix(0.05,0,0,0.05,10,0)" xlink:href="#aa"/><use transform="matrix(0.05,0,0,0.05,24.950000000000003,0)" xlink:href="#ac"/><use transform="matrix(0.05,0,0,0.05,34.95,0)" xlink:href="#ag"/><use transform="matrix(0.05,0,0,0.05,38.900000000000006,0)" xlink:href="#ax"/></g><path fill="#3a414a" d="M27 0v-27h64v-190l-56 39v-29l58-41h29v221h61V0H27" id="ay"/><g id="h"><use transform="matrix(0.05,0,0,0.05,0,0)" xlink:href="#aq"/><use transform="matrix(0.05,0,0,0.05,10.65,0)" xlink:href="#ar"/><use transform="matrix(0.05,0,0,0.05,22.65,0)" xlink:href="#as"/><use transform="matrix(0.05,0,0,0.05,35.6,0)" xlink:href="#at"/><use transform="matrix(0.05,0,0,0.05,48.550000000000004,0)" xlink:href="#au"/><use transform="matrix(0.05,0,0,0.05,61.5,0)" xlink:href="#ar"/><use transform="matrix(0.05,0,0,0.05,73.5,0)" xlink:href="#as"/><use transform="matrix(0.05,0,0,0.05,86.45,0)" xlink:href="#al"/><use transform="matrix(0.05,0,0,0.05,92.4,0)" xlink:href="#ay"/><use transform="matrix(0.05,0,0,0.05,102.4,0)" xlink:href="#av"/><use transform="matrix(0.05,0,0,0.05,112.4,0)" xlink:href="#ao"/></g><path fill="#3a414a" d="M84 4C-5 8 30-112 23-190h32v120c0 31 7 50 39 49 72-2 45-101 50-169h31l1 190h-30c-1-10 1-25-2-33-11 22-28 36-60 37" id="az"/><path fill="#3a414a" d="M114-163C36-179 61-72 57 0H25l-1-190h30c1 12-1 29 2 39 6-27 23-49 58-41v29" id="aA"/><g id="i"><use transform="matrix(0.05,0,0,0.05,0,0)" xlink:href="#az"/><use transform="matrix(0.05,0,0,0.05,10,0)" xlink:href="#aA"/><use transform="matrix(0.05,0,0,0.05,15.949999999999998,0)" xlink:href="#ax"/></g><path fill="#3a414a" d="M141 0L90-78 38 0H4l68-98-65-92h35l48 74 47-74h35l-64 92 68 98h-35" id="aB"/><path fill="#3a414a" d="M135-143c-3-34-86-38-87 0 15 53 115 12 119 90S17 21 10-45l28-5c4 36 97 45 98 0-10-56-113-15-118-90-4-57 82-63 122-42 12 7 21 19 24 35" id="aC"/><g id="j"><use transform="matrix(0.05,0,0,0.05,0,0)" xlink:href="#ai"/><use transform="matrix(0.05,0,0,0.05,5,0)" xlink:href="#ad"/><use transform="matrix(0.05,0,0,0.05,15,0)" xlink:href="#ah"/><use transform="matrix(0.05,0,0,0.05,25,0)" xlink:href="#ap"/><use transform="matrix(0.05,0,0,0.05,35,0)" xlink:href="#aB"/><use transform="matrix(0.05,0,0,0.05,44,0)" xlink:href="#ap"/><use transform="matrix(0.05,0,0,0.05,54,0)" xlink:href="#aC"/></g><g id="k"><use transform="matrix(0.05,0,0,0.05,0,0)" xlink:href="#ag"/><use transform="matrix(0.05,0,0,0.05,3.95,0)" xlink:href="#ah"/><use transform="matrix(0.05,0,0,0.05,13.949999999999998,0)" xlink:href="#aB"/><use transform="matrix(0.05,0,0,0.05,22.95,0)" xlink:href="#af"/><use transform="matrix(0.05,0,0,0.05,32.95,0)" xlink:href="#ad"/><use transform="matrix(0.05,0,0,0.05,42.95,0)" xlink:href="#ac"/><use transform="matrix(0.05,0,0,0.05,52.95,0)" xlink:href="#aa"/><use transform="matrix(0.05,0,0,0.05,67.9,0)" xlink:href="#ap"/></g><g id="l"><use transform="matrix(0.05,0,0,0.05,0,0)" xlink:href="#ag"/><use transform="matrix(0.05,0,0,0.05,3.95,0)" xlink:href="#ah"/><use transform="matrix(0.05,0,0,0.05,13.949999999999998,0)" xlink:href="#aB"/><use transform="matrix(0.05,0,0,0.05,22.95,0)" xlink:href="#af"/><use transform="matrix(0.05,0,0,0.05,32.95,0)" xlink:href="#ap"/><use transform="matrix(0.05,0,0,0.05,42.95,0)" xlink:href="#aa"/><use transform="matrix(0.05,0,0,0.05,57.900000000000006,0)" xlink:href="#ac"/><use transform="matrix(0.05,0,0,0.05,67.9,0)" xlink:href="#ag"/><use transform="matrix(0.05,0,0,0.05,71.85000000000001,0)" xlink:href="#ax"/></g><path fill="#3a414a" d="M59-47c-2 24 18 29 38 22v24C64 9 27 4 27-40v-127H5v-23h24l9-43h21v43h35v23H59v120" id="aD"/><g id="m"><use transform="matrix(0.05,0,0,0.05,0,0)" xlink:href="#Y"/><use transform="matrix(0.05,0,0,0.05,9,0)" xlink:href="#Z"/><use transform="matrix(0.05,0,0,0.05,19,0)" xlink:href="#ad"/><use transform="matrix(0.05,0,0,0.05,29,0)" xlink:href="#ad"/><use transform="matrix(0.05,0,0,0.05,39,0)" xlink:href="#ap"/><use transform="matrix(0.05,0,0,0.05,49,0)" xlink:href="#Y"/><use transform="matrix(0.05,0,0,0.05,58,0)" xlink:href="#aD"/><use transform="matrix(0.05,0,0,0.05,63,0)" xlink:href="#ag"/><use transform="matrix(0.05,0,0,0.05,66.95,0)" xlink:href="#Z"/><use transform="matrix(0.05,0,0,0.05,76.95,0)" xlink:href="#ad"/></g><g id="n"><use transform="matrix(0.05,0,0,0.05,0,0)" xlink:href="#Y"/><use transform="matrix(0.05,0,0,0.05,9,0)" xlink:href="#Z"/><use transform="matrix(0.05,0,0,0.05,19,0)" xlink:href="#ad"/><use transform="matrix(0.05,0,0,0.05,29,0)" xlink:href="#ad"/><use transform="matrix(0.05,0,0,0.05,39,0)" xlink:href="#ap"/><use transform="matrix(0.05,0,0,0.05,49,0)" xlink:href="#Y"/><use transform="matrix(0.05,0,0,0.05,58,0)" xlink:href="#aD"/><use transform="matrix(0.05,0,0,0.05,63,0)" xlink:href="#ag"/><use transform="matrix(0.05,0,0,0.05,66.95,0)" xlink:href="#Z"/><use transform="matrix(0.05,0,0,0.05,76.95,0)" xlink:href="#ad"/><use transform="matrix(0.05,0,0,0.05,86.95,0)" xlink:href="#af"/><use transform="matrix(0.05,0,0,0.05,96.95,0)" xlink:href="#ag"/><use transform="matrix(0.05,0,0,0.05,100.9,0)" xlink:href="#ah"/></g><g id="o"><use transform="matrix(0.05,0,0,0.05,0,0)" xlink:href="#Y"/><use transform="matrix(0.05,0,0,0.05,9,0)" xlink:href="#Z"/><use transform="matrix(0.05,0,0,0.05,19,0)" xlink:href="#ad"/><use transform="matrix(0.05,0,0,0.05,29,0)" xlink:href="#ad"/><use transform="matrix(0.05,0,0,0.05,39,0)" xlink:href="#ap"/><use transform="matrix(0.05,0,0,0.05,49,0)" xlink:href="#Y"/><use transform="matrix(0.05,0,0,0.05,58,0)" xlink:href="#aD"/><use transform="matrix(0.05,0,0,0.05,63,0)" xlink:href="#ag"/><use transform="matrix(0.05,0,0,0.05,66.95,0)" xlink:href="#Z"/><use transform="matrix(0.05,0,0,0.05,76.95,0)" xlink:href="#ad"/><use transform="matrix(0.05,0,0,0.05,86.95,0)" xlink:href="#af"/><use transform="matrix(0.05,0,0,0.05,96.95,0)" xlink:href="#ap"/><use transform="matrix(0.05,0,0,0.05,106.95,0)" xlink:href="#aa"/><use transform="matrix(0.05,0,0,0.05,121.9,0)" xlink:href="#ac"/><use transform="matrix(0.05,0,0,0.05,131.9,0)" xlink:href="#ag"/><use transform="matrix(0.05,0,0,0.05,135.85,0)" xlink:href="#ax"/></g><path fill="#3a414a" d="M63-220v92h138v28H63V0H30v-248h175v28H63" id="aE"/><g id="p"><use transform="matrix(0.05,0,0,0.05,0,0)" xlink:href="#al"/><use transform="matrix(0.05,0,0,0.05,5.95,0)" xlink:href="#aE"/><use transform="matrix(0.05,0,0,0.05,16.900000000000002,0)" xlink:href="#an"/><use transform="matrix(0.05,0,0,0.05,28.900000000000002,0)" xlink:href="#ao"/></g><g id="q"><use transform="matrix(0.05,0,0,0.05,0,0)" xlink:href="#Y"/><use transform="matrix(0.05,0,0,0.05,9,0)" xlink:href="#Z"/><use transform="matrix(0.05,0,0,0.05,19,0)" xlink:href="#ad"/><use transform="matrix(0.05,0,0,0.05,29,0)" xlink:href="#ad"/><use transform="matrix(0.05,0,0,0.05,39,0)" xlink:href="#ap"/><use transform="matrix(0.05,0,0,0.05,49,0)" xlink:href="#Y"/><use transform="matrix(0.05,0,0,0.05,58,0)" xlink:href="#aD"/><use transform="matrix(0.05,0,0,0.05,63,0)" xlink:href="#ag"/><use transform="matrix(0.05,0,0,0.05,66.95,0)" xlink:href="#Z"/><use transform="matrix(0.05,0,0,0.05,76.95,0)" xlink:href="#ad"/><use transform="matrix(0.05,0,0,0.05,86.95,0)" xlink:href="#af"/><use transform="matrix(0.05,0,0,0.05,96.95,0)" xlink:href="#aD"/><use transform="matrix(0.05,0,0,0.05,101.95,0)" xlink:href="#ae"/><use transform="matrix(0.05,0,0,0.05,110.95,0)" xlink:href="#ab"/><use transform="matrix(0.05,0,0,0.05,120.95,0)" xlink:href="#ap"/></g><path fill="#3a414a" d="M30 0v-248h187v28H63v79h144v27H63v87h162V0H30" id="aF"/><path fill="#3a414a" d="M232-93c-1 65-40 97-104 97C67 4 28-28 28-90v-158h33c8 89-33 224 67 224 102 0 64-133 71-224h33v155" id="aG"/><path fill="#3a414a" d="M240 0l2-218c-23 76-54 145-80 218h-23L58-218 59 0H30v-248h44l77 211c21-75 51-140 76-211h43V0h-30" id="aH"/><g id="r"><use transform="matrix(0.05,0,0,0.05,0,0)" xlink:href="#aF"/><use transform="matrix(0.05,0,0,0.05,12,0)" xlink:href="#aj"/><use transform="matrix(0.05,0,0,0.05,24.950000000000003,0)" xlink:href="#aG"/><use transform="matrix(0.05,0,0,0.05,37.900000000000006,0)" xlink:href="#aH"/></g><g id="s"><use transform="matrix(0.05,0,0,0.05,0,0)" xlink:href="#aq"/><use transform="matrix(0.05,0,0,0.05,10.65,0)" xlink:href="#ar"/><use transform="matrix(0.05,0,0,0.05,22.65,0)" xlink:href="#as"/><use transform="matrix(0.05,0,0,0.05,35.6,0)" xlink:href="#at"/><use transform="matrix(0.05,0,0,0.05,48.550000000000004,0)" xlink:href="#au"/><use transform="matrix(0.05,0,0,0.05,61.5,0)" xlink:href="#ar"/><use transform="matrix(0.05,0,0,0.05,73.5,0)" xlink:href="#as"/><use transform="matrix(0.05,0,0,0.05,86.45,0)" xlink:href="#al"/><use transform="matrix(0.05,0,0,0.05,92.4,0)" xlink:href="#av"/><use transform="matrix(0.05,0,0,0.05,102.4,0)" xlink:href="#aw"/><use transform="matrix(0.05,0,0,0.05,112.4,0)" xlink:href="#af"/></g><g id="t"><use transform="matrix(0.05,0,0,0.05,0,0)" xlink:href="#ag"/><use transform="matrix(0.05,0,0,0.05,3.95,0)" xlink:href="#ah"/><use transform="matrix(0.05,0,0,0.05,13.949999999999998,0)" xlink:href="#aB"/><use transform="matrix(0.05,0,0,0.05,22.95,0)" xlink:href="#af"/><use transform="matrix(0.05,0,0,0.05,32.95,0)" xlink:href="#Y"/><use transform="matrix(0.05,0,0,0.05,41.95,0)" xlink:href="#Z"/><use transform="matrix(0.05,0,0,0.05,51.95,0)" xlink:href="#ad"/><use transform="matrix(0.05,0,0,0.05,61.95,0)" xlink:href="#ad"/><use transform="matrix(0.05,0,0,0.05,71.95,0)" xlink:href="#ap"/><use transform="matrix(0.05,0,0,0.05,81.95,0)" xlink:href="#Y"/><use transform="matrix(0.05,0,0,0.05,90.95,0)" xlink:href="#aD"/><use transform="matrix(0.05,0,0,0.05,95.95,0)" xlink:href="#ag"/><use transform="matrix(0.05,0,0,0.05,99.9,0)" xlink:href="#Z"/><use transform="matrix(0.05,0,0,0.05,109.9,0)" xlink:href="#ad"/><use transform="matrix(0.05,0,0,0.05,119.9,0)" xlink:href="#af"/><use transform="matrix(0.05,0,0,0.05,129.9,0)" xlink:href="#ap"/><use transform="matrix(0.05,0,0,0.05,139.9,0)" xlink:href="#aa"/><use transform="matrix(0.05,0,0,0.05,154.85,0)" xlink:href="#ac"/><use transform="matrix(0.05,0,0,0.05,164.85,0)" xlink:href="#ag"/><use transform="matrix(0.05,0,0,0.05,168.79999999999998,0)" xlink:href="#ax"/></g><g id="u"><use transform="matrix(0.05,0,0,0.05,0,0)" xlink:href="#ag"/><use transform="matrix(0.05,0,0,0.05,3.95,0)" xlink:href="#ah"/><use transform="matrix(0.05,0,0,0.05,13.949999999999998,0)" xlink:href="#aB"/><use transform="matrix(0.05,0,0,0.05,22.95,0)" xlink:href="#af"/><use transform="matrix(0.05,0,0,0.05,32.95,0)" xlink:href="#Y"/><use transform="matrix(0.05,0,0,0.05,41.95,0)" xlink:href="#Z"/><use transform="matrix(0.05,0,0,0.05,51.95,0)" xlink:href="#aa"/><use transform="matrix(0.05,0,0,0.05,66.9,0)" xlink:href="#ab"/><use transform="matrix(0.05,0,0,0.05,76.9,0)" xlink:href="#ac"/><use transform="matrix(0.05,0,0,0.05,86.9,0)" xlink:href="#ad"/><use transform="matrix(0.05,0,0,0.05,96.9,0)" xlink:href="#ae"/><use transform="matrix(0.05,0,0,0.05,105.9,0)" xlink:href="#af"/><use transform="matrix(0.05,0,0,0.05,115.9,0)" xlink:href="#ag"/><use transform="matrix(0.05,0,0,0.05,119.85000000000001,0)" xlink:href="#ah"/></g><path fill="#3a414a" d="M177-190C167-65 218 103 67 71c-23-6-38-20-44-43l32-5c15 47 100 32 89-28v-30C133-14 115 1 83 1 29 1 15-40 15-95c0-56 16-97 71-98 29-1 48 16 59 35 1-10 0-23 2-32h30zM94-22c36 0 50-32 50-73 0-42-14-75-50-75-39 0-46 34-46 75s6 73 46 73" id="aI"/><g id="v"><use transform="matrix(0.05,0,0,0.05,0,0)" xlink:href="#Y"/><use transform="matrix(0.05,0,0,0.05,9,0)" xlink:href="#ac"/><use transform="matrix(0.05,0,0,0.05,19,0)" xlink:href="#aa"/><use transform="matrix(0.05,0,0,0.05,33.95,0)" xlink:href="#ab"/><use transform="matrix(0.05,0,0,0.05,43.95,0)" xlink:href="#ac"/><use transform="matrix(0.05,0,0,0.05,53.95,0)" xlink:href="#ag"/><use transform="matrix(0.05,0,0,0.05,57.900000000000006,0)" xlink:href="#aI"/><use transform="matrix(0.05,0,0,0.05,67.9,0)" xlink:href="#ad"/></g><g id="w"><use transform="matrix(0.05,0,0,0.05,0,0)" xlink:href="#Y"/><use transform="matrix(0.05,0,0,0.05,9,0)" xlink:href="#ac"/><use transform="matrix(0.05,0,0,0.05,19,0)" xlink:href="#aa"/><use transform="matrix(0.05,0,0,0.05,33.95,0)" xlink:href="#ab"/><use transform="matrix(0.05,0,0,0.05,43.95,0)" xlink:href="#ac"/><use transform="matrix(0.05,0,0,0.05,53.95,0)" xlink:href="#ag"/><use transform="matrix(0.05,0,0,0.05,57.900000000000006,0)" xlink:href="#aI"/><use transform="matrix(0.05,0,0,0.05,67.9,0)" xlink:href="#ad"/><use transform="matrix(0.05,0,0,0.05,77.9,0)" xlink:href="#af"/><use transform="matrix(0.05,0,0,0.05,87.9,0)" xlink:href="#ag"/><use transform="matrix(0.05,0,0,0.05,91.85000000000001,0)" xlink:href="#ah"/></g><g id="x"><use transform="matrix(0.05,0,0,0.05,0,0)" xlink:href="#Y"/><use transform="matrix(0.05,0,0,0.05,9,0)" xlink:href="#ac"/><use transform="matrix(0.05,0,0,0.05,19,0)" xlink:href="#aa"/><use transform="matrix(0.05,0,0,0.05,33.95,0)" xlink:href="#ab"/><use transform="matrix(0.05,0,0,0.05,43.95,0)" xlink:href="#ac"/><use transform="matrix(0.05,0,0,0.05,53.95,0)" xlink:href="#ag"/><use transform="matrix(0.05,0,0,0.05,57.900000000000006,0)" xlink:href="#aI"/><use transform="matrix(0.05,0,0,0.05,67.9,0)" xlink:href="#ad"/><use transform="matrix(0.05,0,0,0.05,77.9,0)" xlink:href="#af"/><use transform="matrix(0.05,0,0,0.05,87.9,0)" xlink:href="#aD"/><use transform="matrix(0.05,0,0,0.05,92.9,0)" xlink:href="#ae"/><use transform="matrix(0.05,0,0,0.05,101.9,0)" xlink:href="#ab"/><use transform="matrix(0.05,0,0,0.05,111.9,0)" xlink:href="#ap"/></g><g id="y"><use transform="matrix(0.05,0,0,0.05,0,0)" xlink:href="#ap"/><use transform="matrix(0.05,0,0,0.05,10,0)" xlink:href="#aa"/><use transform="matrix(0.05,0,0,0.05,24.950000000000003,0)" xlink:href="#ac"/><use transform="matrix(0.05,0,0,0.05,34.95,0)" xlink:href="#ag"/><use transform="matrix(0.05,0,0,0.05,38.900000000000006,0)" xlink:href="#ax"/><use transform="matrix(0.05,0,0,0.05,42.85000000000001,0)" xlink:href="#af"/><use transform="matrix(0.05,0,0,0.05,52.85,0)" xlink:href="#aD"/><use transform="matrix(0.05,0,0,0.05,57.85,0)" xlink:href="#ap"/><use transform="matrix(0.05,0,0,0.05,67.85000000000001,0)" xlink:href="#aa"/><use transform="matrix(0.05,0,0,0.05,82.80000000000001,0)" xlink:href="#ab"/><use transform="matrix(0.05,0,0,0.05,92.80000000000001,0)" xlink:href="#ax"/><use transform="matrix(0.05,0,0,0.05,96.75000000000001,0)" xlink:href="#ac"/><use transform="matrix(0.05,0,0,0.05,106.75,0)" xlink:href="#aD"/><use transform="matrix(0.05,0,0,0.05,111.75,0)" xlink:href="#ap"/></g><g id="z"><use transform="matrix(0.05,0,0,0.05,0,0)" xlink:href="#aD"/><use transform="matrix(0.05,0,0,0.05,5,0)" xlink:href="#ap"/><use transform="matrix(0.05,0,0,0.05,15,0)" xlink:href="#aa"/><use transform="matrix(0.05,0,0,0.05,29.950000000000003,0)" xlink:href="#ab"/><use transform="matrix(0.05,0,0,0.05,39.95,0)" xlink:href="#ax"/><use transform="matrix(0.05,0,0,0.05,43.900000000000006,0)" xlink:href="#ac"/><use transform="matrix(0.05,0,0,0.05,53.900000000000006,0)" xlink:href="#aD"/><use transform="matrix(0.05,0,0,0.05,58.900000000000006,0)" xlink:href="#ap"/><use transform="matrix(0.05,0,0,0.05,68.9,0)" xlink:href="#af"/><use transform="matrix(0.05,0,0,0.05,78.9,0)" xlink:href="#ag"/><use transform="matrix(0.05,0,0,0.05,82.85000000000001,0)" xlink:href="#ah"/></g><path fill="#3a414a" d="M115-194c53 0 69 39 70 98 0 66-23 100-70 100C84 3 66-7 56-30L54 0H23l1-261h32v101c10-23 28-34 59-34zm-8 174c40 0 45-34 45-75 0-40-5-75-45-74-42 0-51 32-51 76 0 43 10 73 51 73" id="aJ"/><path fill="#3a414a" d="M24-231v-30h32v30H24zM-9 49c24 4 33-6 33-30v-209h32V24c2 40-23 58-65 49V49" id="aK"/><g id="A"><use transform="matrix(0.05,0,0,0.05,0,0)" xlink:href="#aC"/><use transform="matrix(0.05,0,0,0.05,9,0)" xlink:href="#az"/><use transform="matrix(0.05,0,0,0.05,19,0)" xlink:href="#aJ"/><use transform="matrix(0.05,0,0,0.05,29,0)" xlink:href="#aK"/><use transform="matrix(0.05,0,0,0.05,32.95,0)" xlink:href="#ap"/><use transform="matrix(0.05,0,0,0.05,42.95,0)" xlink:href="#Y"/><use transform="matrix(0.05,0,0,0.05,51.95,0)" xlink:href="#aD"/></g><g id="B"><use transform="matrix(0.05,0,0,0.05,0,0)" xlink:href="#aJ"/><use transform="matrix(0.05,0,0,0.05,10,0)" xlink:href="#Z"/><use transform="matrix(0.05,0,0,0.05,20,0)" xlink:href="#ah"/><use transform="matrix(0.05,0,0,0.05,30,0)" xlink:href="#ae"/></g><path fill="#3a414a" d="M101-251c82-7 93 87 43 132L82-64C71-53 59-42 53-27h129V0H18c2-99 128-94 128-182 0-28-16-43-45-43s-46 15-49 41l-32-3c6-41 34-60 81-64" id="aL"/><g id="C"><use transform="matrix(0.05,0,0,0.05,0,0)" xlink:href="#aq"/><use transform="matrix(0.05,0,0,0.05,10.65,0)" xlink:href="#ar"/><use transform="matrix(0.05,0,0,0.05,22.65,0)" xlink:href="#as"/><use transform="matrix(0.05,0,0,0.05,35.6,0)" xlink:href="#at"/><use transform="matrix(0.05,0,0,0.05,48.550000000000004,0)" xlink:href="#au"/><use transform="matrix(0.05,0,0,0.05,61.5,0)" xlink:href="#ar"/><use transform="matrix(0.05,0,0,0.05,73.5,0)" xlink:href="#as"/><use transform="matrix(0.05,0,0,0.05,86.45,0)" xlink:href="#al"/><use transform="matrix(0.05,0,0,0.05,92.4,0)" xlink:href="#aL"/><use transform="matrix(0.05,0,0,0.05,102.4,0)" xlink:href="#av"/><use transform="matrix(0.05,0,0,0.05,112.4,0)" xlink:href="#av"/><use transform="matrix(0.05,0,0,0.05,122.4,0)" xlink:href="#ao"/></g><g id="D"><use transform="matrix(0.05,0,0,0.05,0,0)" xlink:href="#aD"/><use transform="matrix(0.05,0,0,0.05,5,0)" xlink:href="#ap"/><use transform="matrix(0.05,0,0,0.05,15,0)" xlink:href="#aa"/><use transform="matrix(0.05,0,0,0.05,29.950000000000003,0)" xlink:href="#ab"/><use transform="matrix(0.05,0,0,0.05,39.95,0)" xlink:href="#ax"/><use transform="matrix(0.05,0,0,0.05,43.900000000000006,0)" xlink:href="#ac"/><use transform="matrix(0.05,0,0,0.05,53.900000000000006,0)" xlink:href="#aD"/><use transform="matrix(0.05,0,0,0.05,58.900000000000006,0)" xlink:href="#ap"/><use transform="matrix(0.05,0,0,0.05,68.9,0)" xlink:href="#af"/><use transform="matrix(0.05,0,0,0.05,78.9,0)" xlink:href="#aD"/><use transform="matrix(0.05,0,0,0.05,83.9,0)" xlink:href="#ae"/><use transform="matrix(0.05,0,0,0.05,92.9,0)" xlink:href="#ab"/><use transform="matrix(0.05,0,0,0.05,102.9,0)" xlink:href="#ap"/></g><g id="E"><use transform="matrix(0.05,0,0,0.05,0,0)" xlink:href="#Y"/><use transform="matrix(0.05,0,0,0.05,9,0)" xlink:href="#ac"/><use transform="matrix(0.05,0,0,0.05,19,0)" xlink:href="#aa"/><use transform="matrix(0.05,0,0,0.05,33.95,0)" xlink:href="#ab"/><use transform="matrix(0.05,0,0,0.05,43.95,0)" xlink:href="#ac"/><use transform="matrix(0.05,0,0,0.05,53.95,0)" xlink:href="#ag"/><use transform="matrix(0.05,0,0,0.05,57.900000000000006,0)" xlink:href="#aI"/><use transform="matrix(0.05,0,0,0.05,67.9,0)" xlink:href="#ad"/><use transform="matrix(0.05,0,0,0.05,77.9,0)" xlink:href="#af"/><use transform="matrix(0.05,0,0,0.05,87.9,0)" xlink:href="#Y"/><use transform="matrix(0.05,0,0,0.05,96.9,0)" xlink:href="#Z"/><use transform="matrix(0.05,0,0,0.05,106.9,0)" xlink:href="#ad"/><use transform="matrix(0.05,0,0,0.05,116.9,0)" xlink:href="#ad"/><use transform="matrix(0.05,0,0,0.05,126.9,0)" xlink:href="#ap"/><use transform="matrix(0.05,0,0,0.05,136.9,0)" xlink:href="#Y"/><use transform="matrix(0.05,0,0,0.05,145.9,0)" xlink:href="#aD"/><use transform="matrix(0.05,0,0,0.05,150.9,0)" xlink:href="#ag"/><use transform="matrix(0.05,0,0,0.05,154.85,0)" xlink:href="#Z"/><use transform="matrix(0.05,0,0,0.05,164.85,0)" xlink:href="#ad"/></g><g id="F"><use transform="matrix(0.05,0,0,0.05,0,0)" xlink:href="#al"/><use transform="matrix(0.05,0,0,0.05,5.95,0)" xlink:href="#am"/><use transform="matrix(0.05,0,0,0.05,17.95,0)" xlink:href="#an"/><use transform="matrix(0.05,0,0,0.05,29.950000000000003,0)" xlink:href="#ao"/></g><g id="G"><use transform="matrix(0.05,0,0,0.05,0,0)" xlink:href="#aC"/><use transform="matrix(0.05,0,0,0.05,9,0)" xlink:href="#aD"/><use transform="matrix(0.05,0,0,0.05,14,0)" xlink:href="#ac"/><use transform="matrix(0.05,0,0,0.05,24,0)" xlink:href="#aD"/><use transform="matrix(0.05,0,0,0.05,29,0)" xlink:href="#az"/><use transform="matrix(0.05,0,0,0.05,39,0)" xlink:href="#aC"/></g><path fill="#3a414a" d="M160-131c35 5 61 23 61 61C221 17 115-2 30 0v-248c76 3 177-17 177 60 0 33-19 50-47 57zm-97-11c50-1 110 9 110-42 0-47-63-36-110-37v79zm0 115c55-2 124 14 124-45 0-56-70-42-124-44v89" id="aM"/><path fill="#3a414a" d="M140-251c81 0 123 46 123 126C263-46 219 4 140 4 59 4 17-45 17-125s42-126 123-126zm0 227c63 0 89-41 89-101s-29-99-89-99c-61 0-89 39-89 99S79-25 140-24" id="aN"/><path fill="#3a414a" d="M30 0v-248h33v221h125V0H30" id="aO"/><g id="H"><use transform="matrix(0.05,0,0,0.05,0,0)" xlink:href="#aM"/><use transform="matrix(0.05,0,0,0.05,12,0)" xlink:href="#aN"/><use transform="matrix(0.05,0,0,0.05,26,0)" xlink:href="#aN"/><use transform="matrix(0.05,0,0,0.05,40,0)" xlink:href="#aO"/><use transform="matrix(0.05,0,0,0.05,50,0)" xlink:href="#aF"/><use transform="matrix(0.05,0,0,0.05,62,0)" xlink:href="#ar"/><use transform="matrix(0.05,0,0,0.05,74,0)" xlink:href="#aj"/></g><g id="I"><use transform="matrix(0.05,0,0,0.05,0,0)" xlink:href="#ag"/><use transform="matrix(0.05,0,0,0.05,3.95,0)" xlink:href="#ah"/><use transform="matrix(0.05,0,0,0.05,13.949999999999998,0)" xlink:href="#aB"/><use transform="matrix(0.05,0,0,0.05,22.95,0)" xlink:href="#af"/><use transform="matrix(0.05,0,0,0.05,32.95,0)" xlink:href="#Y"/><use transform="matrix(0.05,0,0,0.05,41.95,0)" xlink:href="#ac"/><use transform="matrix(0.05,0,0,0.05,51.95,0)" xlink:href="#aa"/><use transform="matrix(0.05,0,0,0.05,66.9,0)" xlink:href="#ab"/><use transform="matrix(0.05,0,0,0.05,76.9,0)" xlink:href="#ac"/><use transform="matrix(0.05,0,0,0.05,86.9,0)" xlink:href="#ag"/><use transform="matrix(0.05,0,0,0.05,90.85000000000001,0)" xlink:href="#aI"/><use transform="matrix(0.05,0,0,0.05,100.85000000000001,0)" xlink:href="#ad"/><use transform="matrix(0.05,0,0,0.05,110.85000000000001,0)" xlink:href="#af"/><use transform="matrix(0.05,0,0,0.05,120.85000000000001,0)" xlink:href="#ag"/><use transform="matrix(0.05,0,0,0.05,124.80000000000001,0)" xlink:href="#ah"/></g><g id="J"><use transform="matrix(0.05,0,0,0.05,0,0)" xlink:href="#Y"/><use transform="matrix(0.05,0,0,0.05,9,0)" xlink:href="#ac"/><use transform="matrix(0.05,0,0,0.05,19,0)" xlink:href="#aa"/><use transform="matrix(0.05,0,0,0.05,33.95,0)" xlink:href="#ab"/><use transform="matrix(0.05,0,0,0.05,43.95,0)" xlink:href="#ac"/><use transform="matrix(0.05,0,0,0.05,53.95,0)" xlink:href="#ag"/><use transform="matrix(0.05,0,0,0.05,57.900000000000006,0)" xlink:href="#aI"/><use transform="matrix(0.05,0,0,0.05,67.9,0)" xlink:href="#ad"/><use transform="matrix(0.05,0,0,0.05,77.9,0)" xlink:href="#af"/><use transform="matrix(0.05,0,0,0.05,87.9,0)" xlink:href="#aD"/><use transform="matrix(0.05,0,0,0.05,92.9,0)" xlink:href="#ap"/><use transform="matrix(0.05,0,0,0.05,102.9,0)" xlink:href="#aa"/><use transform="matrix(0.05,0,0,0.05,117.85000000000001,0)" xlink:href="#ab"/><use transform="matrix(0.05,0,0,0.05,127.85000000000001,0)" xlink:href="#ax"/><use transform="matrix(0.05,0,0,0.05,131.8,0)" xlink:href="#ac"/><use transform="matrix(0.05,0,0,0.05,141.8,0)" xlink:href="#aD"/><use transform="matrix(0.05,0,0,0.05,146.8,0)" xlink:href="#ap"/></g><g id="K"><use transform="matrix(0.05,0,0,0.05,0,0)" xlink:href="#al"/><use transform="matrix(0.05,0,0,0.05,5.95,0)" xlink:href="#am"/><use transform="matrix(0.05,0,0,0.05,17.95,0)" xlink:href="#an"/><use transform="matrix(0.05,0,0,0.05,29.950000000000003,0)" xlink:href="#ao"/></g><g id="L"><use transform="matrix(0.05,0,0,0.05,0,0)" xlink:href="#al"/><use transform="matrix(0.05,0,0,0.05,5.95,0)" xlink:href="#aE"/><use transform="matrix(0.05,0,0,0.05,16.900000000000002,0)" xlink:href="#an"/><use transform="matrix(0.05,0,0,0.05,28.900000000000002,0)" xlink:href="#ao"/><use transform="matrix(0.05,0,0,0.05,34.85,0)" xlink:href="#af"/></g><path fill="#3a414a" d="M108 0H70L1-190h34L89-25l56-165h34" id="aP"/><g id="M"><use transform="matrix(0.05,0,0,0.05,0,0)" xlink:href="#ah"/><use transform="matrix(0.05,0,0,0.05,10,0)" xlink:href="#ap"/><use transform="matrix(0.05,0,0,0.05,20,0)" xlink:href="#ax"/><use transform="matrix(0.05,0,0,0.05,23.95,0)" xlink:href="#ag"/><use transform="matrix(0.05,0,0,0.05,27.899999999999995,0)" xlink:href="#aP"/><use transform="matrix(0.05,0,0,0.05,36.9,0)" xlink:href="#ap"/><use transform="matrix(0.05,0,0,0.05,46.9,0)" xlink:href="#aA"/><use transform="matrix(0.05,0,0,0.05,52.85,0)" xlink:href="#ae"/><use transform="matrix(0.05,0,0,0.05,61.85,0)" xlink:href="#af"/><use transform="matrix(0.05,0,0,0.05,71.85,0)" xlink:href="#ag"/><use transform="matrix(0.05,0,0,0.05,75.8,0)" xlink:href="#ad"/><use transform="matrix(0.05,0,0,0.05,85.8,0)" xlink:href="#aD"/><use transform="matrix(0.05,0,0,0.05,90.8,0)" xlink:href="#ap"/><use transform="matrix(0.05,0,0,0.05,100.8,0)" xlink:href="#aA"/><use transform="matrix(0.05,0,0,0.05,106.75,0)" xlink:href="#aP"/><use transform="matrix(0.05,0,0,0.05,115.75,0)" xlink:href="#ac"/><use transform="matrix(0.05,0,0,0.05,125.75,0)" xlink:href="#ax"/></g><g id="N"><use transform="matrix(0.05,0,0,0.05,0,0)" xlink:href="#ak"/><use transform="matrix(0.05,0,0,0.05,10.950000000000001,0)" xlink:href="#ai"/><use transform="matrix(0.05,0,0,0.05,15.950000000000001,0)" xlink:href="#aH"/><use transform="matrix(0.05,0,0,0.05,30.900000000000002,0)" xlink:href="#aF"/></g><g id="O"><use transform="matrix(0.05,0,0,0.05,0,0)" xlink:href="#ag"/><use transform="matrix(0.05,0,0,0.05,3.95,0)" xlink:href="#ah"/><use transform="matrix(0.05,0,0,0.05,13.949999999999998,0)" xlink:href="#aB"/><use transform="matrix(0.05,0,0,0.05,22.95,0)" xlink:href="#af"/><use transform="matrix(0.05,0,0,0.05,32.95,0)" xlink:href="#aD"/><use transform="matrix(0.05,0,0,0.05,37.95,0)" xlink:href="#ap"/><use transform="matrix(0.05,0,0,0.05,47.95,0)" xlink:href="#aa"/><use transform="matrix(0.05,0,0,0.05,62.900000000000006,0)" xlink:href="#ab"/><use transform="matrix(0.05,0,0,0.05,72.9,0)" xlink:href="#ax"/><use transform="matrix(0.05,0,0,0.05,76.85000000000001,0)" xlink:href="#ac"/><use transform="matrix(0.05,0,0,0.05,86.85000000000001,0)" xlink:href="#aD"/><use transform="matrix(0.05,0,0,0.05,91.85000000000001,0)" xlink:href="#ap"/><use transform="matrix(0.05,0,0,0.05,101.85000000000001,0)" xlink:href="#af"/><use transform="matrix(0.05,0,0,0.05,111.85000000000001,0)" xlink:href="#ag"/><use transform="matrix(0.05,0,0,0.05,115.80000000000001,0)" xlink:href="#ah"/></g><path fill="#3a414a" d="M33-154v-36h34v36H33zM33 0v-36h34V0H33" id="aQ"/><g id="P"><use transform="matrix(0.05,0,0,0.05,0,0)" xlink:href="#aH"/><use transform="matrix(0.05,0,0,0.05,14.950000000000001,0)" xlink:href="#aQ"/></g><use transform="matrix(0.05,0,0,0.05,0,0)" xlink:href="#aH" id="Q"/><use transform="matrix(0.05,0,0,0.05,0,0)" xlink:href="#ay" id="R"/><use transform="matrix(0.05,0,0,0.05,0,0)" xlink:href="#aQ" id="S"/><path fill="#3a414a" d="M137-103V0h-34v-103L8-248h37l75 118 75-118h37" id="aR"/><g id="T"><use transform="matrix(0.08703703703703701,0,0,0.08703703703703701,0,0)" xlink:href="#aM"/><use transform="matrix(0.08703703703703701,0,0,0.08703703703703701,20.888888888888882,0)" xlink:href="#aR"/></g><path fill="#3a414a" d="M30-248c118-7 216 8 213 122C240-48 200 0 122 0H30v-248zM63-27c89 8 146-16 146-99s-60-101-146-95v194" id="aS"/><g id="U"><use transform="matrix(0.08703703703703701,0,0,0.08703703703703701,0,0)" xlink:href="#aS"/><use transform="matrix(0.08703703703703701,0,0,0.08703703703703701,22.542592592592584,0)" xlink:href="#aF"/><use transform="matrix(0.08703703703703701,0,0,0.08703703703703701,43.43148148148147,0)" xlink:href="#aE"/><use transform="matrix(0.08703703703703701,0,0,0.08703703703703701,60.751851851851846,0)" xlink:href="#ar"/><use transform="matrix(0.08703703703703701,0,0,0.08703703703703701,81.64074074074072,0)" xlink:href="#ai"/><use transform="matrix(0.08703703703703701,0,0,0.08703703703703701,90.34444444444442,0)" xlink:href="#aG"/><use transform="matrix(0.08703703703703701,0,0,0.08703703703703701,112.887037037037,0)" xlink:href="#aO"/><use transform="matrix(0.08703703703703701,0,0,0.08703703703703701,127.9444444444444,0)" xlink:href="#ak"/></g><path fill="#3a414a" d="M195 0l-74-108L45 0H8l94-129-87-119h37l69 98 67-98h37l-84 118L233 0h-38" id="aT"/><path fill="#3a414a" d="M143 4C61 4 22-44 18-125c-5-107 100-154 193-111 17 8 29 25 37 43l-32 9c-13-25-37-40-76-40-61 0-88 39-88 99 0 61 29 100 91 101 35 0 62-11 79-27v-45h-74v-28h105v86C228-13 192 4 143 4" id="aU"/><g id="V"><use transform="matrix(0.08703703703703701,0,0,0.08703703703703701,0,0)" xlink:href="#ai"/><use transform="matrix(0.08703703703703701,0,0,0.08703703703703701,8.7037037037037,0)" xlink:href="#aj"/><use transform="matrix(0.08703703703703701,0,0,0.08703703703703701,31.246296296296286,0)" xlink:href="#aS"/><use transform="matrix(0.08703703703703701,0,0,0.08703703703703701,53.78888888888887,0)" xlink:href="#aF"/><use transform="matrix(0.08703703703703701,0,0,0.08703703703703701,74.67777777777775,0)" xlink:href="#aT"/><use transform="matrix(0.08703703703703701,0,0,0.08703703703703701,95.56666666666663,0)" xlink:href="#ai"/><use transform="matrix(0.08703703703703701,0,0,0.08703703703703701,104.27037037037034,0)" xlink:href="#aj"/><use transform="matrix(0.08703703703703701,0,0,0.08703703703703701,126.8129629629629,0)" xlink:href="#aU"/></g><g id="W"><use transform="matrix(0.08703703703703701,0,0,0.08703703703703701,0,0)" xlink:href="#aN"/><use transform="matrix(0.08703703703703701,0,0,0.08703703703703701,24.370370370370363,0)" xlink:href="#aj"/></g><path fill="#3a414a" d="M143 0L79-87 56-68V0H24v-261h32v163l83-92h37l-77 82L181 0h-38" id="aV"/><g id="X"><use transform="matrix(0.08703703703703701,0,0,0.08703703703703701,0,0)" xlink:href="#ag"/><use transform="matrix(0.08703703703703701,0,0,0.08703703703703701,6.875925925925924,0)" xlink:href="#ah"/><use transform="matrix(0.08703703703703701,0,0,0.08703703703703701,24.283333333333324,0)" xlink:href="#aB"/><use transform="matrix(0.08703703703703701,0,0,0.08703703703703701,39.94999999999999,0)" xlink:href="#af"/><use transform="matrix(0.08703703703703701,0,0,0.08703703703703701,57.357407407407386,0)" xlink:href="#ab"/><use transform="matrix(0.08703703703703701,0,0,0.08703703703703701,74.7648148148148,0)" xlink:href="#aV"/></g></defs></g></svg>