<svg xmlns="http://www.w3.org/2000/svg" xmlns:xlink="http://www.w3.org/1999/xlink" xmlns:lucid="lucid" width="1974.03" height="551.07"><g transform="translate(-108.47004475346347 197.07147032179387)" lucid:page-tab-id="0_0"><path d="M0-500h2500V500H0z" fill="#fff"/><path d="M640 88a8 8 0 0 1 8-8h184a8 8 0 0 1 8 8v216a8 8 0 0 1-8 8H648a8 8 0 0 1-8-8z" fill="#fff"/><path d="M640 120V88a8 8 0 0 1 8-8h184a8 8 0 0 1 8 8v32" fill="#dedeff"/><path d="M640 88a8 8 0 0 1 8-8h184a8 8 0 0 1 8 8v216a8 8 0 0 1-8 8H648a8 8 0 0 1-8-8zM640 120h200" stroke="#3a414a" fill="none"/><use xlink:href="#a" transform="matrix(1,0,0,1,650,80) translate(0 23.6)"/><use xlink:href="#b" transform="matrix(1,0,0,1,645,122.5) translate(0 17.1)"/><use xlink:href="#c" transform="matrix(1,0,0,1,645,122.5) translate(76.85000000000001 17.1)"/><use xlink:href="#d" transform="matrix(1,0,0,1,645,122.5) translate(117.75 17.1)"/><use xlink:href="#e" transform="matrix(1,0,0,1,645,154.5) translate(0 17.1)"/><use xlink:href="#f" transform="matrix(1,0,0,1,645,154.5) translate(32.9 17.1)"/><use xlink:href="#g" transform="matrix(1,0,0,1,645,186.5) translate(0 17.1)"/><use xlink:href="#h" transform="matrix(1,0,0,1,645,186.5) translate(88.8 17.1)"/><use xlink:href="#i" transform="matrix(1,0,0,1,645,186.5) translate(122.35 17.1)"/><use xlink:href="#j" transform="matrix(1,0,0,1,645,218.5) translate(0 17.1)"/><use xlink:href="#k" transform="matrix(1,0,0,1,645,218.5) translate(39.95 17.1)"/><use xlink:href="#l" transform="matrix(1,0,0,1,645,250.5) translate(0 17.1)"/><use xlink:href="#m" transform="matrix(1,0,0,1,645,282.5) translate(0 17.1)"/><path d="M1040 88a8 8 0 0 1 8-8h184a8 8 0 0 1 8 8v152a8 8 0 0 1-8 8h-184a8 8 0 0 1-8-8z" fill="#fff"/><path d="M1040 120V88a8 8 0 0 1 8-8h184a8 8 0 0 1 8 8v32" fill="#dedeff"/><path d="M1040 88a8 8 0 0 1 8-8h184a8 8 0 0 1 8 8v152a8 8 0 0 1-8 8h-184a8 8 0 0 1-8-8zM1040 120h200" stroke="#3a414a" fill="none"/><use xlink:href="#n" transform="matrix(1,0,0,1,1050,80) translate(0 23.6)"/><use xlink:href="#o" transform="matrix(1,0,0,1,1045,122.5) translate(0 17.1)"/><use xlink:href="#c" transform="matrix(1,0,0,1,1045,122.5) translate(98.8 17.1)"/><use xlink:href="#d" transform="matrix(1,0,0,1,1045,122.5) translate(139.7 17.1)"/><use xlink:href="#p" transform="matrix(1,0,0,1,1045,154.5) translate(0 17.1)"/><use xlink:href="#f" transform="matrix(1,0,0,1,1045,154.5) translate(49.95 17.1)"/><use xlink:href="#l" transform="matrix(1,0,0,1,1045,186.5) translate(0 17.1)"/><use xlink:href="#q" transform="matrix(1,0,0,1,1045,218.5) translate(0 17.1)"/><path d="M1440 88a8 8 0 0 1 8-8h184a8 8 0 0 1 8 8v152a8 8 0 0 1-8 8h-184a8 8 0 0 1-8-8z" fill="#fff"/><path d="M1440 120V88a8 8 0 0 1 8-8h184a8 8 0 0 1 8 8v32" fill="#dedeff"/><path d="M1440 88a8 8 0 0 1 8-8h184a8 8 0 0 1 8 8v152a8 8 0 0 1-8 8h-184a8 8 0 0 1-8-8zM1440 120h200" stroke="#3a414a" fill="none"/><use xlink:href="#r" transform="matrix(1,0,0,1,1450,80) translate(0 23.6)"/><use xlink:href="#s" transform="matrix(1,0,0,1,1445,122.5) translate(0 17.1)"/><use xlink:href="#c" transform="matrix(1,0,0,1,1445,122.5) translate(68.9 17.1)"/><use xlink:href="#d" transform="matrix(1,0,0,1,1445,122.5) translate(109.80000000000001 17.1)"/><use xlink:href="#p" transform="matrix(1,0,0,1,1445,154.5) translate(0 17.1)"/><use xlink:href="#f" transform="matrix(1,0,0,1,1445,154.5) translate(49.95 17.1)"/><use xlink:href="#l" transform="matrix(1,0,0,1,1445,186.5) translate(0 17.1)"/><use xlink:href="#q" transform="matrix(1,0,0,1,1445,218.5) translate(0 17.1)"/><path d="M1840 88a8 8 0 0 1 8-8h184a8 8 0 0 1 8 8v152a8 8 0 0 1-8 8h-184a8 8 0 0 1-8-8z" fill="#fff"/><path d="M1840 120V88a8 8 0 0 1 8-8h184a8 8 0 0 1 8 8v32" fill="#dedeff"/><path d="M1840 88a8 8 0 0 1 8-8h184a8 8 0 0 1 8 8v152a8 8 0 0 1-8 8h-184a8 8 0 0 1-8-8zM1840 120h200" stroke="#3a414a" fill="none"/><use xlink:href="#t" transform="matrix(1,0,0,1,1850,80) translate(0 23.6)"/><use xlink:href="#s" transform="matrix(1,0,0,1,1845,122.5) translate(0 17.1)"/><use xlink:href="#c" transform="matrix(1,0,0,1,1845,122.5) translate(68.9 17.1)"/><use xlink:href="#h" transform="matrix(1,0,0,1,1845,122.5) translate(109.80000000000001 17.1)"/><use xlink:href="#i" transform="matrix(1,0,0,1,1845,122.5) translate(143.35000000000002 17.1)"/><use xlink:href="#b" transform="matrix(1,0,0,1,1845,154.5) translate(0 17.1)"/><use xlink:href="#c" transform="matrix(1,0,0,1,1845,154.5) translate(76.85000000000001 17.1)"/><use xlink:href="#h" transform="matrix(1,0,0,1,1845,154.5) translate(117.75 17.1)"/><use xlink:href="#i" transform="matrix(1,0,0,1,1845,154.5) translate(151.3 17.1)"/><use xlink:href="#l" transform="matrix(1,0,0,1,1845,186.5) translate(0 17.1)"/><use xlink:href="#u" transform="matrix(1,0,0,1,1845,218.5) translate(0 17.1)"/><path d="M1019.5 136H952a12 12 0 0 0-12 12v40a12 12 0 0 1-12 12h-68.1" stroke="#3a414a" fill="none"/><path d="M1019.5 126v20M1039.5 136h-20" stroke="#3a414a" fill="#fff"/><path d="M840.72 190l20 10-20 10" stroke="#3a414a" fill="#fff" fill-opacity="0"/><path d="M840.72 200h20" stroke="#3a414a" fill="#fff"/><path d="M1660.5 136h159.6" stroke="#3a414a" fill="none"/><path d="M1660.5 146v-20M1640.5 136h20" stroke="#3a414a" fill="#fff"/><path d="M1839.28 146l-20-10 20-10" stroke="#3a414a" fill="#fff" fill-opacity="0"/><path d="M1839.28 136h-20" stroke="#3a414a" fill="#fff"/><path d="M619.5 136h-8a12 12 0 0 0-12 12v192a12 12 0 0 0 12 12h1457a12 12 0 0 0 12-12V180a12 12 0 0 0-12-12h-8.6" stroke="#3a414a" fill="none"/><path d="M619.5 126v20M639.5 136h-20" stroke="#3a414a" fill="#fff"/><path d="M2040.72 158l20 10-20 10" stroke="#3a414a" fill="#fff" fill-opacity="0"/><path d="M2040.72 168h20" stroke="#3a414a" fill="#fff"/><path d="M149.88-156.57h35.6a5 5 0 0 1 5 5 5 5 0 0 0 5 5h35.58" stroke="#3a414a" fill="none"/><path d="M130.7-166.57l20 10-20 10" stroke="#3a414a" fill="#fff" fill-opacity="0"/><path d="M130.7-156.57h20" stroke="#3a414a" fill="#fff"/><path d="M250.25-136.57l-20-10 20-10" stroke="#3a414a" fill="#fff" fill-opacity="0"/><path d="M250.25-146.57h-20" stroke="#3a414a" fill="#fff"/><path d="M250.47-168.57a8 8 0 0 1 8-8h224a8 8 0 0 1 8 8v44a8 8 0 0 1-8 8h-224a8 8 0 0 1-8-8z" stroke="#000" stroke-opacity="0" fill="#fff" fill-opacity="0"/><g><use xlink:href="#v" transform="matrix(1,0,0,1,255.47004475346347,-171.57147032179387) translate(0 30.025)"/><use xlink:href="#w" transform="matrix(1,0,0,1,255.47004475346347,-171.57147032179387) translate(24.950000000000003 30.025)"/></g><path d="M130.47-40.57h43a7 7 0 0 1 7 7 7 7 0 0 0 7 7h23.6M130.97-55.57v30" stroke="#3a414a" fill="none"/><path d="M230.25-16.57l-20-10 20-10" stroke="#3a414a" fill="#fff" fill-opacity="0"/><path d="M230.25-26.57h-20" stroke="#3a414a" fill="#fff"/><path d="M230.47-48.57a8 8 0 0 1 8-8h224a8 8 0 0 1 8 8v44a8 8 0 0 1-8 8h-224a8 8 0 0 1-8-8z" stroke="#000" stroke-opacity="0" fill="#fff" fill-opacity="0"/><g><use xlink:href="#x" transform="matrix(1,0,0,1,235.47004475346347,-51.57147032179387) translate(0 30.025)"/><use xlink:href="#y" transform="matrix(1,0,0,1,235.47004475346347,-51.57147032179387) translate(15 30.025)"/><use xlink:href="#w" transform="matrix(1,0,0,1,235.47004475346347,-51.57147032179387) translate(25 30.025)"/></g><defs><path fill="#3a414a" d="M210-169c-67 3-38 105-44 169h-31v-121c0-29-5-50-35-48C34-165 62-65 56 0H25l-1-190h30c1 10-1 24 2 32 10-44 99-50 107 0 11-21 27-35 58-36 85-2 47 119 55 194h-31v-121c0-29-5-49-35-48" id="z"/><path fill="#3a414a" d="M100-194c62-1 85 37 85 99 1 63-27 99-86 99S16-35 15-95c0-66 28-99 85-99zM99-20c44 1 53-31 53-75 0-43-8-75-51-75s-53 32-53 75 10 74 51 75" id="A"/><path fill="#3a414a" d="M108 0H70L1-190h34L89-25l56-165h34" id="B"/><path fill="#3a414a" d="M24-231v-30h32v30H24zM24 0v-190h32V0H24" id="C"/><path fill="#3a414a" d="M100-194c63 0 86 42 84 106H49c0 40 14 67 53 68 26 1 43-12 49-29l28 8c-11 28-37 45-77 45C44 4 14-33 15-96c1-61 26-98 85-98zm52 81c6-60-76-77-97-28-3 7-6 17-6 28h103" id="D"/><g id="a"><use transform="matrix(0.05,0,0,0.05,0,0)" xlink:href="#z"/><use transform="matrix(0.05,0,0,0.05,14.950000000000001,0)" xlink:href="#A"/><use transform="matrix(0.05,0,0,0.05,24.950000000000003,0)" xlink:href="#B"/><use transform="matrix(0.05,0,0,0.05,33.95,0)" xlink:href="#C"/><use transform="matrix(0.05,0,0,0.05,37.900000000000006,0)" xlink:href="#D"/></g><path fill="#3a414a" d="M-5 72V49h209v23H-5" id="E"/><path fill="#3a414a" d="M85-194c31 0 48 13 60 33l-1-100h32l1 261h-30c-2-10 0-23-3-31C134-8 116 4 85 4 32 4 16-35 15-94c0-66 23-100 70-100zm9 24c-40 0-46 34-46 75 0 40 6 74 45 74 42 0 51-32 51-76 0-42-9-74-50-73" id="F"/><g id="b"><use transform="matrix(0.05,0,0,0.05,0,0)" xlink:href="#z"/><use transform="matrix(0.05,0,0,0.05,14.950000000000001,0)" xlink:href="#A"/><use transform="matrix(0.05,0,0,0.05,24.950000000000003,0)" xlink:href="#B"/><use transform="matrix(0.05,0,0,0.05,33.95,0)" xlink:href="#C"/><use transform="matrix(0.05,0,0,0.05,37.900000000000006,0)" xlink:href="#D"/><use transform="matrix(0.05,0,0,0.05,47.900000000000006,0)" xlink:href="#E"/><use transform="matrix(0.05,0,0,0.05,57.900000000000006,0)" xlink:href="#C"/><use transform="matrix(0.05,0,0,0.05,61.85,0)" xlink:href="#F"/></g><path fill="#3a414a" d="M87 75C49 33 22-17 22-94c0-76 28-126 65-167h31c-38 41-64 92-64 168S80 34 118 75H87" id="G"/><path fill="#3a414a" d="M30-248c87 1 191-15 191 75 0 78-77 80-158 76V0H30v-248zm33 125c57 0 124 11 124-50 0-59-68-47-124-48v98" id="H"/><path fill="#3a414a" d="M194 0L95-120 63-95V0H30v-248h33v124l119-124h40L117-140 236 0h-42" id="I"/><path fill="#3a414a" d="M33-261c38 41 65 92 65 168S71 34 33 75H2C39 34 66-17 66-93S39-220 2-261h31" id="J"/><g id="c"><use transform="matrix(0.05,0,0,0.05,0,0)" xlink:href="#G"/><use transform="matrix(0.05,0,0,0.05,5.95,0)" xlink:href="#H"/><use transform="matrix(0.05,0,0,0.05,17.95,0)" xlink:href="#I"/><use transform="matrix(0.05,0,0,0.05,29.950000000000003,0)" xlink:href="#J"/></g><path fill="#3a414a" d="M33 0v-248h34V0H33" id="K"/><path fill="#3a414a" d="M190 0L58-211 59 0H30v-248h39L202-35l-2-213h31V0h-41" id="L"/><path fill="#3a414a" d="M127-220V0H93v-220H8v-28h204v28h-85" id="M"/><g id="d"><use transform="matrix(0.05,0,0,0.05,0,0)" xlink:href="#K"/><use transform="matrix(0.05,0,0,0.05,5,0)" xlink:href="#L"/><use transform="matrix(0.05,0,0,0.05,17.950000000000003,0)" xlink:href="#M"/></g><path fill="#3a414a" d="M59-47c-2 24 18 29 38 22v24C64 9 27 4 27-40v-127H5v-23h24l9-43h21v43h35v23H59v120" id="N"/><path fill="#3a414a" d="M24 0v-261h32V0H24" id="O"/><g id="e"><use transform="matrix(0.05,0,0,0.05,0,0)" xlink:href="#N"/><use transform="matrix(0.05,0,0,0.05,5,0)" xlink:href="#C"/><use transform="matrix(0.05,0,0,0.05,8.95,0)" xlink:href="#N"/><use transform="matrix(0.05,0,0,0.05,13.949999999999998,0)" xlink:href="#O"/><use transform="matrix(0.05,0,0,0.05,17.9,0)" xlink:href="#D"/></g><path fill="#3a414a" d="M137 0h-34L2-248h35l83 218 83-218h36" id="P"/><path fill="#3a414a" d="M205 0l-28-72H64L36 0H1l101-248h38L239 0h-34zm-38-99l-47-123c-12 45-31 82-46 123h93" id="Q"/><path fill="#3a414a" d="M233-177c-1 41-23 64-60 70L243 0h-38l-65-103H63V0H30v-248c88 3 205-21 203 71zM63-129c60-2 137 13 137-47 0-61-80-42-137-45v92" id="R"/><path fill="#3a414a" d="M212-179c-10-28-35-45-73-45-59 0-87 40-87 99 0 60 29 101 89 101 43 0 62-24 78-52l27 14C228-24 195 4 139 4 59 4 22-46 18-125c-6-104 99-153 187-111 19 9 31 26 39 46" id="S"/><path fill="#3a414a" d="M197 0v-115H63V0H30v-248h33v105h134v-105h34V0h-34" id="T"/><path fill="#3a414a" d="M54-142c48-35 137-8 131 61C196 18 31 33 14-55l32-4c7 23 22 37 52 37 35-1 51-22 54-58 4-55-73-65-99-34H22l8-134h141v27H59" id="U"/><path fill="#3a414a" d="M101-251c68 0 85 55 85 127S166 4 100 4C33 4 14-52 14-124c0-73 17-127 87-127zm-1 229c47 0 54-49 54-102s-4-102-53-102c-51 0-55 48-55 102 0 53 5 102 54 102" id="V"/><g id="f"><use transform="matrix(0.05,0,0,0.05,0,0)" xlink:href="#P"/><use transform="matrix(0.05,0,0,0.05,10.65,0)" xlink:href="#Q"/><use transform="matrix(0.05,0,0,0.05,22.65,0)" xlink:href="#R"/><use transform="matrix(0.05,0,0,0.05,35.6,0)" xlink:href="#S"/><use transform="matrix(0.05,0,0,0.05,48.550000000000004,0)" xlink:href="#T"/><use transform="matrix(0.05,0,0,0.05,61.5,0)" xlink:href="#Q"/><use transform="matrix(0.05,0,0,0.05,73.5,0)" xlink:href="#R"/><use transform="matrix(0.05,0,0,0.05,86.45,0)" xlink:href="#G"/><use transform="matrix(0.05,0,0,0.05,92.4,0)" xlink:href="#U"/><use transform="matrix(0.05,0,0,0.05,102.4,0)" xlink:href="#V"/><use transform="matrix(0.05,0,0,0.05,112.4,0)" xlink:href="#J"/></g><path fill="#3a414a" d="M114-163C36-179 61-72 57 0H25l-1-190h30c1 12-1 29 2 39 6-27 23-49 58-41v29" id="W"/><path fill="#3a414a" d="M96-169c-40 0-48 33-48 73s9 75 48 75c24 0 41-14 43-38l32 2c-6 37-31 61-74 61-59 0-76-41-82-99-10-93 101-131 147-64 4 7 5 14 7 22l-32 3c-4-21-16-35-41-35" id="X"/><g id="g"><use transform="matrix(0.05,0,0,0.05,0,0)" xlink:href="#F"/><use transform="matrix(0.05,0,0,0.05,10,0)" xlink:href="#C"/><use transform="matrix(0.05,0,0,0.05,13.949999999999998,0)" xlink:href="#W"/><use transform="matrix(0.05,0,0,0.05,19.9,0)" xlink:href="#D"/><use transform="matrix(0.05,0,0,0.05,29.899999999999995,0)" xlink:href="#X"/><use transform="matrix(0.05,0,0,0.05,38.9,0)" xlink:href="#N"/><use transform="matrix(0.05,0,0,0.05,43.9,0)" xlink:href="#A"/><use transform="matrix(0.05,0,0,0.05,53.900000000000006,0)" xlink:href="#W"/><use transform="matrix(0.05,0,0,0.05,59.85,0)" xlink:href="#E"/><use transform="matrix(0.05,0,0,0.05,69.85,0)" xlink:href="#C"/><use transform="matrix(0.05,0,0,0.05,73.8,0)" xlink:href="#F"/></g><g id="h"><use transform="matrix(0.05,0,0,0.05,0,0)" xlink:href="#K"/><use transform="matrix(0.05,0,0,0.05,5,0)" xlink:href="#L"/><use transform="matrix(0.05,0,0,0.05,17.950000000000003,0)" xlink:href="#M"/></g><path fill="#3a414a" d="M63-220v92h138v28H63V0H30v-248h175v28H63" id="Y"/><g id="i"><use transform="matrix(0.05,0,0,0.05,0,0)" xlink:href="#G"/><use transform="matrix(0.05,0,0,0.05,5.95,0)" xlink:href="#Y"/><use transform="matrix(0.05,0,0,0.05,16.900000000000002,0)" xlink:href="#I"/><use transform="matrix(0.05,0,0,0.05,28.900000000000002,0)" xlink:href="#J"/></g><path fill="#3a414a" d="M179-190L93 31C79 59 56 82 12 73V49c39 6 53-20 64-50L1-190h34L92-34l54-156h33" id="Z"/><path fill="#3a414a" d="M141-36C126-15 110 5 73 4 37 3 15-17 15-53c-1-64 63-63 125-63 3-35-9-54-41-54-24 1-41 7-42 31l-33-3c5-37 33-52 76-52 45 0 72 20 72 64v82c-1 20 7 32 28 27v20c-31 9-61-2-59-35zM48-53c0 20 12 33 32 33 41-3 63-29 60-74-43 2-92-5-92 41" id="aa"/><g id="j"><use transform="matrix(0.05,0,0,0.05,0,0)" xlink:href="#Z"/><use transform="matrix(0.05,0,0,0.05,9,0)" xlink:href="#D"/><use transform="matrix(0.05,0,0,0.05,19,0)" xlink:href="#aa"/><use transform="matrix(0.05,0,0,0.05,29,0)" xlink:href="#W"/></g><path fill="#3a414a" d="M137-103V0h-34v-103L8-248h37l75 118 75-118h37" id="ab"/><path fill="#3a414a" d="M30 0v-248h187v28H63v79h144v27H63v87h162V0H30" id="ac"/><g id="k"><use transform="matrix(0.05,0,0,0.05,0,0)" xlink:href="#ab"/><use transform="matrix(0.05,0,0,0.05,12,0)" xlink:href="#ac"/><use transform="matrix(0.05,0,0,0.05,24,0)" xlink:href="#Q"/><use transform="matrix(0.05,0,0,0.05,36,0)" xlink:href="#R"/></g><path fill="#3a414a" d="M117-194c89-4 53 116 60 194h-32v-121c0-31-8-49-39-48C34-167 62-67 57 0H25l-1-190h30c1 10-1 24 2 32 11-22 29-35 61-36" id="ad"/><path fill="#3a414a" d="M141 0L90-78 38 0H4l68-98-65-92h35l48 74 47-74h35l-64 92 68 98h-35" id="ae"/><path fill="#3a414a" d="M135-143c-3-34-86-38-87 0 15 53 115 12 119 90S17 21 10-45l28-5c4 36 97 45 98 0-10-56-113-15-118-90-4-57 82-63 122-42 12 7 21 19 24 35" id="af"/><g id="l"><use transform="matrix(0.05,0,0,0.05,0,0)" xlink:href="#K"/><use transform="matrix(0.05,0,0,0.05,5,0)" xlink:href="#ad"/><use transform="matrix(0.05,0,0,0.05,15,0)" xlink:href="#F"/><use transform="matrix(0.05,0,0,0.05,25,0)" xlink:href="#D"/><use transform="matrix(0.05,0,0,0.05,35,0)" xlink:href="#ae"/><use transform="matrix(0.05,0,0,0.05,44,0)" xlink:href="#D"/><use transform="matrix(0.05,0,0,0.05,54,0)" xlink:href="#af"/></g><g id="m"><use transform="matrix(0.05,0,0,0.05,0,0)" xlink:href="#C"/><use transform="matrix(0.05,0,0,0.05,3.95,0)" xlink:href="#F"/><use transform="matrix(0.05,0,0,0.05,13.949999999999998,0)" xlink:href="#ae"/><use transform="matrix(0.05,0,0,0.05,22.95,0)" xlink:href="#E"/><use transform="matrix(0.05,0,0,0.05,32.95,0)" xlink:href="#N"/><use transform="matrix(0.05,0,0,0.05,37.95,0)" xlink:href="#C"/><use transform="matrix(0.05,0,0,0.05,41.900000000000006,0)" xlink:href="#N"/><use transform="matrix(0.05,0,0,0.05,46.900000000000006,0)" xlink:href="#O"/><use transform="matrix(0.05,0,0,0.05,50.85000000000001,0)" xlink:href="#D"/><use transform="matrix(0.05,0,0,0.05,60.85,0)" xlink:href="#E"/><use transform="matrix(0.05,0,0,0.05,70.85000000000001,0)" xlink:href="#Z"/><use transform="matrix(0.05,0,0,0.05,79.85000000000001,0)" xlink:href="#D"/><use transform="matrix(0.05,0,0,0.05,89.85000000000001,0)" xlink:href="#aa"/><use transform="matrix(0.05,0,0,0.05,99.85000000000001,0)" xlink:href="#W"/></g><g id="n"><use transform="matrix(0.05,0,0,0.05,0,0)" xlink:href="#F"/><use transform="matrix(0.05,0,0,0.05,10,0)" xlink:href="#C"/><use transform="matrix(0.05,0,0,0.05,13.949999999999998,0)" xlink:href="#W"/><use transform="matrix(0.05,0,0,0.05,19.9,0)" xlink:href="#D"/><use transform="matrix(0.05,0,0,0.05,29.899999999999995,0)" xlink:href="#X"/><use transform="matrix(0.05,0,0,0.05,38.9,0)" xlink:href="#N"/><use transform="matrix(0.05,0,0,0.05,43.9,0)" xlink:href="#A"/><use transform="matrix(0.05,0,0,0.05,53.900000000000006,0)" xlink:href="#W"/></g><g id="o"><use transform="matrix(0.05,0,0,0.05,0,0)" xlink:href="#F"/><use transform="matrix(0.05,0,0,0.05,10,0)" xlink:href="#C"/><use transform="matrix(0.05,0,0,0.05,13.949999999999998,0)" xlink:href="#W"/><use transform="matrix(0.05,0,0,0.05,19.9,0)" xlink:href="#D"/><use transform="matrix(0.05,0,0,0.05,29.899999999999995,0)" xlink:href="#X"/><use transform="matrix(0.05,0,0,0.05,38.9,0)" xlink:href="#N"/><use transform="matrix(0.05,0,0,0.05,43.9,0)" xlink:href="#A"/><use transform="matrix(0.05,0,0,0.05,53.900000000000006,0)" xlink:href="#W"/><use transform="matrix(0.05,0,0,0.05,59.85,0)" xlink:href="#D"/><use transform="matrix(0.05,0,0,0.05,69.85,0)" xlink:href="#E"/><use transform="matrix(0.05,0,0,0.05,79.85,0)" xlink:href="#C"/><use transform="matrix(0.05,0,0,0.05,83.8,0)" xlink:href="#F"/></g><g id="p"><use transform="matrix(0.05,0,0,0.05,0,0)" xlink:href="#ad"/><use transform="matrix(0.05,0,0,0.05,10,0)" xlink:href="#aa"/><use transform="matrix(0.05,0,0,0.05,20,0)" xlink:href="#z"/><use transform="matrix(0.05,0,0,0.05,34.95,0)" xlink:href="#D"/></g><g id="q"><use transform="matrix(0.05,0,0,0.05,0,0)" xlink:href="#C"/><use transform="matrix(0.05,0,0,0.05,3.95,0)" xlink:href="#F"/><use transform="matrix(0.05,0,0,0.05,13.949999999999998,0)" xlink:href="#ae"/><use transform="matrix(0.05,0,0,0.05,22.95,0)" xlink:href="#E"/><use transform="matrix(0.05,0,0,0.05,32.95,0)" xlink:href="#ad"/><use transform="matrix(0.05,0,0,0.05,42.95,0)" xlink:href="#aa"/><use transform="matrix(0.05,0,0,0.05,52.95,0)" xlink:href="#z"/><use transform="matrix(0.05,0,0,0.05,67.9,0)" xlink:href="#D"/></g><g id="r"><use transform="matrix(0.05,0,0,0.05,0,0)" xlink:href="#aa"/><use transform="matrix(0.05,0,0,0.05,10,0)" xlink:href="#X"/><use transform="matrix(0.05,0,0,0.05,19,0)" xlink:href="#N"/><use transform="matrix(0.05,0,0,0.05,24,0)" xlink:href="#A"/><use transform="matrix(0.05,0,0,0.05,34,0)" xlink:href="#W"/></g><g id="s"><use transform="matrix(0.05,0,0,0.05,0,0)" xlink:href="#aa"/><use transform="matrix(0.05,0,0,0.05,10,0)" xlink:href="#X"/><use transform="matrix(0.05,0,0,0.05,19,0)" xlink:href="#N"/><use transform="matrix(0.05,0,0,0.05,24,0)" xlink:href="#A"/><use transform="matrix(0.05,0,0,0.05,34,0)" xlink:href="#W"/><use transform="matrix(0.05,0,0,0.05,39.95,0)" xlink:href="#E"/><use transform="matrix(0.05,0,0,0.05,49.95,0)" xlink:href="#C"/><use transform="matrix(0.05,0,0,0.05,53.900000000000006,0)" xlink:href="#F"/></g><g id="t"><use transform="matrix(0.05,0,0,0.05,0,0)" xlink:href="#z"/><use transform="matrix(0.05,0,0,0.05,14.950000000000001,0)" xlink:href="#A"/><use transform="matrix(0.05,0,0,0.05,24.950000000000003,0)" xlink:href="#B"/><use transform="matrix(0.05,0,0,0.05,33.95,0)" xlink:href="#C"/><use transform="matrix(0.05,0,0,0.05,37.900000000000006,0)" xlink:href="#D"/><use transform="matrix(0.05,0,0,0.05,47.900000000000006,0)" xlink:href="#E"/><use transform="matrix(0.05,0,0,0.05,57.900000000000006,0)" xlink:href="#aa"/><use transform="matrix(0.05,0,0,0.05,67.9,0)" xlink:href="#X"/><use transform="matrix(0.05,0,0,0.05,76.9,0)" xlink:href="#N"/><use transform="matrix(0.05,0,0,0.05,81.9,0)" xlink:href="#A"/><use transform="matrix(0.05,0,0,0.05,91.9,0)" xlink:href="#W"/></g><g id="u"><use transform="matrix(0.05,0,0,0.05,0,0)" xlink:href="#C"/><use transform="matrix(0.05,0,0,0.05,3.95,0)" xlink:href="#F"/><use transform="matrix(0.05,0,0,0.05,13.949999999999998,0)" xlink:href="#ae"/><use transform="matrix(0.05,0,0,0.05,22.95,0)" xlink:href="#E"/><use transform="matrix(0.05,0,0,0.05,32.95,0)" xlink:href="#z"/><use transform="matrix(0.05,0,0,0.05,47.900000000000006,0)" xlink:href="#A"/><use transform="matrix(0.05,0,0,0.05,57.900000000000006,0)" xlink:href="#B"/><use transform="matrix(0.05,0,0,0.05,66.9,0)" xlink:href="#C"/><use transform="matrix(0.05,0,0,0.05,70.85000000000001,0)" xlink:href="#D"/><use transform="matrix(0.05,0,0,0.05,80.85000000000001,0)" xlink:href="#E"/><use transform="matrix(0.05,0,0,0.05,90.85000000000001,0)" xlink:href="#C"/><use transform="matrix(0.05,0,0,0.05,94.80000000000001,0)" xlink:href="#F"/></g><path fill="#3a414a" d="M240 0l2-218c-23 76-54 145-80 218h-23L58-218 59 0H30v-248h44l77 211c21-75 51-140 76-211h43V0h-30" id="ag"/><path fill="#3a414a" d="M33-154v-36h34v36H33zM33 0v-36h34V0H33" id="ah"/><g id="v"><use transform="matrix(0.05,0,0,0.05,0,0)" xlink:href="#ag"/><use transform="matrix(0.05,0,0,0.05,14.950000000000001,0)" xlink:href="#ah"/></g><use transform="matrix(0.05,0,0,0.05,0,0)" xlink:href="#ag" id="w"/><path fill="#3a414a" d="M27 0v-27h64v-190l-56 39v-29l58-41h29v221h61V0H27" id="ai"/><use transform="matrix(0.05,0,0,0.05,0,0)" xlink:href="#ai" id="x"/><use transform="matrix(0.05,0,0,0.05,0,0)" xlink:href="#ah" id="y"/></defs></g></svg>