<svg xmlns="http://www.w3.org/2000/svg" xmlns:xlink="http://www.w3.org/1999/xlink" xmlns:lucid="lucid" width="1484.5" height="825"><g transform="translate(-38 -219.5)" lucid:page-tab-id="0_0"><path d="M0 0h2000v1500H0z" fill="#fff"/><path d="M460 248a8 8 0 0 1 8-8h204a8 8 0 0 1 8 8v216a8 8 0 0 1-8 8H468a8 8 0 0 1-8-8z" fill="#fff"/><path d="M460 280v-32a8 8 0 0 1 8-8h204a8 8 0 0 1 8 8v32" fill="#dedeff"/><path d="M460 248a8 8 0 0 1 8-8h204a8 8 0 0 1 8 8v216a8 8 0 0 1-8 8H468a8 8 0 0 1-8-8zM460 280h220" stroke="#3a414a" fill="none"/><use xlink:href="#a" transform="matrix(1,0,0,1,470,240) translate(0 23.6)"/><use xlink:href="#b" transform="matrix(1,0,0,1,465,282.5) translate(0 17.1)"/><use xlink:href="#c" transform="matrix(1,0,0,1,465,282.5) translate(63.900000000000006 17.1)"/><use xlink:href="#d" transform="matrix(1,0,0,1,465,282.5) translate(104.80000000000001 17.1)"/><use xlink:href="#e" transform="matrix(1,0,0,1,465,314.5) translate(0 17.1)"/><use xlink:href="#f" transform="matrix(1,0,0,1,465,314.5) translate(47.85000000000001 17.1)"/><use xlink:href="#g" transform="matrix(1,0,0,1,465,346.5) translate(0 17.1)"/><use xlink:href="#h" transform="matrix(1,0,0,1,465,346.5) translate(81.9 17.1)"/><use xlink:href="#i" transform="matrix(1,0,0,1,465,378.5) translate(0 17.1)"/><use xlink:href="#j" transform="matrix(1,0,0,1,465,410.5) translate(0 17.1)"/><use xlink:href="#k" transform="matrix(1,0,0,1,465,442.5) translate(0 17.1)"/><path d="M880 248a8 8 0 0 1 8-8h184a8 8 0 0 1 8 8v152a8 8 0 0 1-8 8H888a8 8 0 0 1-8-8z" fill="#fff"/><path d="M880 280v-32a8 8 0 0 1 8-8h184a8 8 0 0 1 8 8v32" fill="#dedeff"/><path d="M880 248a8 8 0 0 1 8-8h184a8 8 0 0 1 8 8v152a8 8 0 0 1-8 8H888a8 8 0 0 1-8-8zM880 280h200" stroke="#3a414a" fill="none"/><use xlink:href="#l" transform="matrix(1,0,0,1,890,240) translate(0 23.6)"/><use xlink:href="#m" transform="matrix(1,0,0,1,885,282.5) translate(0 17.1)"/><use xlink:href="#c" transform="matrix(1,0,0,1,885,282.5) translate(77.80000000000001 17.1)"/><use xlink:href="#n" transform="matrix(1,0,0,1,885,282.5) translate(118.70000000000002 17.1)"/><use xlink:href="#o" transform="matrix(1,0,0,1,885,314.5) translate(0 17.1)"/><use xlink:href="#p" transform="matrix(1,0,0,1,885,314.5) translate(49.95 17.1)"/><use xlink:href="#b" transform="matrix(1,0,0,1,885,346.5) translate(0 17.1)"/><use xlink:href="#q" transform="matrix(1,0,0,1,885,346.5) translate(63.900000000000006 17.1)"/><use xlink:href="#d" transform="matrix(1,0,0,1,885,346.5) translate(103.75 17.1)"/><use xlink:href="#r" transform="matrix(1,0,0,1,885,378.5) translate(0 17.1)"/><use xlink:href="#q" transform="matrix(1,0,0,1,885,378.5) translate(62.95 17.1)"/><use xlink:href="#n" transform="matrix(1,0,0,1,885,378.5) translate(102.80000000000001 17.1)"/><path d="M1280 248a8 8 0 0 1 8-8h204a8 8 0 0 1 8 8v88a8 8 0 0 1-8 8h-204a8 8 0 0 1-8-8z" fill="#fff"/><path d="M1280 280v-32a8 8 0 0 1 8-8h204a8 8 0 0 1 8 8v32" fill="#dedeff"/><path d="M1280 248a8 8 0 0 1 8-8h204a8 8 0 0 1 8 8v88a8 8 0 0 1-8 8h-204a8 8 0 0 1-8-8zM1280 280h220" stroke="#3a414a" fill="none"/><use xlink:href="#s" transform="matrix(1,0,0,1,1290,240) translate(0 23.6)"/><use xlink:href="#r" transform="matrix(1,0,0,1,1285,282.5) translate(0 17.1)"/><use xlink:href="#c" transform="matrix(1,0,0,1,1285,282.5) translate(62.95 17.1)"/><use xlink:href="#n" transform="matrix(1,0,0,1,1285,282.5) translate(103.85 17.1)"/><use xlink:href="#t" transform="matrix(1,0,0,1,1285,314.5) translate(0 17.1)"/><use xlink:href="#u" transform="matrix(1,0,0,1,1285,314.5) translate(93.95 17.1)"/><path d="M465 768a8 8 0 0 1 8-8h174a8 8 0 0 1 8 8v216a8 8 0 0 1-8 8H473a8 8 0 0 1-8-8z" fill="#fff"/><path d="M465 800v-32a8 8 0 0 1 8-8h174a8 8 0 0 1 8 8v32" fill="#dedeff"/><path d="M465 768a8 8 0 0 1 8-8h174a8 8 0 0 1 8 8v216a8 8 0 0 1-8 8H473a8 8 0 0 1-8-8zM465 800h190" stroke="#3a414a" fill="none"/><use xlink:href="#v" transform="matrix(1,0,0,1,475,760) translate(0 23.6)"/><use xlink:href="#w" transform="matrix(1,0,0,1,470,802.5) translate(0 17.1)"/><use xlink:href="#c" transform="matrix(1,0,0,1,470,802.5) translate(71.9 17.1)"/><use xlink:href="#x" transform="matrix(1,0,0,1,470,802.5) translate(112.80000000000001 17.1)"/><use xlink:href="#y" transform="matrix(1,0,0,1,470,834.5) translate(0 17.1)"/><use xlink:href="#z" transform="matrix(1,0,0,1,470,834.5) translate(32.9 17.1)"/><use xlink:href="#A" transform="matrix(1,0,0,1,470,866.5) translate(0 17.1)"/><use xlink:href="#B" transform="matrix(1,0,0,1,470,866.5) translate(91.85000000000001 17.1)"/><use xlink:href="#i" transform="matrix(1,0,0,1,470,898.5) translate(0 17.1)"/><use xlink:href="#j" transform="matrix(1,0,0,1,470,930.5) translate(0 17.1)"/><use xlink:href="#C" transform="matrix(1,0,0,1,470,962.5) translate(0 17.1)"/><path d="M882.5 512a8 8 0 0 1 8-8h164a8 8 0 0 1 8 8v184a8 8 0 0 1-8 8h-164a8 8 0 0 1-8-8z" fill="#fff"/><path d="M882.5 544v-32a8 8 0 0 1 8-8h164a8 8 0 0 1 8 8v32" fill="#dedeff"/><path d="M882.5 512a8 8 0 0 1 8-8h164a8 8 0 0 1 8 8v184a8 8 0 0 1-8 8h-164a8 8 0 0 1-8-8zM882.5 544h180" stroke="#3a414a" fill="none"/><use xlink:href="#D" transform="matrix(1,0,0,1,892.5,504) translate(0 23.6)"/><use xlink:href="#E" transform="matrix(1,0,0,1,887.5,546.5) translate(0 17.1)"/><use xlink:href="#c" transform="matrix(1,0,0,1,887.5,546.5) translate(68.9 17.1)"/><use xlink:href="#d" transform="matrix(1,0,0,1,887.5,546.5) translate(109.80000000000001 17.1)"/><use xlink:href="#o" transform="matrix(1,0,0,1,887.5,578.5) translate(0 17.1)"/><use xlink:href="#f" transform="matrix(1,0,0,1,887.5,578.5) translate(49.95 17.1)"/><use xlink:href="#i" transform="matrix(1,0,0,1,887.5,610.5) translate(0 17.1)"/><use xlink:href="#j" transform="matrix(1,0,0,1,887.5,642.5) translate(0 17.1)"/><use xlink:href="#F" transform="matrix(1,0,0,1,887.5,674.5) translate(0 17.1)"/><path d="M1280 512a8 8 0 0 1 8-8h184a8 8 0 0 1 8 8v88a8 8 0 0 1-8 8h-184a8 8 0 0 1-8-8z" fill="#fff"/><path d="M1280 544v-32a8 8 0 0 1 8-8h184a8 8 0 0 1 8 8v32" fill="#dedeff"/><path d="M1280 512a8 8 0 0 1 8-8h184a8 8 0 0 1 8 8v88a8 8 0 0 1-8 8h-184a8 8 0 0 1-8-8zM1280 544h200" stroke="#3a414a" fill="none"/><use xlink:href="#G" transform="matrix(1,0,0,1,1290,504) translate(0 23.6)"/><use xlink:href="#H" transform="matrix(1,0,0,1,1285,546.5) translate(0 17.1)"/><use xlink:href="#c" transform="matrix(1,0,0,1,1285,546.5) translate(76.95 17.1)"/><use xlink:href="#n" transform="matrix(1,0,0,1,1285,546.5) translate(117.85 17.1)"/><use xlink:href="#I" transform="matrix(1,0,0,1,1285,578.5) translate(0 17.1)"/><use xlink:href="#J" transform="matrix(1,0,0,1,1285,578.5) translate(53 17.1)"/><path d="M465 512a8 8 0 0 1 8-8h184a8 8 0 0 1 8 8v184a8 8 0 0 1-8 8H473a8 8 0 0 1-8-8z" fill="#fff"/><path d="M465 544v-32a8 8 0 0 1 8-8h184a8 8 0 0 1 8 8v32" fill="#dedeff"/><path d="M465 512a8 8 0 0 1 8-8h184a8 8 0 0 1 8 8v184a8 8 0 0 1-8 8H473a8 8 0 0 1-8-8zM465 544h200" stroke="#3a414a" fill="none"/><use xlink:href="#K" transform="matrix(1,0,0,1,475,504) translate(0 23.6)"/><use xlink:href="#E" transform="matrix(1,0,0,1,470,546.5) translate(0 17.1)"/><use xlink:href="#c" transform="matrix(1,0,0,1,470,546.5) translate(68.9 17.1)"/><use xlink:href="#L" transform="matrix(1,0,0,1,470,546.5) translate(109.80000000000001 17.1)"/><use xlink:href="#M" transform="matrix(1,0,0,1,470,546.5) translate(143.35000000000002 17.1)"/><use xlink:href="#w" transform="matrix(1,0,0,1,470,578.5) translate(0 17.1)"/><use xlink:href="#c" transform="matrix(1,0,0,1,470,578.5) translate(71.9 17.1)"/><use xlink:href="#L" transform="matrix(1,0,0,1,470,578.5) translate(112.80000000000001 17.1)"/><use xlink:href="#M" transform="matrix(1,0,0,1,470,578.5) translate(146.35000000000002 17.1)"/><use xlink:href="#i" transform="matrix(1,0,0,1,470,610.5) translate(0 17.1)"/><use xlink:href="#j" transform="matrix(1,0,0,1,470,642.5) translate(0 17.1)"/><use xlink:href="#N" transform="matrix(1,0,0,1,470,674.5) translate(0 17.1)"/><path d="M1280 768a8 8 0 0 1 8-8h184a8 8 0 0 1 8 8v248a8 8 0 0 1-8 8h-184a8 8 0 0 1-8-8z" fill="#fff"/><path d="M1280 800v-32a8 8 0 0 1 8-8h184a8 8 0 0 1 8 8v32" fill="#dedeff"/><path d="M1280 768a8 8 0 0 1 8-8h184a8 8 0 0 1 8 8v248a8 8 0 0 1-8 8h-184a8 8 0 0 1-8-8zM1280 800h200" stroke="#ba23f6" fill="none"/><use xlink:href="#O" transform="matrix(1,0,0,1,1290,760) translate(0 23.6)"/><use xlink:href="#w" transform="matrix(1,0,0,1,1285,802.5) translate(0 17.1)"/><use xlink:href="#c" transform="matrix(1,0,0,1,1285,802.5) translate(71.9 17.1)"/><use xlink:href="#L" transform="matrix(1,0,0,1,1285,802.5) translate(112.80000000000001 17.1)"/><use xlink:href="#M" transform="matrix(1,0,0,1,1285,802.5) translate(146.35000000000002 17.1)"/><use xlink:href="#m" transform="matrix(1,0,0,1,1285,834.5) translate(0 17.1)"/><use xlink:href="#c" transform="matrix(1,0,0,1,1285,834.5) translate(77.80000000000001 17.1)"/><use xlink:href="#L" transform="matrix(1,0,0,1,1285,834.5) translate(118.70000000000002 17.1)"/><use xlink:href="#M" transform="matrix(1,0,0,1,1285,834.5) translate(152.25000000000003 17.1)"/><use xlink:href="#H" transform="matrix(1,0,0,1,1285,866.5) translate(0 17.1)"/><use xlink:href="#q" transform="matrix(1,0,0,1,1285,866.5) translate(76.95 17.1)"/><use xlink:href="#n" transform="matrix(1,0,0,1,1285,866.5) translate(116.80000000000001 17.1)"/><use xlink:href="#P" transform="matrix(1,0,0,1,1285,898.5) translate(0 17.1)"/><use xlink:href="#Q" transform="matrix(1,0,0,1,1285,898.5) translate(91.85000000000001 17.1)"/><use xlink:href="#i" transform="matrix(1,0,0,1,1285,930.5) translate(0 17.1)"/><use xlink:href="#j" transform="matrix(1,0,0,1,1285,962.5) translate(0 17.1)"/><use xlink:href="#R" transform="matrix(1,0,0,1,1285,994.5) translate(0 17.1)"/><path d="M700.5 296H768a12 12 0 0 1 12 12v40a12 12 0 0 0 12 12h68.1" stroke="#3a414a" fill="none"/><path d="M700.5 306v-20M680.5 296h20" stroke="#3a414a" fill="#fff"/><path d="M879.28 370l-20-10 20-10" stroke="#3a414a" fill="#fff" fill-opacity="0"/><path d="M879.28 360h-20" stroke="#3a414a" fill="#fff"/><path d="M1259.5 296.02H1192a12 12 0 0 0-12 12V380a12 12 0 0 1-12 12h-68.1" stroke="#3a414a" fill="none"/><path d="M1259.5 286.02v20M1279.5 296.02h-20" stroke="#3a414a" fill="#fff"/><path d="M1080.72 382l20 10-20 10" stroke="#3a414a" fill="#fff" fill-opacity="0"/><path d="M1080.72 392h20" stroke="#3a414a" fill="#fff"/><path d="M860.1 295.86h-8.6a12 12 0 0 0-12 12V836a12 12 0 0 0 12 12h408.6" stroke="#3a414a" fill="none"/><path d="M879.28 305.86l-20-10 20-10" stroke="#3a414a" fill="#fff" fill-opacity="0"/><path d="M879.28 295.86h-20" stroke="#3a414a" fill="#fff"/><path d="M1279.28 858l-20-10 20-10" stroke="#3a414a" fill="#fff" fill-opacity="0"/><path d="M1279.28 848h-20" stroke="#3a414a" fill="#fff"/><path d="M674.9 816h585.2" stroke="#3a414a" fill="none"/><path d="M655.72 806l20 10-20 10" stroke="#3a414a" fill="#fff" fill-opacity="0"/><path d="M655.72 816h20" stroke="#3a414a" fill="#fff"/><path d="M1279.28 826l-20-10 20-10" stroke="#3a414a" fill="#fff" fill-opacity="0"/><path d="M1279.28 816h-20" stroke="#3a414a" fill="#fff"/><path d="M1500.5 560.02h8a12 12 0 0 1 12 12V868a12 12 0 0 1-12 12h-8.6" stroke="#3a414a" fill="none"/><path d="M1500.5 570.02v-20M1480.5 560.02h20" stroke="#3a414a" fill="#fff"/><path d="M1480.72 870l20 10-20 10" stroke="#3a414a" fill="#fff" fill-opacity="0"/><path d="M1480.72 880h20" stroke="#3a414a" fill="#fff"/><path d="M862 560H684.9" stroke="#3a414a" fill="none"/><path d="M862 550v20M882 560h-20" stroke="#3a414a" fill="#fff"/><path d="M665.73 550l20 10-20 10" stroke="#3a414a" fill="#fff" fill-opacity="0"/><path d="M665.73 560h20" stroke="#3a414a" fill="#fff"/><path d="M444.5 816h-8a12 12 0 0 1-12-12V604a12 12 0 0 1 12-12h8.6" stroke="#3a414a" fill="none"/><path d="M444.5 806v20M464.5 816h-20" stroke="#3a414a" fill="#fff"/><path d="M464.28 602l-20-10 20-10" stroke="#3a414a" fill="#fff" fill-opacity="0"/><path d="M464.28 592h-20" stroke="#3a414a" fill="#fff"/><path d="M79.4 260H115a5 5 0 0 1 5 5 5 5 0 0 0 5 5h35.6" stroke="#3a414a" fill="none"/><path d="M60.22 250l20 10-20 10" stroke="#3a414a" fill="#fff" fill-opacity="0"/><path d="M60.22 260h20" stroke="#3a414a" fill="#fff"/><path d="M179.78 280l-20-10 20-10" stroke="#3a414a" fill="#fff" fill-opacity="0"/><path d="M179.78 270h-20" stroke="#3a414a" fill="#fff"/><path d="M180 248a8 8 0 0 1 8-8h224a8 8 0 0 1 8 8v44a8 8 0 0 1-8 8H188a8 8 0 0 1-8-8z" stroke="#000" stroke-opacity="0" fill="#fff" fill-opacity="0"/><g><use xlink:href="#S" transform="matrix(1,0,0,1,185,245) translate(0 30.025)"/><use xlink:href="#T" transform="matrix(1,0,0,1,185,245) translate(24.950000000000003 30.025)"/></g><path d="M60 376h43a7 7 0 0 1 7 7 7 7 0 0 0 7 7h23.6M60.5 361v30" stroke="#3a414a" fill="none"/><path d="M159.78 400l-20-10 20-10" stroke="#3a414a" fill="#fff" fill-opacity="0"/><path d="M159.78 390h-20" stroke="#3a414a" fill="#fff"/><path d="M160 368a8 8 0 0 1 8-8h224a8 8 0 0 1 8 8v44a8 8 0 0 1-8 8H168a8 8 0 0 1-8-8z" stroke="#000" stroke-opacity="0" fill="#fff" fill-opacity="0"/><g><use xlink:href="#U" transform="matrix(1,0,0,1,165,365) translate(0 30.025)"/><use xlink:href="#V" transform="matrix(1,0,0,1,165,365) translate(15 30.025)"/><use xlink:href="#T" transform="matrix(1,0,0,1,165,365) translate(25 30.025)"/></g><defs><path fill="#3a414a" d="M84 4C-5 8 30-112 23-190h32v120c0 31 7 50 39 49 72-2 45-101 50-169h31l1 190h-30c-1-10 1-25-2-33-11 22-28 36-60 37" id="W"/><path fill="#3a414a" d="M135-143c-3-34-86-38-87 0 15 53 115 12 119 90S17 21 10-45l28-5c4 36 97 45 98 0-10-56-113-15-118-90-4-57 82-63 122-42 12 7 21 19 24 35" id="X"/><path fill="#3a414a" d="M100-194c63 0 86 42 84 106H49c0 40 14 67 53 68 26 1 43-12 49-29l28 8c-11 28-37 45-77 45C44 4 14-33 15-96c1-61 26-98 85-98zm52 81c6-60-76-77-97-28-3 7-6 17-6 28h103" id="Y"/><path fill="#3a414a" d="M114-163C36-179 61-72 57 0H25l-1-190h30c1 12-1 29 2 39 6-27 23-49 58-41v29" id="Z"/><g id="a"><use transform="matrix(0.05,0,0,0.05,0,0)" xlink:href="#W"/><use transform="matrix(0.05,0,0,0.05,10,0)" xlink:href="#X"/><use transform="matrix(0.05,0,0,0.05,19,0)" xlink:href="#Y"/><use transform="matrix(0.05,0,0,0.05,29,0)" xlink:href="#Z"/><use transform="matrix(0.05,0,0,0.05,34.95,0)" xlink:href="#X"/></g><path fill="#3a414a" d="M-5 72V49h209v23H-5" id="aa"/><path fill="#3a414a" d="M24-231v-30h32v30H24zM24 0v-190h32V0H24" id="ab"/><path fill="#3a414a" d="M85-194c31 0 48 13 60 33l-1-100h32l1 261h-30c-2-10 0-23-3-31C134-8 116 4 85 4 32 4 16-35 15-94c0-66 23-100 70-100zm9 24c-40 0-46 34-46 75 0 40 6 74 45 74 42 0 51-32 51-76 0-42-9-74-50-73" id="ac"/><g id="b"><use transform="matrix(0.05,0,0,0.05,0,0)" xlink:href="#W"/><use transform="matrix(0.05,0,0,0.05,10,0)" xlink:href="#X"/><use transform="matrix(0.05,0,0,0.05,19,0)" xlink:href="#Y"/><use transform="matrix(0.05,0,0,0.05,29,0)" xlink:href="#Z"/><use transform="matrix(0.05,0,0,0.05,34.95,0)" xlink:href="#aa"/><use transform="matrix(0.05,0,0,0.05,44.95,0)" xlink:href="#ab"/><use transform="matrix(0.05,0,0,0.05,48.900000000000006,0)" xlink:href="#ac"/></g><path fill="#3a414a" d="M87 75C49 33 22-17 22-94c0-76 28-126 65-167h31c-38 41-64 92-64 168S80 34 118 75H87" id="ad"/><path fill="#3a414a" d="M30-248c87 1 191-15 191 75 0 78-77 80-158 76V0H30v-248zm33 125c57 0 124 11 124-50 0-59-68-47-124-48v98" id="ae"/><path fill="#3a414a" d="M194 0L95-120 63-95V0H30v-248h33v124l119-124h40L117-140 236 0h-42" id="af"/><path fill="#3a414a" d="M33-261c38 41 65 92 65 168S71 34 33 75H2C39 34 66-17 66-93S39-220 2-261h31" id="ag"/><g id="c"><use transform="matrix(0.05,0,0,0.05,0,0)" xlink:href="#ad"/><use transform="matrix(0.05,0,0,0.05,5.95,0)" xlink:href="#ae"/><use transform="matrix(0.05,0,0,0.05,17.95,0)" xlink:href="#af"/><use transform="matrix(0.05,0,0,0.05,29.950000000000003,0)" xlink:href="#ag"/></g><path fill="#3a414a" d="M33 0v-248h34V0H33" id="ah"/><path fill="#3a414a" d="M190 0L58-211 59 0H30v-248h39L202-35l-2-213h31V0h-41" id="ai"/><path fill="#3a414a" d="M127-220V0H93v-220H8v-28h204v28h-85" id="aj"/><g id="d"><use transform="matrix(0.05,0,0,0.05,0,0)" xlink:href="#ah"/><use transform="matrix(0.05,0,0,0.05,5,0)" xlink:href="#ai"/><use transform="matrix(0.05,0,0,0.05,17.950000000000003,0)" xlink:href="#aj"/></g><path fill="#3a414a" d="M210-169c-67 3-38 105-44 169h-31v-121c0-29-5-50-35-48C34-165 62-65 56 0H25l-1-190h30c1 10-1 24 2 32 10-44 99-50 107 0 11-21 27-35 58-36 85-2 47 119 55 194h-31v-121c0-29-5-49-35-48" id="ak"/><path fill="#3a414a" d="M141-36C126-15 110 5 73 4 37 3 15-17 15-53c-1-64 63-63 125-63 3-35-9-54-41-54-24 1-41 7-42 31l-33-3c5-37 33-52 76-52 45 0 72 20 72 64v82c-1 20 7 32 28 27v20c-31 9-61-2-59-35zM48-53c0 20 12 33 32 33 41-3 63-29 60-74-43 2-92-5-92 41" id="al"/><path fill="#3a414a" d="M24 0v-261h32V0H24" id="am"/><g id="e"><use transform="matrix(0.05,0,0,0.05,0,0)" xlink:href="#Y"/><use transform="matrix(0.05,0,0,0.05,10,0)" xlink:href="#ak"/><use transform="matrix(0.05,0,0,0.05,24.950000000000003,0)" xlink:href="#al"/><use transform="matrix(0.05,0,0,0.05,34.95,0)" xlink:href="#ab"/><use transform="matrix(0.05,0,0,0.05,38.900000000000006,0)" xlink:href="#am"/></g><path fill="#3a414a" d="M137 0h-34L2-248h35l83 218 83-218h36" id="an"/><path fill="#3a414a" d="M205 0l-28-72H64L36 0H1l101-248h38L239 0h-34zm-38-99l-47-123c-12 45-31 82-46 123h93" id="ao"/><path fill="#3a414a" d="M233-177c-1 41-23 64-60 70L243 0h-38l-65-103H63V0H30v-248c88 3 205-21 203 71zM63-129c60-2 137 13 137-47 0-61-80-42-137-45v92" id="ap"/><path fill="#3a414a" d="M212-179c-10-28-35-45-73-45-59 0-87 40-87 99 0 60 29 101 89 101 43 0 62-24 78-52l27 14C228-24 195 4 139 4 59 4 22-46 18-125c-6-104 99-153 187-111 19 9 31 26 39 46" id="aq"/><path fill="#3a414a" d="M197 0v-115H63V0H30v-248h33v105h134v-105h34V0h-34" id="ar"/><path fill="#3a414a" d="M54-142c48-35 137-8 131 61C196 18 31 33 14-55l32-4c7 23 22 37 52 37 35-1 51-22 54-58 4-55-73-65-99-34H22l8-134h141v27H59" id="as"/><path fill="#3a414a" d="M101-251c68 0 85 55 85 127S166 4 100 4C33 4 14-52 14-124c0-73 17-127 87-127zm-1 229c47 0 54-49 54-102s-4-102-53-102c-51 0-55 48-55 102 0 53 5 102 54 102" id="at"/><g id="f"><use transform="matrix(0.05,0,0,0.05,0,0)" xlink:href="#an"/><use transform="matrix(0.05,0,0,0.05,10.65,0)" xlink:href="#ao"/><use transform="matrix(0.05,0,0,0.05,22.65,0)" xlink:href="#ap"/><use transform="matrix(0.05,0,0,0.05,35.6,0)" xlink:href="#aq"/><use transform="matrix(0.05,0,0,0.05,48.550000000000004,0)" xlink:href="#ar"/><use transform="matrix(0.05,0,0,0.05,61.5,0)" xlink:href="#ao"/><use transform="matrix(0.05,0,0,0.05,73.5,0)" xlink:href="#ap"/><use transform="matrix(0.05,0,0,0.05,86.45,0)" xlink:href="#ad"/><use transform="matrix(0.05,0,0,0.05,92.4,0)" xlink:href="#as"/><use transform="matrix(0.05,0,0,0.05,102.4,0)" xlink:href="#at"/><use transform="matrix(0.05,0,0,0.05,112.4,0)" xlink:href="#ag"/></g><path fill="#3a414a" d="M115-194c55 1 70 41 70 98S169 2 115 4C84 4 66-9 55-30l1 105H24l-1-265h31l2 30c10-21 28-34 59-34zm-8 174c40 0 45-34 45-75s-6-73-45-74c-42 0-51 32-51 76 0 43 10 73 51 73" id="au"/><path fill="#3a414a" d="M206 0h-36l-40-164L89 0H53L-1-190h32L70-26l43-164h34l41 164 42-164h31" id="av"/><path fill="#3a414a" d="M100-194c62-1 85 37 85 99 1 63-27 99-86 99S16-35 15-95c0-66 28-99 85-99zM99-20c44 1 53-31 53-75 0-43-8-75-51-75s-53 32-53 75 10 74 51 75" id="aw"/><g id="g"><use transform="matrix(0.05,0,0,0.05,0,0)" xlink:href="#au"/><use transform="matrix(0.05,0,0,0.05,10,0)" xlink:href="#al"/><use transform="matrix(0.05,0,0,0.05,20,0)" xlink:href="#X"/><use transform="matrix(0.05,0,0,0.05,29,0)" xlink:href="#X"/><use transform="matrix(0.05,0,0,0.05,38,0)" xlink:href="#av"/><use transform="matrix(0.05,0,0,0.05,50.95,0)" xlink:href="#aw"/><use transform="matrix(0.05,0,0,0.05,60.95,0)" xlink:href="#Z"/><use transform="matrix(0.05,0,0,0.05,66.9,0)" xlink:href="#ac"/></g><path fill="#3a414a" d="M27 0v-27h64v-190l-56 39v-29l58-41h29v221h61V0H27" id="ax"/><g id="h"><use transform="matrix(0.05,0,0,0.05,0,0)" xlink:href="#an"/><use transform="matrix(0.05,0,0,0.05,10.65,0)" xlink:href="#ao"/><use transform="matrix(0.05,0,0,0.05,22.65,0)" xlink:href="#ap"/><use transform="matrix(0.05,0,0,0.05,35.6,0)" xlink:href="#aq"/><use transform="matrix(0.05,0,0,0.05,48.550000000000004,0)" xlink:href="#ar"/><use transform="matrix(0.05,0,0,0.05,61.5,0)" xlink:href="#ao"/><use transform="matrix(0.05,0,0,0.05,73.5,0)" xlink:href="#ap"/><use transform="matrix(0.05,0,0,0.05,86.45,0)" xlink:href="#ad"/><use transform="matrix(0.05,0,0,0.05,92.4,0)" xlink:href="#ax"/><use transform="matrix(0.05,0,0,0.05,102.4,0)" xlink:href="#as"/><use transform="matrix(0.05,0,0,0.05,112.4,0)" xlink:href="#ag"/></g><path fill="#3a414a" d="M117-194c89-4 53 116 60 194h-32v-121c0-31-8-49-39-48C34-167 62-67 57 0H25l-1-190h30c1 10-1 24 2 32 11-22 29-35 61-36" id="ay"/><path fill="#3a414a" d="M141 0L90-78 38 0H4l68-98-65-92h35l48 74 47-74h35l-64 92 68 98h-35" id="az"/><g id="i"><use transform="matrix(0.05,0,0,0.05,0,0)" xlink:href="#ah"/><use transform="matrix(0.05,0,0,0.05,5,0)" xlink:href="#ay"/><use transform="matrix(0.05,0,0,0.05,15,0)" xlink:href="#ac"/><use transform="matrix(0.05,0,0,0.05,25,0)" xlink:href="#Y"/><use transform="matrix(0.05,0,0,0.05,35,0)" xlink:href="#az"/><use transform="matrix(0.05,0,0,0.05,44,0)" xlink:href="#Y"/><use transform="matrix(0.05,0,0,0.05,54,0)" xlink:href="#X"/></g><path fill="#3a414a" d="M179-190L93 31C79 59 56 82 12 73V49c39 6 53-20 64-50L1-190h34L92-34l54-156h33" id="aA"/><g id="j"><use transform="matrix(0.05,0,0,0.05,0,0)" xlink:href="#ae"/><use transform="matrix(0.05,0,0,0.05,12,0)" xlink:href="#Z"/><use transform="matrix(0.05,0,0,0.05,17.95,0)" xlink:href="#ab"/><use transform="matrix(0.05,0,0,0.05,21.9,0)" xlink:href="#ak"/><use transform="matrix(0.05,0,0,0.05,36.85,0)" xlink:href="#al"/><use transform="matrix(0.05,0,0,0.05,46.85,0)" xlink:href="#Z"/><use transform="matrix(0.05,0,0,0.05,52.800000000000004,0)" xlink:href="#aA"/></g><g id="k"><use transform="matrix(0.05,0,0,0.05,0,0)" xlink:href="#ab"/><use transform="matrix(0.05,0,0,0.05,3.95,0)" xlink:href="#ac"/><use transform="matrix(0.05,0,0,0.05,13.949999999999998,0)" xlink:href="#az"/><use transform="matrix(0.05,0,0,0.05,22.95,0)" xlink:href="#aa"/><use transform="matrix(0.05,0,0,0.05,32.95,0)" xlink:href="#Y"/><use transform="matrix(0.05,0,0,0.05,42.95,0)" xlink:href="#ak"/><use transform="matrix(0.05,0,0,0.05,57.900000000000006,0)" xlink:href="#al"/><use transform="matrix(0.05,0,0,0.05,67.9,0)" xlink:href="#ab"/><use transform="matrix(0.05,0,0,0.05,71.85000000000001,0)" xlink:href="#am"/></g><path fill="#3a414a" d="M101-234c-31-9-42 10-38 44h38v23H63V0H32v-167H5v-23h27c-7-52 17-82 69-68v24" id="aB"/><g id="l"><use transform="matrix(0.05,0,0,0.05,0,0)" xlink:href="#au"/><use transform="matrix(0.05,0,0,0.05,10,0)" xlink:href="#Z"/><use transform="matrix(0.05,0,0,0.05,15.949999999999998,0)" xlink:href="#aw"/><use transform="matrix(0.05,0,0,0.05,25.950000000000003,0)" xlink:href="#aB"/><use transform="matrix(0.05,0,0,0.05,30.950000000000003,0)" xlink:href="#ab"/><use transform="matrix(0.05,0,0,0.05,34.9,0)" xlink:href="#am"/><use transform="matrix(0.05,0,0,0.05,38.85,0)" xlink:href="#Y"/><use transform="matrix(0.05,0,0,0.05,48.85,0)" xlink:href="#X"/></g><g id="m"><use transform="matrix(0.05,0,0,0.05,0,0)" xlink:href="#au"/><use transform="matrix(0.05,0,0,0.05,10,0)" xlink:href="#Z"/><use transform="matrix(0.05,0,0,0.05,15.949999999999998,0)" xlink:href="#aw"/><use transform="matrix(0.05,0,0,0.05,25.950000000000003,0)" xlink:href="#aB"/><use transform="matrix(0.05,0,0,0.05,30.950000000000003,0)" xlink:href="#ab"/><use transform="matrix(0.05,0,0,0.05,34.9,0)" xlink:href="#am"/><use transform="matrix(0.05,0,0,0.05,38.85,0)" xlink:href="#Y"/><use transform="matrix(0.05,0,0,0.05,48.85,0)" xlink:href="#aa"/><use transform="matrix(0.05,0,0,0.05,58.85,0)" xlink:href="#ab"/><use transform="matrix(0.05,0,0,0.05,62.800000000000004,0)" xlink:href="#ac"/></g><path fill="#3a414a" d="M137-103V0h-34v-103L8-248h37l75 118 75-118h37" id="aC"/><g id="n"><use transform="matrix(0.05,0,0,0.05,0,0)" xlink:href="#aj"/><use transform="matrix(0.05,0,0,0.05,10.950000000000001,0)" xlink:href="#ah"/><use transform="matrix(0.05,0,0,0.05,15.950000000000001,0)" xlink:href="#ai"/><use transform="matrix(0.05,0,0,0.05,28.900000000000002,0)" xlink:href="#aC"/><use transform="matrix(0.05,0,0,0.05,40.900000000000006,0)" xlink:href="#ah"/><use transform="matrix(0.05,0,0,0.05,45.900000000000006,0)" xlink:href="#ai"/><use transform="matrix(0.05,0,0,0.05,58.85,0)" xlink:href="#aj"/></g><g id="o"><use transform="matrix(0.05,0,0,0.05,0,0)" xlink:href="#ay"/><use transform="matrix(0.05,0,0,0.05,10,0)" xlink:href="#al"/><use transform="matrix(0.05,0,0,0.05,20,0)" xlink:href="#ak"/><use transform="matrix(0.05,0,0,0.05,34.95,0)" xlink:href="#Y"/></g><path fill="#3a414a" d="M101-251c82-7 93 87 43 132L82-64C71-53 59-42 53-27h129V0H18c2-99 128-94 128-182 0-28-16-43-45-43s-46 15-49 41l-32-3c6-41 34-60 81-64" id="aD"/><g id="p"><use transform="matrix(0.05,0,0,0.05,0,0)" xlink:href="#an"/><use transform="matrix(0.05,0,0,0.05,10.65,0)" xlink:href="#ao"/><use transform="matrix(0.05,0,0,0.05,22.65,0)" xlink:href="#ap"/><use transform="matrix(0.05,0,0,0.05,35.6,0)" xlink:href="#aq"/><use transform="matrix(0.05,0,0,0.05,48.550000000000004,0)" xlink:href="#ar"/><use transform="matrix(0.05,0,0,0.05,61.5,0)" xlink:href="#ao"/><use transform="matrix(0.05,0,0,0.05,73.5,0)" xlink:href="#ap"/><use transform="matrix(0.05,0,0,0.05,86.45,0)" xlink:href="#ad"/><use transform="matrix(0.05,0,0,0.05,92.4,0)" xlink:href="#ax"/><use transform="matrix(0.05,0,0,0.05,102.4,0)" xlink:href="#aD"/><use transform="matrix(0.05,0,0,0.05,112.4,0)" xlink:href="#ag"/></g><path fill="#3a414a" d="M63-220v92h138v28H63V0H30v-248h175v28H63" id="aE"/><g id="q"><use transform="matrix(0.05,0,0,0.05,0,0)" xlink:href="#ad"/><use transform="matrix(0.05,0,0,0.05,5.95,0)" xlink:href="#aE"/><use transform="matrix(0.05,0,0,0.05,16.900000000000002,0)" xlink:href="#af"/><use transform="matrix(0.05,0,0,0.05,28.900000000000002,0)" xlink:href="#ag"/></g><path fill="#3a414a" d="M59-47c-2 24 18 29 38 22v24C64 9 27 4 27-40v-127H5v-23h24l9-43h21v43h35v23H59v120" id="aF"/><g id="r"><use transform="matrix(0.05,0,0,0.05,0,0)" xlink:href="#aF"/><use transform="matrix(0.05,0,0,0.05,5,0)" xlink:href="#aA"/><use transform="matrix(0.05,0,0,0.05,14,0)" xlink:href="#au"/><use transform="matrix(0.05,0,0,0.05,24,0)" xlink:href="#Y"/><use transform="matrix(0.05,0,0,0.05,34,0)" xlink:href="#aa"/><use transform="matrix(0.05,0,0,0.05,44,0)" xlink:href="#ab"/><use transform="matrix(0.05,0,0,0.05,47.95,0)" xlink:href="#ac"/></g><g id="s"><use transform="matrix(0.05,0,0,0.05,0,0)" xlink:href="#au"/><use transform="matrix(0.05,0,0,0.05,10,0)" xlink:href="#Z"/><use transform="matrix(0.05,0,0,0.05,15.949999999999998,0)" xlink:href="#aw"/><use transform="matrix(0.05,0,0,0.05,25.950000000000003,0)" xlink:href="#aB"/><use transform="matrix(0.05,0,0,0.05,30.950000000000003,0)" xlink:href="#ab"/><use transform="matrix(0.05,0,0,0.05,34.9,0)" xlink:href="#am"/><use transform="matrix(0.05,0,0,0.05,38.85,0)" xlink:href="#Y"/><use transform="matrix(0.05,0,0,0.05,48.85,0)" xlink:href="#aa"/><use transform="matrix(0.05,0,0,0.05,58.85,0)" xlink:href="#aF"/><use transform="matrix(0.05,0,0,0.05,63.85,0)" xlink:href="#aA"/><use transform="matrix(0.05,0,0,0.05,72.85,0)" xlink:href="#au"/><use transform="matrix(0.05,0,0,0.05,82.85,0)" xlink:href="#Y"/></g><g id="t"><use transform="matrix(0.05,0,0,0.05,0,0)" xlink:href="#aF"/><use transform="matrix(0.05,0,0,0.05,5,0)" xlink:href="#aA"/><use transform="matrix(0.05,0,0,0.05,14,0)" xlink:href="#au"/><use transform="matrix(0.05,0,0,0.05,24,0)" xlink:href="#Y"/><use transform="matrix(0.05,0,0,0.05,34,0)" xlink:href="#aa"/><use transform="matrix(0.05,0,0,0.05,44,0)" xlink:href="#ay"/><use transform="matrix(0.05,0,0,0.05,54,0)" xlink:href="#al"/><use transform="matrix(0.05,0,0,0.05,64,0)" xlink:href="#ak"/><use transform="matrix(0.05,0,0,0.05,78.95,0)" xlink:href="#Y"/></g><g id="u"><use transform="matrix(0.05,0,0,0.05,0,0)" xlink:href="#an"/><use transform="matrix(0.05,0,0,0.05,10.65,0)" xlink:href="#ao"/><use transform="matrix(0.05,0,0,0.05,22.65,0)" xlink:href="#ap"/><use transform="matrix(0.05,0,0,0.05,35.6,0)" xlink:href="#aq"/><use transform="matrix(0.05,0,0,0.05,48.550000000000004,0)" xlink:href="#ar"/><use transform="matrix(0.05,0,0,0.05,61.5,0)" xlink:href="#ao"/><use transform="matrix(0.05,0,0,0.05,73.5,0)" xlink:href="#ap"/><use transform="matrix(0.05,0,0,0.05,86.45,0)" xlink:href="#ad"/><use transform="matrix(0.05,0,0,0.05,92.4,0)" xlink:href="#as"/><use transform="matrix(0.05,0,0,0.05,102.4,0)" xlink:href="#ag"/></g><path fill="#3a414a" d="M108 0H70L1-190h34L89-25l56-165h34" id="aG"/><g id="v"><use transform="matrix(0.05,0,0,0.05,0,0)" xlink:href="#aG"/><use transform="matrix(0.05,0,0,0.05,9,0)" xlink:href="#ab"/><use transform="matrix(0.05,0,0,0.05,12.949999999999998,0)" xlink:href="#ac"/><use transform="matrix(0.05,0,0,0.05,22.95,0)" xlink:href="#Y"/><use transform="matrix(0.05,0,0,0.05,32.95,0)" xlink:href="#aw"/><use transform="matrix(0.05,0,0,0.05,42.95,0)" xlink:href="#X"/></g><g id="w"><use transform="matrix(0.05,0,0,0.05,0,0)" xlink:href="#aG"/><use transform="matrix(0.05,0,0,0.05,9,0)" xlink:href="#ab"/><use transform="matrix(0.05,0,0,0.05,12.949999999999998,0)" xlink:href="#ac"/><use transform="matrix(0.05,0,0,0.05,22.95,0)" xlink:href="#Y"/><use transform="matrix(0.05,0,0,0.05,32.95,0)" xlink:href="#aw"/><use transform="matrix(0.05,0,0,0.05,42.95,0)" xlink:href="#aa"/><use transform="matrix(0.05,0,0,0.05,52.95,0)" xlink:href="#ab"/><use transform="matrix(0.05,0,0,0.05,56.900000000000006,0)" xlink:href="#ac"/></g><g id="x"><use transform="matrix(0.05,0,0,0.05,0,0)" xlink:href="#ah"/><use transform="matrix(0.05,0,0,0.05,5,0)" xlink:href="#ai"/><use transform="matrix(0.05,0,0,0.05,17.950000000000003,0)" xlink:href="#aj"/></g><g id="y"><use transform="matrix(0.05,0,0,0.05,0,0)" xlink:href="#aF"/><use transform="matrix(0.05,0,0,0.05,5,0)" xlink:href="#ab"/><use transform="matrix(0.05,0,0,0.05,8.95,0)" xlink:href="#aF"/><use transform="matrix(0.05,0,0,0.05,13.949999999999998,0)" xlink:href="#am"/><use transform="matrix(0.05,0,0,0.05,17.9,0)" xlink:href="#Y"/></g><g id="z"><use transform="matrix(0.05,0,0,0.05,0,0)" xlink:href="#an"/><use transform="matrix(0.05,0,0,0.05,10.65,0)" xlink:href="#ao"/><use transform="matrix(0.05,0,0,0.05,22.65,0)" xlink:href="#ap"/><use transform="matrix(0.05,0,0,0.05,35.6,0)" xlink:href="#aq"/><use transform="matrix(0.05,0,0,0.05,48.550000000000004,0)" xlink:href="#ar"/><use transform="matrix(0.05,0,0,0.05,61.5,0)" xlink:href="#ao"/><use transform="matrix(0.05,0,0,0.05,73.5,0)" xlink:href="#ap"/><use transform="matrix(0.05,0,0,0.05,86.45,0)" xlink:href="#ad"/><use transform="matrix(0.05,0,0,0.05,92.4,0)" xlink:href="#aD"/><use transform="matrix(0.05,0,0,0.05,102.4,0)" xlink:href="#as"/><use transform="matrix(0.05,0,0,0.05,112.4,0)" xlink:href="#as"/><use transform="matrix(0.05,0,0,0.05,122.4,0)" xlink:href="#ag"/></g><path fill="#3a414a" d="M96-169c-40 0-48 33-48 73s9 75 48 75c24 0 41-14 43-38l32 2c-6 37-31 61-74 61-59 0-76-41-82-99-10-93 101-131 147-64 4 7 5 14 7 22l-32 3c-4-21-16-35-41-35" id="aH"/><g id="A"><use transform="matrix(0.05,0,0,0.05,0,0)" xlink:href="#ac"/><use transform="matrix(0.05,0,0,0.05,10,0)" xlink:href="#Y"/><use transform="matrix(0.05,0,0,0.05,20,0)" xlink:href="#X"/><use transform="matrix(0.05,0,0,0.05,29,0)" xlink:href="#aH"/><use transform="matrix(0.05,0,0,0.05,38,0)" xlink:href="#Z"/><use transform="matrix(0.05,0,0,0.05,43.95,0)" xlink:href="#ab"/><use transform="matrix(0.05,0,0,0.05,47.900000000000006,0)" xlink:href="#au"/><use transform="matrix(0.05,0,0,0.05,57.900000000000006,0)" xlink:href="#aF"/><use transform="matrix(0.05,0,0,0.05,62.900000000000006,0)" xlink:href="#ab"/><use transform="matrix(0.05,0,0,0.05,66.85000000000001,0)" xlink:href="#aw"/><use transform="matrix(0.05,0,0,0.05,76.85000000000001,0)" xlink:href="#ay"/></g><path fill="#3a414a" d="M30 0v-248h187v28H63v79h144v27H63v87h162V0H30" id="aI"/><path fill="#3a414a" d="M195 0l-74-108L45 0H8l94-129-87-119h37l69 98 67-98h37l-84 118L233 0h-38" id="aJ"/><g id="B"><use transform="matrix(0.05,0,0,0.05,0,0)" xlink:href="#aj"/><use transform="matrix(0.05,0,0,0.05,10.950000000000001,0)" xlink:href="#aI"/><use transform="matrix(0.05,0,0,0.05,22.950000000000003,0)" xlink:href="#aJ"/><use transform="matrix(0.05,0,0,0.05,34.95,0)" xlink:href="#aj"/></g><g id="C"><use transform="matrix(0.05,0,0,0.05,0,0)" xlink:href="#ab"/><use transform="matrix(0.05,0,0,0.05,3.95,0)" xlink:href="#ac"/><use transform="matrix(0.05,0,0,0.05,13.949999999999998,0)" xlink:href="#az"/><use transform="matrix(0.05,0,0,0.05,22.95,0)" xlink:href="#aa"/><use transform="matrix(0.05,0,0,0.05,32.95,0)" xlink:href="#aF"/><use transform="matrix(0.05,0,0,0.05,37.95,0)" xlink:href="#ab"/><use transform="matrix(0.05,0,0,0.05,41.900000000000006,0)" xlink:href="#aF"/><use transform="matrix(0.05,0,0,0.05,46.900000000000006,0)" xlink:href="#am"/><use transform="matrix(0.05,0,0,0.05,50.85000000000001,0)" xlink:href="#Y"/></g><g id="D"><use transform="matrix(0.05,0,0,0.05,0,0)" xlink:href="#al"/><use transform="matrix(0.05,0,0,0.05,10,0)" xlink:href="#aH"/><use transform="matrix(0.05,0,0,0.05,19,0)" xlink:href="#aF"/><use transform="matrix(0.05,0,0,0.05,24,0)" xlink:href="#aw"/><use transform="matrix(0.05,0,0,0.05,34,0)" xlink:href="#Z"/><use transform="matrix(0.05,0,0,0.05,39.95,0)" xlink:href="#X"/></g><g id="E"><use transform="matrix(0.05,0,0,0.05,0,0)" xlink:href="#al"/><use transform="matrix(0.05,0,0,0.05,10,0)" xlink:href="#aH"/><use transform="matrix(0.05,0,0,0.05,19,0)" xlink:href="#aF"/><use transform="matrix(0.05,0,0,0.05,24,0)" xlink:href="#aw"/><use transform="matrix(0.05,0,0,0.05,34,0)" xlink:href="#Z"/><use transform="matrix(0.05,0,0,0.05,39.95,0)" xlink:href="#aa"/><use transform="matrix(0.05,0,0,0.05,49.95,0)" xlink:href="#ab"/><use transform="matrix(0.05,0,0,0.05,53.900000000000006,0)" xlink:href="#ac"/></g><g id="F"><use transform="matrix(0.05,0,0,0.05,0,0)" xlink:href="#ab"/><use transform="matrix(0.05,0,0,0.05,3.95,0)" xlink:href="#ac"/><use transform="matrix(0.05,0,0,0.05,13.949999999999998,0)" xlink:href="#az"/><use transform="matrix(0.05,0,0,0.05,22.95,0)" xlink:href="#aa"/><use transform="matrix(0.05,0,0,0.05,32.95,0)" xlink:href="#ay"/><use transform="matrix(0.05,0,0,0.05,42.95,0)" xlink:href="#al"/><use transform="matrix(0.05,0,0,0.05,52.95,0)" xlink:href="#ak"/><use transform="matrix(0.05,0,0,0.05,67.9,0)" xlink:href="#Y"/></g><g id="G"><use transform="matrix(0.05,0,0,0.05,0,0)" xlink:href="#X"/><use transform="matrix(0.05,0,0,0.05,9,0)" xlink:href="#aF"/><use transform="matrix(0.05,0,0,0.05,14,0)" xlink:href="#al"/><use transform="matrix(0.05,0,0,0.05,24,0)" xlink:href="#W"/><use transform="matrix(0.05,0,0,0.05,34,0)" xlink:href="#X"/></g><g id="H"><use transform="matrix(0.05,0,0,0.05,0,0)" xlink:href="#X"/><use transform="matrix(0.05,0,0,0.05,9,0)" xlink:href="#aF"/><use transform="matrix(0.05,0,0,0.05,14,0)" xlink:href="#al"/><use transform="matrix(0.05,0,0,0.05,24,0)" xlink:href="#aF"/><use transform="matrix(0.05,0,0,0.05,29,0)" xlink:href="#W"/><use transform="matrix(0.05,0,0,0.05,39,0)" xlink:href="#X"/><use transform="matrix(0.05,0,0,0.05,48,0)" xlink:href="#aa"/><use transform="matrix(0.05,0,0,0.05,58,0)" xlink:href="#ab"/><use transform="matrix(0.05,0,0,0.05,61.95,0)" xlink:href="#ac"/></g><g id="I"><use transform="matrix(0.05,0,0,0.05,0,0)" xlink:href="#X"/><use transform="matrix(0.05,0,0,0.05,9,0)" xlink:href="#aF"/><use transform="matrix(0.05,0,0,0.05,14,0)" xlink:href="#al"/><use transform="matrix(0.05,0,0,0.05,24,0)" xlink:href="#aF"/><use transform="matrix(0.05,0,0,0.05,29,0)" xlink:href="#W"/><use transform="matrix(0.05,0,0,0.05,39,0)" xlink:href="#X"/></g><g id="J"><use transform="matrix(0.05,0,0,0.05,0,0)" xlink:href="#an"/><use transform="matrix(0.05,0,0,0.05,10.65,0)" xlink:href="#ao"/><use transform="matrix(0.05,0,0,0.05,22.65,0)" xlink:href="#ap"/><use transform="matrix(0.05,0,0,0.05,35.6,0)" xlink:href="#aq"/><use transform="matrix(0.05,0,0,0.05,48.550000000000004,0)" xlink:href="#ar"/><use transform="matrix(0.05,0,0,0.05,61.5,0)" xlink:href="#ao"/><use transform="matrix(0.05,0,0,0.05,73.5,0)" xlink:href="#ap"/><use transform="matrix(0.05,0,0,0.05,86.45,0)" xlink:href="#ad"/><use transform="matrix(0.05,0,0,0.05,92.4,0)" xlink:href="#aD"/><use transform="matrix(0.05,0,0,0.05,102.4,0)" xlink:href="#as"/><use transform="matrix(0.05,0,0,0.05,112.4,0)" xlink:href="#ag"/></g><g id="K"><use transform="matrix(0.05,0,0,0.05,0,0)" xlink:href="#al"/><use transform="matrix(0.05,0,0,0.05,10,0)" xlink:href="#aH"/><use transform="matrix(0.05,0,0,0.05,19,0)" xlink:href="#aF"/><use transform="matrix(0.05,0,0,0.05,24,0)" xlink:href="#aw"/><use transform="matrix(0.05,0,0,0.05,34,0)" xlink:href="#Z"/><use transform="matrix(0.05,0,0,0.05,39.95,0)" xlink:href="#aa"/><use transform="matrix(0.05,0,0,0.05,49.95,0)" xlink:href="#aG"/><use transform="matrix(0.05,0,0,0.05,58.95,0)" xlink:href="#ab"/><use transform="matrix(0.05,0,0,0.05,62.900000000000006,0)" xlink:href="#ac"/><use transform="matrix(0.05,0,0,0.05,72.9,0)" xlink:href="#Y"/><use transform="matrix(0.05,0,0,0.05,82.9,0)" xlink:href="#aw"/></g><g id="L"><use transform="matrix(0.05,0,0,0.05,0,0)" xlink:href="#ah"/><use transform="matrix(0.05,0,0,0.05,5,0)" xlink:href="#ai"/><use transform="matrix(0.05,0,0,0.05,17.950000000000003,0)" xlink:href="#aj"/></g><g id="M"><use transform="matrix(0.05,0,0,0.05,0,0)" xlink:href="#ad"/><use transform="matrix(0.05,0,0,0.05,5.95,0)" xlink:href="#aE"/><use transform="matrix(0.05,0,0,0.05,16.900000000000002,0)" xlink:href="#af"/><use transform="matrix(0.05,0,0,0.05,28.900000000000002,0)" xlink:href="#ag"/></g><g id="N"><use transform="matrix(0.05,0,0,0.05,0,0)" xlink:href="#ab"/><use transform="matrix(0.05,0,0,0.05,3.95,0)" xlink:href="#ac"/><use transform="matrix(0.05,0,0,0.05,13.949999999999998,0)" xlink:href="#az"/><use transform="matrix(0.05,0,0,0.05,22.95,0)" xlink:href="#aa"/><use transform="matrix(0.05,0,0,0.05,32.95,0)" xlink:href="#aG"/><use transform="matrix(0.05,0,0,0.05,41.95,0)" xlink:href="#ab"/><use transform="matrix(0.05,0,0,0.05,45.900000000000006,0)" xlink:href="#ac"/><use transform="matrix(0.05,0,0,0.05,55.900000000000006,0)" xlink:href="#Y"/><use transform="matrix(0.05,0,0,0.05,65.9,0)" xlink:href="#aw"/><use transform="matrix(0.05,0,0,0.05,75.9,0)" xlink:href="#aa"/><use transform="matrix(0.05,0,0,0.05,85.9,0)" xlink:href="#ab"/><use transform="matrix(0.05,0,0,0.05,89.85000000000001,0)" xlink:href="#ac"/></g><g id="O"><use transform="matrix(0.05,0,0,0.05,0,0)" xlink:href="#au"/><use transform="matrix(0.05,0,0,0.05,10,0)" xlink:href="#Z"/><use transform="matrix(0.05,0,0,0.05,15.949999999999998,0)" xlink:href="#aw"/><use transform="matrix(0.05,0,0,0.05,25.950000000000003,0)" xlink:href="#aB"/><use transform="matrix(0.05,0,0,0.05,30.950000000000003,0)" xlink:href="#ab"/><use transform="matrix(0.05,0,0,0.05,34.9,0)" xlink:href="#am"/><use transform="matrix(0.05,0,0,0.05,38.85,0)" xlink:href="#Y"/><use transform="matrix(0.05,0,0,0.05,48.85,0)" xlink:href="#aa"/><use transform="matrix(0.05,0,0,0.05,58.85,0)" xlink:href="#aG"/><use transform="matrix(0.05,0,0,0.05,67.85,0)" xlink:href="#ab"/><use transform="matrix(0.05,0,0,0.05,71.8,0)" xlink:href="#ac"/><use transform="matrix(0.05,0,0,0.05,81.8,0)" xlink:href="#Y"/><use transform="matrix(0.05,0,0,0.05,91.8,0)" xlink:href="#aw"/></g><g id="P"><use transform="matrix(0.05,0,0,0.05,0,0)" xlink:href="#aG"/><use transform="matrix(0.05,0,0,0.05,9,0)" xlink:href="#ab"/><use transform="matrix(0.05,0,0,0.05,12.949999999999998,0)" xlink:href="#ac"/><use transform="matrix(0.05,0,0,0.05,22.95,0)" xlink:href="#Y"/><use transform="matrix(0.05,0,0,0.05,32.95,0)" xlink:href="#aw"/><use transform="matrix(0.05,0,0,0.05,42.95,0)" xlink:href="#aa"/><use transform="matrix(0.05,0,0,0.05,52.95,0)" xlink:href="#aF"/><use transform="matrix(0.05,0,0,0.05,57.95,0)" xlink:href="#ab"/><use transform="matrix(0.05,0,0,0.05,61.900000000000006,0)" xlink:href="#ak"/><use transform="matrix(0.05,0,0,0.05,76.85000000000001,0)" xlink:href="#Y"/></g><path fill="#3a414a" d="M240 0l2-218c-23 76-54 145-80 218h-23L58-218 59 0H30v-248h44l77 211c21-75 51-140 76-211h43V0h-30" id="aK"/><g id="Q"><use transform="matrix(0.05,0,0,0.05,0,0)" xlink:href="#aj"/><use transform="matrix(0.05,0,0,0.05,10.950000000000001,0)" xlink:href="#ah"/><use transform="matrix(0.05,0,0,0.05,15.950000000000001,0)" xlink:href="#aK"/><use transform="matrix(0.05,0,0,0.05,30.900000000000002,0)" xlink:href="#aI"/></g><g id="R"><use transform="matrix(0.05,0,0,0.05,0,0)" xlink:href="#ab"/><use transform="matrix(0.05,0,0,0.05,3.95,0)" xlink:href="#ac"/><use transform="matrix(0.05,0,0,0.05,13.949999999999998,0)" xlink:href="#az"/><use transform="matrix(0.05,0,0,0.05,22.95,0)" xlink:href="#aa"/><use transform="matrix(0.05,0,0,0.05,32.95,0)" xlink:href="#au"/><use transform="matrix(0.05,0,0,0.05,42.95,0)" xlink:href="#Z"/><use transform="matrix(0.05,0,0,0.05,48.900000000000006,0)" xlink:href="#aw"/><use transform="matrix(0.05,0,0,0.05,58.900000000000006,0)" xlink:href="#aB"/><use transform="matrix(0.05,0,0,0.05,63.900000000000006,0)" xlink:href="#ab"/><use transform="matrix(0.05,0,0,0.05,67.85000000000001,0)" xlink:href="#am"/><use transform="matrix(0.05,0,0,0.05,71.80000000000001,0)" xlink:href="#Y"/><use transform="matrix(0.05,0,0,0.05,81.80000000000001,0)" xlink:href="#aa"/><use transform="matrix(0.05,0,0,0.05,91.80000000000001,0)" xlink:href="#ab"/><use transform="matrix(0.05,0,0,0.05,95.75000000000001,0)" xlink:href="#ac"/><use transform="matrix(0.05,0,0,0.05,105.75,0)" xlink:href="#aa"/><use transform="matrix(0.05,0,0,0.05,115.75,0)" xlink:href="#aG"/><use transform="matrix(0.05,0,0,0.05,124.75,0)" xlink:href="#ab"/><use transform="matrix(0.05,0,0,0.05,128.70000000000002,0)" xlink:href="#ac"/><use transform="matrix(0.05,0,0,0.05,138.70000000000002,0)" xlink:href="#Y"/><use transform="matrix(0.05,0,0,0.05,148.70000000000002,0)" xlink:href="#aw"/><use transform="matrix(0.05,0,0,0.05,158.70000000000002,0)" xlink:href="#aa"/><use transform="matrix(0.05,0,0,0.05,168.70000000000002,0)" xlink:href="#ab"/><use transform="matrix(0.05,0,0,0.05,172.65,0)" xlink:href="#ac"/></g><path fill="#3a414a" d="M33-154v-36h34v36H33zM33 0v-36h34V0H33" id="aL"/><g id="S"><use transform="matrix(0.05,0,0,0.05,0,0)" xlink:href="#aK"/><use transform="matrix(0.05,0,0,0.05,14.950000000000001,0)" xlink:href="#aL"/></g><use transform="matrix(0.05,0,0,0.05,0,0)" xlink:href="#aK" id="T"/><use transform="matrix(0.05,0,0,0.05,0,0)" xlink:href="#ax" id="U"/><use transform="matrix(0.05,0,0,0.05,0,0)" xlink:href="#aL" id="V"/></defs></g></svg>