<svg xmlns="http://www.w3.org/2000/svg" xmlns:xlink="http://www.w3.org/1999/xlink" xmlns:lucid="lucid" width="2961" height="1740"><g transform="translate(-2637 -120)" lucid:page-tab-id="0_0"><path d="M0-500h5500v2500H0z" fill="#fff"/><path d="M3920 648a8 8 0 0 1 8-8h164a8 8 0 0 1 8 8v88a8 8 0 0 1-8 8h-164a8 8 0 0 1-8-8z" fill="#fff"/><path d="M3920 680v-32a8 8 0 0 1 8-8h164a8 8 0 0 1 8 8v32" fill="#dedeff"/><path d="M3920 648a8 8 0 0 1 8-8h164a8 8 0 0 1 8 8v88a8 8 0 0 1-8 8h-164a8 8 0 0 1-8-8zM3920 680h180" stroke="#3a414a" fill="none"/><use xlink:href="#a" transform="matrix(1,0,0,1,3930,640) translate(0 23.6)"/><use xlink:href="#b" transform="matrix(1,0,0,1,3925,682.5) translate(0 17.1)"/><use xlink:href="#c" transform="matrix(1,0,0,1,3925,682.5) translate(72.95 17.1)"/><use xlink:href="#d" transform="matrix(1,0,0,1,3925,682.5) translate(106.5 17.1)"/><use xlink:href="#e" transform="matrix(1,0,0,1,3925,714.5) translate(0 17.1)"/><use xlink:href="#f" transform="matrix(1,0,0,1,3925,714.5) translate(49.95 17.1)"/><path d="M4300 648a8 8 0 0 1 8-8h199.6a8 8 0 0 1 8 8v248a8 8 0 0 1-8 8H4308a8 8 0 0 1-8-8z" fill="#fff"/><path d="M4300 680v-32a8 8 0 0 1 8-8h199.6a8 8 0 0 1 8 8v32" fill="#dedeff"/><path d="M4300 648a8 8 0 0 1 8-8h199.6a8 8 0 0 1 8 8v248a8 8 0 0 1-8 8H4308a8 8 0 0 1-8-8zM4300 680h215.6" stroke="#3a414a" fill="none"/><use xlink:href="#g" transform="matrix(1,0,0,1,4310,640) translate(0 23.6)"/><use xlink:href="#h" transform="matrix(1,0,0,1,4305,682.5) translate(0 17.1)"/><use xlink:href="#c" transform="matrix(1,0,0,1,4305,682.5) translate(82.85000000000001 17.1)"/><use xlink:href="#d" transform="matrix(1,0,0,1,4305,682.5) translate(116.4 17.1)"/><use xlink:href="#i" transform="matrix(1,0,0,1,4305,714.5) translate(0 17.1)"/><use xlink:href="#j" transform="matrix(1,0,0,1,4305,714.5) translate(42.95 17.1)"/><use xlink:href="#k" transform="matrix(1,0,0,1,4305,746.5) translate(0 17.1)"/><use xlink:href="#c" transform="matrix(1,0,0,1,4305,746.5) translate(120.85000000000001 17.1)"/><use xlink:href="#l" transform="matrix(1,0,0,1,4305,746.5) translate(154.4 17.1)"/><use xlink:href="#m" transform="matrix(1,0,0,1,4305,778.5) translate(0 17.1)"/><use xlink:href="#c" transform="matrix(1,0,0,1,4305,778.5) translate(111.80000000000001 17.1)"/><use xlink:href="#l" transform="matrix(1,0,0,1,4305,778.5) translate(145.35000000000002 17.1)"/><use xlink:href="#n" transform="matrix(1,0,0,1,4305,810.5) translate(0 17.1)"/><use xlink:href="#j" transform="matrix(1,0,0,1,4305,810.5) translate(69.9 17.1)"/><use xlink:href="#b" transform="matrix(1,0,0,1,4305,842.5) translate(0 17.1)"/><use xlink:href="#c" transform="matrix(1,0,0,1,4305,842.5) translate(72.95 17.1)"/><use xlink:href="#l" transform="matrix(1,0,0,1,4305,842.5) translate(106.5 17.1)"/><use xlink:href="#o" transform="matrix(1,0,0,1,4305,874.5) translate(0 17.1)"/><use xlink:href="#p" transform="matrix(1,0,0,1,4305,874.5) translate(40 17.1)"/><path d="M4275.6 1048a8 8 0 0 1 8-8h224a8 8 0 0 1 8 8v173a8 8 0 0 1-8 8h-224a8 8 0 0 1-8-8z" fill="#fff"/><path d="M4275.6 1080v-32a8 8 0 0 1 8-8h224a8 8 0 0 1 8 8v32" fill="#dedeff"/><path d="M4275.6 1048a8 8 0 0 1 8-8h224a8 8 0 0 1 8 8v173a8 8 0 0 1-8 8h-224a8 8 0 0 1-8-8zM4275.6 1080h240" stroke="#3a414a" fill="none"/><use xlink:href="#q" transform="matrix(1,0,0,1,4285.612284754898,1040) translate(0 23.6)"/><use xlink:href="#r" transform="matrix(1,0,0,1,4280.612284754898,1082.5) translate(0 16.799999999999997)"/><use xlink:href="#s" transform="matrix(1,0,0,1,4280.612284754898,1082.5) translate(177.79999999999998 16.799999999999997)"/><use xlink:href="#d" transform="matrix(1,0,0,1,4280.612284754898,1082.5) translate(0 38.4)"/><use xlink:href="#t" transform="matrix(1,0,0,1,4280.612284754898,1135.5) translate(0 17.1)"/><use xlink:href="#u" transform="matrix(1,0,0,1,4280.612284754898,1135.5) translate(93.9 17.1)"/><use xlink:href="#v" transform="matrix(1,0,0,1,4280.612284754898,1135.5) translate(185.35000000000002 17.1)"/><use xlink:href="#w" transform="matrix(1,0,0,1,4280.612284754898,1167.5) translate(0 17.1)"/><use xlink:href="#f" transform="matrix(1,0,0,1,4280.612284754898,1167.5) translate(108 17.1)"/><use xlink:href="#x" transform="matrix(1,0,0,1,4280.612284754898,1199.5) translate(0 17.1)"/><use xlink:href="#j" transform="matrix(1,0,0,1,4280.612284754898,1199.5) translate(91.85000000000001 17.1)"/><path d="M4715.6 912a8 8 0 0 1 8-8h199.63a8 8 0 0 1 8 8v109a8 8 0 0 1-8 8H4723.6a8 8 0 0 1-8-8z" fill="#fff"/><path d="M4715.6 944v-32a8 8 0 0 1 8-8h199.63a8 8 0 0 1 8 8v32" fill="#dedeff"/><path d="M4715.6 912a8 8 0 0 1 8-8h199.63a8 8 0 0 1 8 8v109a8 8 0 0 1-8 8H4723.6a8 8 0 0 1-8-8zM4715.6 944h215.63" stroke="#3a414a" fill="none"/><use xlink:href="#y" transform="matrix(1,0,0,1,4725.612284754898,904) translate(0 23.6)"/><use xlink:href="#z" transform="matrix(1,0,0,1,4720.612284754898,946.5) translate(0 17.1)"/><use xlink:href="#c" transform="matrix(1,0,0,1,4720.612284754898,946.5) translate(130.85000000000002 17.1)"/><use xlink:href="#d" transform="matrix(1,0,0,1,4720.612284754898,946.5) translate(164.40000000000003 17.1)"/><use xlink:href="#A" transform="matrix(1,0,0,1,4720.612284754898,978.5) translate(0 16.799999999999997)"/><use xlink:href="#j" transform="matrix(1,0,0,1,4720.612284754898,978.5) translate(0 38.4)"/><path d="M3920 888a8 8 0 0 1 8-8h184a8 8 0 0 1 8 8v120a8 8 0 0 1-8 8h-184a8 8 0 0 1-8-8z" fill="#fff"/><path d="M3920 920v-32a8 8 0 0 1 8-8h184a8 8 0 0 1 8 8v32" fill="#dedeff"/><path d="M3920 888a8 8 0 0 1 8-8h184a8 8 0 0 1 8 8v120a8 8 0 0 1-8 8h-184a8 8 0 0 1-8-8zM3920 920h200" stroke="#3a414a" fill="none"/><use xlink:href="#B" transform="matrix(1,0,0,1,3930,880) translate(0 23.6)"/><use xlink:href="#C" transform="matrix(1,0,0,1,3925,922.5) translate(0 17.1)"/><use xlink:href="#c" transform="matrix(1,0,0,1,3925,922.5) translate(102.80000000000001 17.1)"/><use xlink:href="#d" transform="matrix(1,0,0,1,3925,922.5) translate(136.35000000000002 17.1)"/><use xlink:href="#e" transform="matrix(1,0,0,1,3925,954.5) translate(0 17.1)"/><use xlink:href="#j" transform="matrix(1,0,0,1,3925,954.5) translate(49.95 17.1)"/><use xlink:href="#D" transform="matrix(1,0,0,1,3925,986.5) translate(0 17.1)"/><use xlink:href="#f" transform="matrix(1,0,0,1,3925,986.5) translate(47.85000000000001 17.1)"/><path d="M3520 648a8 8 0 0 1 8-8h184a8 8 0 0 1 8 8v184a8 8 0 0 1-8 8h-184a8 8 0 0 1-8-8z" fill="#fff"/><path d="M3520 680v-32a8 8 0 0 1 8-8h184a8 8 0 0 1 8 8v32" fill="#dedeff"/><path d="M3520 648a8 8 0 0 1 8-8h184a8 8 0 0 1 8 8v184a8 8 0 0 1-8 8h-184a8 8 0 0 1-8-8zM3520 680h200" stroke="#3a414a" fill="none"/><use xlink:href="#E" transform="matrix(1,0,0,1,3530,640) translate(0 23.6)"/><use xlink:href="#F" transform="matrix(1,0,0,1,3525,682.5) translate(0 17.1)"/><use xlink:href="#c" transform="matrix(1,0,0,1,3525,682.5) translate(87.95 17.1)"/><use xlink:href="#d" transform="matrix(1,0,0,1,3525,682.5) translate(121.5 17.1)"/><use xlink:href="#e" transform="matrix(1,0,0,1,3525,714.5) translate(0 17.1)"/><use xlink:href="#G" transform="matrix(1,0,0,1,3525,714.5) translate(49.95 17.1)"/><use xlink:href="#D" transform="matrix(1,0,0,1,3525,746.5) translate(0 17.1)"/><use xlink:href="#f" transform="matrix(1,0,0,1,3525,746.5) translate(47.85000000000001 17.1)"/><use xlink:href="#H" transform="matrix(1,0,0,1,3525,778.5) translate(0 17.1)"/><use xlink:href="#p" transform="matrix(1,0,0,1,3525,778.5) translate(138.8 17.1)"/><use xlink:href="#b" transform="matrix(1,0,0,1,3525,810.5) translate(0 17.1)"/><use xlink:href="#I" transform="matrix(1,0,0,1,3525,810.5) translate(72.95 17.1)"/><path d="M4715.6 648a8 8 0 0 1 8-8h184a8 8 0 0 1 8 8v173a8 8 0 0 1-8 8h-184a8 8 0 0 1-8-8z" fill="#fff"/><path d="M4715.6 680v-32a8 8 0 0 1 8-8h184a8 8 0 0 1 8 8v32" fill="#dedeff"/><path d="M4715.6 648a8 8 0 0 1 8-8h184a8 8 0 0 1 8 8v173a8 8 0 0 1-8 8h-184a8 8 0 0 1-8-8zM4715.6 680h200" stroke="#3a414a" fill="none"/><use xlink:href="#J" transform="matrix(1,0,0,1,4725.612284754898,640) translate(0 23.6)"/><use xlink:href="#F" transform="matrix(1,0,0,1,4720.612284754898,682.5) translate(0 17.1)"/><use xlink:href="#c" transform="matrix(1,0,0,1,4720.612284754898,682.5) translate(87.95 17.1)"/><use xlink:href="#d" transform="matrix(1,0,0,1,4720.612284754898,682.5) translate(121.5 17.1)"/><use xlink:href="#h" transform="matrix(1,0,0,1,4720.612284754898,714.5) translate(0 17.1)"/><use xlink:href="#c" transform="matrix(1,0,0,1,4720.612284754898,714.5) translate(82.85000000000001 17.1)"/><use xlink:href="#d" transform="matrix(1,0,0,1,4720.612284754898,714.5) translate(116.4 17.1)"/><use xlink:href="#K" transform="matrix(1,0,0,1,4720.612284754898,746.5) translate(0 16.799999999999997)"/><use xlink:href="#I" transform="matrix(1,0,0,1,4720.612284754898,746.5) translate(0 38.4)"/><use xlink:href="#o" transform="matrix(1,0,0,1,4720.612284754898,799.5) translate(0 17.1)"/><use xlink:href="#p" transform="matrix(1,0,0,1,4720.612284754898,799.5) translate(40 17.1)"/><path d="M3920 1148a8 8 0 0 1 8-8h184a8 8 0 0 1 8 8v130a8 8 0 0 1-8 8h-184a8 8 0 0 1-8-8z" fill="#fff"/><path d="M3920 1180v-32a8 8 0 0 1 8-8h184a8 8 0 0 1 8 8v32" fill="#dedeff"/><path d="M3920 1148a8 8 0 0 1 8-8h184a8 8 0 0 1 8 8v130a8 8 0 0 1-8 8h-184a8 8 0 0 1-8-8zM3920 1180h200" stroke="#3a414a" fill="none"/><use xlink:href="#L" transform="matrix(1,0,0,1,3930,1140) translate(0 23.6)"/><use xlink:href="#C" transform="matrix(1,0,0,1,3925,1182.5) translate(0 16.799999999999997)"/><use xlink:href="#c" transform="matrix(1,0,0,1,3925,1182.5) translate(102.80000000000001 16.799999999999997)"/><use xlink:href="#M" transform="matrix(1,0,0,1,3925,1182.5) translate(136.35000000000002 16.799999999999997)"/><use xlink:href="#l" transform="matrix(1,0,0,1,3925,1182.5) translate(0 38.4)"/><use xlink:href="#h" transform="matrix(1,0,0,1,3925,1235.5) translate(0 16.799999999999997)"/><use xlink:href="#c" transform="matrix(1,0,0,1,3925,1235.5) translate(82.85000000000001 16.799999999999997)"/><use xlink:href="#M" transform="matrix(1,0,0,1,3925,1235.5) translate(116.4 16.799999999999997)"/><use xlink:href="#l" transform="matrix(1,0,0,1,3925,1235.5) translate(0 38.4)"/><path d="M4720 1148a8 8 0 0 1 8-8h224a8 8 0 0 1 8 8v173a8 8 0 0 1-8 8h-224a8 8 0 0 1-8-8z" fill="#fff"/><path d="M4720 1180v-32a8 8 0 0 1 8-8h224a8 8 0 0 1 8 8v32" fill="#dedeff"/><path d="M4720 1148a8 8 0 0 1 8-8h224a8 8 0 0 1 8 8v173a8 8 0 0 1-8 8h-224a8 8 0 0 1-8-8zM4720 1180h240" stroke="#3a414a" fill="none"/><use xlink:href="#N" transform="matrix(1,0,0,1,4730,1140) translate(0 23.6)"/><use xlink:href="#O" transform="matrix(1,0,0,1,4725,1182.5) translate(0 16.799999999999997)"/><use xlink:href="#s" transform="matrix(1,0,0,1,4725,1182.5) translate(195.7 16.799999999999997)"/><use xlink:href="#d" transform="matrix(1,0,0,1,4725,1182.5) translate(0 38.4)"/><use xlink:href="#P" transform="matrix(1,0,0,1,4725,1235.5) translate(0 17.1)"/><use xlink:href="#j" transform="matrix(1,0,0,1,4725,1235.5) translate(64 17.1)"/><use xlink:href="#Q" transform="matrix(1,0,0,1,4725,1267.5) translate(0 17.1)"/><use xlink:href="#I" transform="matrix(1,0,0,1,4725,1267.5) translate(53 17.1)"/><use xlink:href="#k" transform="matrix(1,0,0,1,4725,1299.5) translate(0 17.1)"/><use xlink:href="#c" transform="matrix(1,0,0,1,4725,1299.5) translate(120.85000000000001 17.1)"/><use xlink:href="#l" transform="matrix(1,0,0,1,4725,1299.5) translate(154.4 17.1)"/><path d="M5020 912a8 8 0 0 1 8-8h184a8 8 0 0 1 8 8v109a8 8 0 0 1-8 8h-184a8 8 0 0 1-8-8z" fill="#fff"/><path d="M5020 944v-32a8 8 0 0 1 8-8h184a8 8 0 0 1 8 8v32" fill="#dedeff"/><path d="M5020 912a8 8 0 0 1 8-8h184a8 8 0 0 1 8 8v109a8 8 0 0 1-8 8h-184a8 8 0 0 1-8-8zM5020 944h200" stroke="#3a414a" fill="none"/><use xlink:href="#R" transform="matrix(1,0,0,1,5030,904) translate(0 23.6)"/><use xlink:href="#m" transform="matrix(1,0,0,1,5025,946.5) translate(0 17.1)"/><use xlink:href="#c" transform="matrix(1,0,0,1,5025,946.5) translate(111.80000000000001 17.1)"/><use xlink:href="#d" transform="matrix(1,0,0,1,5025,946.5) translate(145.35000000000002 17.1)"/><use xlink:href="#S" transform="matrix(1,0,0,1,5025,978.5) translate(0 16.799999999999997)"/><use xlink:href="#j" transform="matrix(1,0,0,1,5025,978.5) translate(0 38.4)"/><path d="M3520 1288a8 8 0 0 1 8-8h264a8 8 0 0 1 8 8v216a8 8 0 0 1-8 8h-264a8 8 0 0 1-8-8z" fill="#fff"/><path d="M3520 1320v-32a8 8 0 0 1 8-8h264a8 8 0 0 1 8 8v32" fill="#dedeff"/><path d="M3520 1288a8 8 0 0 1 8-8h264a8 8 0 0 1 8 8v216a8 8 0 0 1-8 8h-264a8 8 0 0 1-8-8zM3520 1320h280" stroke="#3a414a" fill="none"/><use xlink:href="#T" transform="matrix(1,0,0,1,3530,1280) translate(0 23.6)"/><use xlink:href="#U" transform="matrix(1,0,0,1,3525,1322.5) translate(0 17.1)"/><use xlink:href="#c" transform="matrix(1,0,0,1,3525,1322.5) translate(57.95 17.1)"/><use xlink:href="#d" transform="matrix(1,0,0,1,3525,1322.5) translate(91.5 17.1)"/><use xlink:href="#F" transform="matrix(1,0,0,1,3525,1354.5) translate(0 17.1)"/><use xlink:href="#c" transform="matrix(1,0,0,1,3525,1354.5) translate(87.95 17.1)"/><use xlink:href="#l" transform="matrix(1,0,0,1,3525,1354.5) translate(121.5 17.1)"/><use xlink:href="#k" transform="matrix(1,0,0,1,3525,1386.5) translate(0 17.1)"/><use xlink:href="#c" transform="matrix(1,0,0,1,3525,1386.5) translate(120.85000000000001 17.1)"/><use xlink:href="#l" transform="matrix(1,0,0,1,3525,1386.5) translate(154.4 17.1)"/><use xlink:href="#V" transform="matrix(1,0,0,1,3525,1418.5) translate(0 17.1)"/><use xlink:href="#I" transform="matrix(1,0,0,1,3525,1418.5) translate(235.7 17.1)"/><use xlink:href="#W" transform="matrix(1,0,0,1,3525,1450.5) translate(0 17.1)"/><use xlink:href="#X" transform="matrix(1,0,0,1,3525,1482.5) translate(0 17.1)"/><path d="M5020 1148a8 8 0 0 1 8-8h264a8 8 0 0 1 8 8v152a8 8 0 0 1-8 8h-264a8 8 0 0 1-8-8z" fill="#fff"/><path d="M5020 1180v-32a8 8 0 0 1 8-8h264a8 8 0 0 1 8 8v32" fill="#dedeff"/><path d="M5020 1148a8 8 0 0 1 8-8h264a8 8 0 0 1 8 8v152a8 8 0 0 1-8 8h-264a8 8 0 0 1-8-8zM5020 1180h280" stroke="#3a414a" fill="none"/><use xlink:href="#Y" transform="matrix(1,0,0,1,5030,1140) translate(0 23.6)"/><use xlink:href="#Z" transform="matrix(1,0,0,1,5025,1182.5) translate(0 17.1)"/><use xlink:href="#c" transform="matrix(1,0,0,1,5025,1182.5) translate(186.64999999999998 17.1)"/><use xlink:href="#d" transform="matrix(1,0,0,1,5025,1182.5) translate(220.2 17.1)"/><use xlink:href="#P" transform="matrix(1,0,0,1,5025,1214.5) translate(0 17.1)"/><use xlink:href="#j" transform="matrix(1,0,0,1,5025,1214.5) translate(64 17.1)"/><use xlink:href="#Q" transform="matrix(1,0,0,1,5025,1246.5) translate(0 17.1)"/><use xlink:href="#I" transform="matrix(1,0,0,1,5025,1246.5) translate(53 17.1)"/><use xlink:href="#m" transform="matrix(1,0,0,1,5025,1278.5) translate(0 17.1)"/><use xlink:href="#c" transform="matrix(1,0,0,1,5025,1278.5) translate(111.80000000000001 17.1)"/><use xlink:href="#l" transform="matrix(1,0,0,1,5025,1278.5) translate(145.35000000000002 17.1)"/><path d="M5020 648a8 8 0 0 1 8-8h184a8 8 0 0 1 8 8v205a8 8 0 0 1-8 8h-184a8 8 0 0 1-8-8z" fill="#fff"/><path d="M5020 680v-32a8 8 0 0 1 8-8h184a8 8 0 0 1 8 8v32" fill="#dedeff"/><path d="M5020 648a8 8 0 0 1 8-8h184a8 8 0 0 1 8 8v205a8 8 0 0 1-8 8h-184a8 8 0 0 1-8-8zM5020 680h200" stroke="#3a414a" fill="none"/><use xlink:href="#aa" transform="matrix(1,0,0,1,5030,640) translate(0 23.6)"/><use xlink:href="#ab" transform="matrix(1,0,0,1,5025,682.5) translate(0 17.1)"/><use xlink:href="#c" transform="matrix(1,0,0,1,5025,682.5) translate(73.85 17.1)"/><use xlink:href="#d" transform="matrix(1,0,0,1,5025,682.5) translate(107.4 17.1)"/><use xlink:href="#F" transform="matrix(1,0,0,1,5025,714.5) translate(0 17.1)"/><use xlink:href="#c" transform="matrix(1,0,0,1,5025,714.5) translate(87.95 17.1)"/><use xlink:href="#l" transform="matrix(1,0,0,1,5025,714.5) translate(121.5 17.1)"/><use xlink:href="#h" transform="matrix(1,0,0,1,5025,746.5) translate(0 17.1)"/><use xlink:href="#c" transform="matrix(1,0,0,1,5025,746.5) translate(82.85000000000001 17.1)"/><use xlink:href="#l" transform="matrix(1,0,0,1,5025,746.5) translate(116.4 17.1)"/><use xlink:href="#ac" transform="matrix(1,0,0,1,5025,778.5) translate(0 17.1)"/><use xlink:href="#I" transform="matrix(1,0,0,1,5025,778.5) translate(49.9 17.1)"/><use xlink:href="#ad" transform="matrix(1,0,0,1,5025,810.5) translate(0 16.799999999999997)"/><use xlink:href="#j" transform="matrix(1,0,0,1,5025,810.5) translate(0 38.4)"/><path d="M4275.6 1368a8 8 0 0 1 8-8h284a8 8 0 0 1 8 8v88a8 8 0 0 1-8 8h-284a8 8 0 0 1-8-8z" fill="#fff"/><path d="M4275.6 1400v-32a8 8 0 0 1 8-8h284a8 8 0 0 1 8 8v32" fill="#dedeff"/><path d="M4275.6 1368a8 8 0 0 1 8-8h284a8 8 0 0 1 8 8v88a8 8 0 0 1-8 8h-284a8 8 0 0 1-8-8zM4275.6 1400h300" stroke="#3a414a" fill="none"/><use xlink:href="#ae" transform="matrix(1,0,0,1,4285.612284754898,1360) translate(0 23.6)"/><use xlink:href="#h" transform="matrix(1,0,0,1,4280.612284754898,1402.5) translate(0 17.1)"/><use xlink:href="#c" transform="matrix(1,0,0,1,4280.612284754898,1402.5) translate(82.85000000000001 17.1)"/><use xlink:href="#af" transform="matrix(1,0,0,1,4280.612284754898,1402.5) translate(116.4 17.1)"/><use xlink:href="#r" transform="matrix(1,0,0,1,4280.612284754898,1434.5) translate(0 17.1)"/><use xlink:href="#c" transform="matrix(1,0,0,1,4280.612284754898,1434.5) translate(177.79999999999998 17.1)"/><use xlink:href="#af" transform="matrix(1,0,0,1,4280.612284754898,1434.5) translate(211.35 17.1)"/><path d="M3520 1024a8 8 0 0 1 8-8h184a8 8 0 0 1 8 8v237a8 8 0 0 1-8 8h-184a8 8 0 0 1-8-8z" fill="#fff"/><path d="M3520 1056v-32a8 8 0 0 1 8-8h184a8 8 0 0 1 8 8v32" fill="#dedeff"/><path d="M3520 1024a8 8 0 0 1 8-8h184a8 8 0 0 1 8 8v237a8 8 0 0 1-8 8h-184a8 8 0 0 1-8-8zM3520 1056h200" stroke="#3a414a" fill="none"/><use xlink:href="#ag" transform="matrix(1,0,0,1,3530,1016) translate(0 23.6)"/><use xlink:href="#F" transform="matrix(1,0,0,1,3525,1058.5) translate(0 16.799999999999997)"/><use xlink:href="#c" transform="matrix(1,0,0,1,3525,1058.5) translate(87.95 16.799999999999997)"/><use xlink:href="#M" transform="matrix(1,0,0,1,3525,1058.5) translate(121.5 16.799999999999997)"/><use xlink:href="#l" transform="matrix(1,0,0,1,3525,1058.5) translate(0 38.4)"/><use xlink:href="#h" transform="matrix(1,0,0,1,3525,1111.5) translate(0 17.1)"/><use xlink:href="#c" transform="matrix(1,0,0,1,3525,1111.5) translate(82.85000000000001 17.1)"/><use xlink:href="#af" transform="matrix(1,0,0,1,3525,1111.5) translate(116.4 17.1)"/><use xlink:href="#o" transform="matrix(1,0,0,1,3525,1143.5) translate(0 17.1)"/><use xlink:href="#p" transform="matrix(1,0,0,1,3525,1143.5) translate(40 17.1)"/><use xlink:href="#C" transform="matrix(1,0,0,1,3525,1175.5) translate(0 17.1)"/><use xlink:href="#c" transform="matrix(1,0,0,1,3525,1175.5) translate(102.80000000000001 17.1)"/><use xlink:href="#l" transform="matrix(1,0,0,1,3525,1175.5) translate(136.35000000000002 17.1)"/><use xlink:href="#W" transform="matrix(1,0,0,1,3525,1207.5) translate(0 17.1)"/><use xlink:href="#ah" transform="matrix(1,0,0,1,3525,1239.5) translate(0 17.1)"/><path d="M3920 1368a8 8 0 0 1 8-8h184a8 8 0 0 1 8 8v120a8 8 0 0 1-8 8h-184a8 8 0 0 1-8-8z" fill="#fff"/><path d="M3920 1400v-32a8 8 0 0 1 8-8h184a8 8 0 0 1 8 8v32" fill="#dedeff"/><path d="M3920 1368a8 8 0 0 1 8-8h184a8 8 0 0 1 8 8v120a8 8 0 0 1-8 8h-184a8 8 0 0 1-8-8zM3920 1400h200" stroke="#3a414a" fill="none"/><use xlink:href="#ai" transform="matrix(1,0,0,1,3930,1360) translate(0 23.6)"/><use xlink:href="#aj" transform="matrix(1,0,0,1,3925,1402.5) translate(0 17.1)"/><use xlink:href="#c" transform="matrix(1,0,0,1,3925,1402.5) translate(84.85000000000001 17.1)"/><use xlink:href="#ak" transform="matrix(1,0,0,1,3925,1402.5) translate(118.4 17.1)"/><use xlink:href="#i" transform="matrix(1,0,0,1,3925,1434.5) translate(0 17.1)"/><use xlink:href="#u" transform="matrix(1,0,0,1,3925,1434.5) translate(42.95 17.1)"/><use xlink:href="#v" transform="matrix(1,0,0,1,3925,1434.5) translate(134.4 17.1)"/><use xlink:href="#C" transform="matrix(1,0,0,1,3925,1466.5) translate(0 17.1)"/><use xlink:href="#c" transform="matrix(1,0,0,1,3925,1466.5) translate(102.80000000000001 17.1)"/><use xlink:href="#l" transform="matrix(1,0,0,1,3925,1466.5) translate(136.35000000000002 17.1)"/><path d="M3899.5 696H3832a12 12 0 0 0-12 12v104a12 12 0 0 1-12 12h-68.1" stroke="#3a414a" fill="none"/><path d="M3899.5 686v20M3919.5 696h-20" stroke="#3a414a" fill="#fff"/><path d="M3720.72 814l20 10-20 10" stroke="#3a414a" fill="#fff" fill-opacity="0"/><path d="M3720.72 824h20" stroke="#3a414a" fill="#fff"/><path d="M4120.5 696h67.5a12 12 0 0 1 12 12v136a12 12 0 0 0 12 12h68.1" stroke="#3a414a" fill="none"/><path d="M4120.5 706v-20M4100.5 696h20" stroke="#3a414a" fill="#fff"/><path d="M4299.28 866l-20-10 20-10" stroke="#3a414a" fill="#fff" fill-opacity="0"/><path d="M4299.28 856h-20" stroke="#3a414a" fill="#fff"/><path d="M3740.5 696a1 1 0 0 0 1-1V592a12 12 0 0 1 12-12h928.6a12 12 0 0 1 12 12v102.03a1.6 1.6 0 0 0 1.6 1.6" stroke="#3a414a" fill="none"/><path d="M3740.5 706v-20M3720.5 696h20" stroke="#3a414a" fill="#fff"/><path d="M4714.9 705.62l-20-10 20-10" stroke="#3a414a" fill="#fff" fill-opacity="0"/><path d="M4714.9 695.62h-20" stroke="#3a414a" fill="#fff"/><path d="M4536.1 696h67.5a12 12 0 0 1 12 12v7.97a12 12 0 0 0 12 12h68.1" stroke="#3a414a" fill="none"/><path d="M4536.1 706v-20M4516.1 696h20" stroke="#3a414a" fill="#fff"/><path d="M4714.9 737.97l-20-10 20-10" stroke="#3a414a" fill="#fff" fill-opacity="0"/><path d="M4714.9 727.97h-20" stroke="#3a414a" fill="#fff"/><path d="M3499.5 696h-8a12 12 0 0 1-12-12V532a12 12 0 0 1 12-12h1757a12 12 0 0 1 12 12v183.9a12 12 0 0 1-12 12h-8.6" stroke="#3a414a" fill="none"/><path d="M3499.5 686v20M3519.5 696h-20" stroke="#3a414a" fill="#fff"/><path d="M5220.72 717.9l20 10-20 10" stroke="#3a414a" fill="#fff" fill-opacity="0"/><path d="M5220.72 727.9h20" stroke="#3a414a" fill="#fff"/><path d="M4536.1 696h8a12 12 0 0 0 12-12v-16.35a12 12 0 0 1 12-12h79.9a12 12 0 0 1 12 12V844.4a12 12 0 0 0 12 12h276a12 12 0 0 0 12-12v-72.35a12 12 0 0 1 12-12h28.1" stroke="#3a414a" fill="none"/><path d="M4536.1 706v-20M4516.1 696h20" stroke="#3a414a" fill="#fff"/><path d="M5019.28 770.05l-20-10 20-10" stroke="#3a414a" fill="#fff" fill-opacity="0"/><path d="M5019.28 760.05h-20" stroke="#3a414a" fill="#fff"/><path d="M4695.1 959.97h-423.6a12 12 0 0 1-12-12V772a12 12 0 0 1 12-12h8.6" stroke="#3a414a" fill="none"/><path d="M4695.1 949.97v20M4715.1 959.97h-20" stroke="#3a414a" fill="#fff"/><path d="M4299.28 770l-20-10 20-10" stroke="#3a414a" fill="#fff" fill-opacity="0"/><path d="M4299.28 760h-20" stroke="#3a414a" fill="#fff"/><path d="M5240.5 960h8a12 12 0 0 1 12 12v106a12 12 0 0 1-12 12H4582a12 12 0 0 1-12-12V804a12 12 0 0 0-12-12h-22.48" stroke="#3a414a" fill="none"/><path d="M5240.5 970v-20M5220.5 960h20" stroke="#3a414a" fill="#fff"/><path d="M4516.34 782l20 10-20 10" stroke="#3a414a" fill="#fff" fill-opacity="0"/><path d="M4516.34 792h20" stroke="#3a414a" fill="#fff"/><path d="M4695.1 959.97H4652a12 12 0 0 0-12 12v329.36a12 12 0 0 0 12 12h48.1" stroke="#3a414a" fill="none"/><path d="M4695.1 949.97v20M4715.1 959.97h-20" stroke="#3a414a" fill="#fff"/><path d="M4719.28 1323.33l-20-10 20-10" stroke="#3a414a" fill="#fff" fill-opacity="0"/><path d="M4719.28 1313.33h-20" stroke="#3a414a" fill="#fff"/><path d="M5240.5 960h8a12 12 0 0 0 12-12v-16.1a12 12 0 0 1 12-12h75.5a12 12 0 0 1 12 12v348.34a12 12 0 0 1-12 12h-28.1" stroke="#3a414a" fill="none"/><path d="M5240.5 970v-20M5220.5 960h20" stroke="#3a414a" fill="#fff"/><path d="M5300.72 1282.24l20 10-20 10" stroke="#3a414a" fill="#fff" fill-opacity="0"/><path d="M5300.72 1292.24h20" stroke="#3a414a" fill="#fff"/><path d="M4255.7 1416h-8.6a12 12 0 0 1-12-12V707.65a12 12 0 0 1 12-12h33" stroke="#3a414a" fill="none"/><path d="M4274.9 1426l-20-10 20-10" stroke="#3a414a" fill="#fff" fill-opacity="0"/><path d="M4274.9 1416h-20" stroke="#3a414a" fill="#fff"/><path d="M4299.28 705.65l-20-10 20-10" stroke="#3a414a" fill="#fff" fill-opacity="0"/><path d="M4299.28 695.65h-20" stroke="#3a414a" fill="#fff"/><path d="M4536.1 1106.38h68a12 12 0 0 1 12 12V1436a12 12 0 0 1-12 12h-8.58" stroke="#3a414a" fill="none"/><path d="M4516.34 1096.38l20 10-20 10" stroke="#3a414a" fill="#fff" fill-opacity="0"/><path d="M4516.34 1106.38h20M4536.34 1116.38v-20" stroke="#3a414a" fill="#fff"/><path d="M4576.34 1438l20 10-20 10" stroke="#3a414a" fill="#fff" fill-opacity="0"/><path d="M4576.34 1448h20" stroke="#3a414a" fill="#fff"/><path d="M3899.5 935.94h-8a12 12 0 0 0-12 12v246.56a12 12 0 0 0 12 12h8.6" stroke="#3a414a" fill="none"/><path d="M3919.28 945.94l-20-10 20-10" stroke="#3a414a" fill="#fff" fill-opacity="0"/><path d="M3919.28 935.94h-20M3899.28 925.94v20" stroke="#3a414a" fill="#fff"/><path d="M3919.28 1216.5l-20-10 20-10" stroke="#3a414a" fill="#fff" fill-opacity="0"/><path d="M3919.28 1206.5h-20" stroke="#3a414a" fill="#fff"/><path d="M4279.5 695.65a1 1 0 0 1-1-1V632a12 12 0 0 0-12-12H3862a12 12 0 0 0-12 12v655.5a12 12 0 0 0 12 12h5.5a12 12 0 0 0 12-12v-16a12 12 0 0 1 12-12h8.6" stroke="#3a414a" fill="none"/><path d="M4279.5 685.65v20M4299.5 695.65h-20" stroke="#3a414a" fill="#fff"/><path d="M3919.28 1269.5l-20-10 20-10" stroke="#3a414a" fill="#fff" fill-opacity="0"/><path d="M3919.28 1259.5h-20" stroke="#3a414a" fill="#fff"/><path d="M4140.5 935.94h8a12 12 0 0 1 12 12v520.32a12 12 0 0 1-12 12h-8.6" stroke="#3a414a" fill="none"/><path d="M4140.5 945.94v-20M4120.5 935.94h20" stroke="#3a414a" fill="#fff"/><path d="M4120.72 1470.26l20 10-20 10" stroke="#3a414a" fill="#fff" fill-opacity="0"/><path d="M4120.72 1480.26h20" stroke="#3a414a" fill="#fff"/><path d="M3499.5 696h-8a12 12 0 0 0-12 12v362.5a12 12 0 0 0 12 12h8.6" stroke="#3a414a" fill="none"/><path d="M3499.5 686v20M3519.5 696h-20" stroke="#3a414a" fill="#fff"/><path d="M3519.28 1092.5l-20-10 20-10" stroke="#3a414a" fill="#fff" fill-opacity="0"/><path d="M3519.28 1082.5h-20" stroke="#3a414a" fill="#fff"/><path d="M4279.5 695.65h-32.4a12 12 0 0 1-12-12V482a12 12 0 0 0-12-12H3442a12 12 0 0 0-12 12v631a12 12 0 0 0 12 12h58.1" stroke="#3a414a" fill="none"/><path d="M4279.5 685.65v20M4299.5 695.65h-20" stroke="#3a414a" fill="#fff"/><path d="M3519.28 1135l-20-10 20-10" stroke="#3a414a" fill="#fff" fill-opacity="0"/><path d="M3519.28 1125h-20" stroke="#3a414a" fill="#fff"/><path d="M3500.1 1400h-8.6a12 12 0 0 0-12 12v176a12 12 0 0 0 12 12H4988a12 12 0 0 0 12-12V971.97a12 12 0 0 0-12-12h-36.27" stroke="#3a414a" fill="none"/><path d="M3519.28 1410l-20-10 20-10" stroke="#3a414a" fill="#fff" fill-opacity="0"/><path d="M3519.28 1400h-20M4951.73 969.97v-20M4931.73 959.97h20" stroke="#3a414a" fill="#fff"/><path d="M3499.5 696h-8a12 12 0 0 1-12-12v-16.38a12 12 0 0 0-12-12H3382a12 12 0 0 0-12 12V1356a12 12 0 0 0 12 12h118.1" stroke="#3a414a" fill="none"/><path d="M3499.5 686v20M3519.5 696h-20" stroke="#3a414a" fill="#fff"/><path d="M3519.28 1378l-20-10 20-10" stroke="#3a414a" fill="#fff" fill-opacity="0"/><path d="M3519.28 1368h-20" stroke="#3a414a" fill="#fff"/><path d="M2859.4 518.32h35.6a5 5 0 0 1 5 5 5 5 0 0 0 5 5h35.6" stroke="#3a414a" fill="none"/><path d="M2840.22 508.32l20 10-20 10" stroke="#3a414a" fill="#fff" fill-opacity="0"/><path d="M2840.22 518.32h20" stroke="#3a414a" fill="#fff"/><path d="M2959.78 538.32l-20-10 20-10" stroke="#3a414a" fill="#fff" fill-opacity="0"/><path d="M2959.78 528.32h-20" stroke="#3a414a" fill="#fff"/><path d="M2960 506.32a8 8 0 0 1 8-8h224a8 8 0 0 1 8 8v44a8 8 0 0 1-8 8h-224a8 8 0 0 1-8-8z" stroke="#000" stroke-opacity="0" fill="#fff" fill-opacity="0"/><g><use xlink:href="#al" transform="matrix(1,0,0,1,2965,503.3216437700935) translate(0 30.025)"/><use xlink:href="#am" transform="matrix(1,0,0,1,2965,503.3216437700935) translate(24.950000000000003 30.025)"/></g><path d="M2840 634.32h43a7 7 0 0 1 7 7 7 7 0 0 0 7 7h23.6M2840.5 619.32v30" stroke="#3a414a" fill="none"/><path d="M2939.78 658.32l-20-10 20-10" stroke="#3a414a" fill="#fff" fill-opacity="0"/><path d="M2939.78 648.32h-20" stroke="#3a414a" fill="#fff"/><path d="M2940 626.32a8 8 0 0 1 8-8h224a8 8 0 0 1 8 8v44a8 8 0 0 1-8 8h-224a8 8 0 0 1-8-8z" stroke="#000" stroke-opacity="0" fill="#fff" fill-opacity="0"/><g><use xlink:href="#an" transform="matrix(1,0,0,1,2945,623.3216437700935) translate(0 30.025)"/><use xlink:href="#ao" transform="matrix(1,0,0,1,2945,623.3216437700935) translate(15 30.025)"/><use xlink:href="#am" transform="matrix(1,0,0,1,2945,623.3216437700935) translate(25 30.025)"/></g><defs><path fill="#3a414a" d="M115-194c53 0 69 39 70 98 0 66-23 100-70 100C84 3 66-7 56-30L54 0H23l1-261h32v101c10-23 28-34 59-34zm-8 174c40 0 45-34 45-75 0-40-5-75-45-74-42 0-51 32-51 76 0 43 10 73 51 73" id="ap"/><path fill="#3a414a" d="M141-36C126-15 110 5 73 4 37 3 15-17 15-53c-1-64 63-63 125-63 3-35-9-54-41-54-24 1-41 7-42 31l-33-3c5-37 33-52 76-52 45 0 72 20 72 64v82c-1 20 7 32 28 27v20c-31 9-61-2-59-35zM48-53c0 20 12 33 32 33 41-3 63-29 60-74-43 2-92-5-92 41" id="aq"/><path fill="#3a414a" d="M59-47c-2 24 18 29 38 22v24C64 9 27 4 27-40v-127H5v-23h24l9-43h21v43h35v23H59v120" id="ar"/><path fill="#3a414a" d="M96-169c-40 0-48 33-48 73s9 75 48 75c24 0 41-14 43-38l32 2c-6 37-31 61-74 61-59 0-76-41-82-99-10-93 101-131 147-64 4 7 5 14 7 22l-32 3c-4-21-16-35-41-35" id="as"/><path fill="#3a414a" d="M106-169C34-169 62-67 57 0H25v-261h32l-1 103c12-21 28-36 61-36 89 0 53 116 60 194h-32v-121c2-32-8-49-39-48" id="at"/><g id="a"><use transform="matrix(0.05,0,0,0.05,0,0)" xlink:href="#ap"/><use transform="matrix(0.05,0,0,0.05,10,0)" xlink:href="#aq"/><use transform="matrix(0.05,0,0,0.05,20,0)" xlink:href="#ar"/><use transform="matrix(0.05,0,0,0.05,25,0)" xlink:href="#as"/><use transform="matrix(0.05,0,0,0.05,34,0)" xlink:href="#at"/></g><path fill="#3a414a" d="M-5 72V49h209v23H-5" id="au"/><path fill="#3a414a" d="M24-231v-30h32v30H24zM24 0v-190h32V0H24" id="av"/><path fill="#3a414a" d="M85-194c31 0 48 13 60 33l-1-100h32l1 261h-30c-2-10 0-23-3-31C134-8 116 4 85 4 32 4 16-35 15-94c0-66 23-100 70-100zm9 24c-40 0-46 34-46 75 0 40 6 74 45 74 42 0 51-32 51-76 0-42-9-74-50-73" id="aw"/><g id="b"><use transform="matrix(0.05,0,0,0.05,0,0)" xlink:href="#ap"/><use transform="matrix(0.05,0,0,0.05,10,0)" xlink:href="#aq"/><use transform="matrix(0.05,0,0,0.05,20,0)" xlink:href="#ar"/><use transform="matrix(0.05,0,0,0.05,25,0)" xlink:href="#as"/><use transform="matrix(0.05,0,0,0.05,34,0)" xlink:href="#at"/><use transform="matrix(0.05,0,0,0.05,44,0)" xlink:href="#au"/><use transform="matrix(0.05,0,0,0.05,54,0)" xlink:href="#av"/><use transform="matrix(0.05,0,0,0.05,57.95,0)" xlink:href="#aw"/></g><path fill="#3a414a" d="M33 0v-248h34V0H33" id="ax"/><path fill="#3a414a" d="M190 0L58-211 59 0H30v-248h39L202-35l-2-213h31V0h-41" id="ay"/><path fill="#3a414a" d="M127-220V0H93v-220H8v-28h204v28h-85" id="az"/><g id="c"><use transform="matrix(0.05,0,0,0.05,0,0)" xlink:href="#ax"/><use transform="matrix(0.05,0,0,0.05,5,0)" xlink:href="#ay"/><use transform="matrix(0.05,0,0,0.05,17.950000000000003,0)" xlink:href="#az"/></g><path fill="#3a414a" d="M87 75C49 33 22-17 22-94c0-76 28-126 65-167h31c-38 41-64 92-64 168S80 34 118 75H87" id="aA"/><path fill="#3a414a" d="M30-248c87 1 191-15 191 75 0 78-77 80-158 76V0H30v-248zm33 125c57 0 124 11 124-50 0-59-68-47-124-48v98" id="aB"/><path fill="#3a414a" d="M194 0L95-120 63-95V0H30v-248h33v124l119-124h40L117-140 236 0h-42" id="aC"/><path fill="#3a414a" d="M33-261c38 41 65 92 65 168S71 34 33 75H2C39 34 66-17 66-93S39-220 2-261h31" id="aD"/><g id="d"><use transform="matrix(0.05,0,0,0.05,0,0)" xlink:href="#aA"/><use transform="matrix(0.05,0,0,0.05,5.95,0)" xlink:href="#aB"/><use transform="matrix(0.05,0,0,0.05,17.95,0)" xlink:href="#aC"/><use transform="matrix(0.05,0,0,0.05,29.950000000000003,0)" xlink:href="#aD"/></g><path fill="#3a414a" d="M117-194c89-4 53 116 60 194h-32v-121c0-31-8-49-39-48C34-167 62-67 57 0H25l-1-190h30c1 10-1 24 2 32 11-22 29-35 61-36" id="aE"/><path fill="#3a414a" d="M210-169c-67 3-38 105-44 169h-31v-121c0-29-5-50-35-48C34-165 62-65 56 0H25l-1-190h30c1 10-1 24 2 32 10-44 99-50 107 0 11-21 27-35 58-36 85-2 47 119 55 194h-31v-121c0-29-5-49-35-48" id="aF"/><path fill="#3a414a" d="M100-194c63 0 86 42 84 106H49c0 40 14 67 53 68 26 1 43-12 49-29l28 8c-11 28-37 45-77 45C44 4 14-33 15-96c1-61 26-98 85-98zm52 81c6-60-76-77-97-28-3 7-6 17-6 28h103" id="aG"/><g id="e"><use transform="matrix(0.05,0,0,0.05,0,0)" xlink:href="#aE"/><use transform="matrix(0.05,0,0,0.05,10,0)" xlink:href="#aq"/><use transform="matrix(0.05,0,0,0.05,20,0)" xlink:href="#aF"/><use transform="matrix(0.05,0,0,0.05,34.95,0)" xlink:href="#aG"/></g><path fill="#3a414a" d="M137 0h-34L2-248h35l83 218 83-218h36" id="aH"/><path fill="#3a414a" d="M205 0l-28-72H64L36 0H1l101-248h38L239 0h-34zm-38-99l-47-123c-12 45-31 82-46 123h93" id="aI"/><path fill="#3a414a" d="M233-177c-1 41-23 64-60 70L243 0h-38l-65-103H63V0H30v-248c88 3 205-21 203 71zM63-129c60-2 137 13 137-47 0-61-80-42-137-45v92" id="aJ"/><path fill="#3a414a" d="M212-179c-10-28-35-45-73-45-59 0-87 40-87 99 0 60 29 101 89 101 43 0 62-24 78-52l27 14C228-24 195 4 139 4 59 4 22-46 18-125c-6-104 99-153 187-111 19 9 31 26 39 46" id="aK"/><path fill="#3a414a" d="M197 0v-115H63V0H30v-248h33v105h134v-105h34V0h-34" id="aL"/><path fill="#3a414a" d="M27 0v-27h64v-190l-56 39v-29l58-41h29v221h61V0H27" id="aM"/><path fill="#3a414a" d="M54-142c48-35 137-8 131 61C196 18 31 33 14-55l32-4c7 23 22 37 52 37 35-1 51-22 54-58 4-55-73-65-99-34H22l8-134h141v27H59" id="aN"/><g id="f"><use transform="matrix(0.05,0,0,0.05,0,0)" xlink:href="#aH"/><use transform="matrix(0.05,0,0,0.05,10.65,0)" xlink:href="#aI"/><use transform="matrix(0.05,0,0,0.05,22.65,0)" xlink:href="#aJ"/><use transform="matrix(0.05,0,0,0.05,35.6,0)" xlink:href="#aK"/><use transform="matrix(0.05,0,0,0.05,48.550000000000004,0)" xlink:href="#aL"/><use transform="matrix(0.05,0,0,0.05,61.5,0)" xlink:href="#aI"/><use transform="matrix(0.05,0,0,0.05,73.5,0)" xlink:href="#aJ"/><use transform="matrix(0.05,0,0,0.05,86.45,0)" xlink:href="#aA"/><use transform="matrix(0.05,0,0,0.05,92.4,0)" xlink:href="#aM"/><use transform="matrix(0.05,0,0,0.05,102.4,0)" xlink:href="#aN"/><use transform="matrix(0.05,0,0,0.05,112.4,0)" xlink:href="#aD"/></g><path fill="#3a414a" d="M24 0v-261h32V0H24" id="aO"/><path fill="#3a414a" d="M84 4C-5 8 30-112 23-190h32v120c0 31 7 50 39 49 72-2 45-101 50-169h31l1 190h-30c-1-10 1-25-2-33-11 22-28 36-60 37" id="aP"/><path fill="#3a414a" d="M114-163C36-179 61-72 57 0H25l-1-190h30c1 12-1 29 2 39 6-27 23-49 58-41v29" id="aQ"/><g id="g"><use transform="matrix(0.05,0,0,0.05,0,0)" xlink:href="#aO"/><use transform="matrix(0.05,0,0,0.05,3.95,0)" xlink:href="#aG"/><use transform="matrix(0.05,0,0,0.05,13.949999999999998,0)" xlink:href="#as"/><use transform="matrix(0.05,0,0,0.05,22.95,0)" xlink:href="#ar"/><use transform="matrix(0.05,0,0,0.05,27.950000000000003,0)" xlink:href="#aP"/><use transform="matrix(0.05,0,0,0.05,37.95,0)" xlink:href="#aQ"/><use transform="matrix(0.05,0,0,0.05,43.900000000000006,0)" xlink:href="#aG"/></g><g id="h"><use transform="matrix(0.05,0,0,0.05,0,0)" xlink:href="#aO"/><use transform="matrix(0.05,0,0,0.05,3.95,0)" xlink:href="#aG"/><use transform="matrix(0.05,0,0,0.05,13.949999999999998,0)" xlink:href="#as"/><use transform="matrix(0.05,0,0,0.05,22.95,0)" xlink:href="#ar"/><use transform="matrix(0.05,0,0,0.05,27.950000000000003,0)" xlink:href="#aP"/><use transform="matrix(0.05,0,0,0.05,37.95,0)" xlink:href="#aQ"/><use transform="matrix(0.05,0,0,0.05,43.900000000000006,0)" xlink:href="#aG"/><use transform="matrix(0.05,0,0,0.05,53.900000000000006,0)" xlink:href="#au"/><use transform="matrix(0.05,0,0,0.05,63.900000000000006,0)" xlink:href="#av"/><use transform="matrix(0.05,0,0,0.05,67.85000000000001,0)" xlink:href="#aw"/></g><path fill="#3a414a" d="M100-194c62-1 85 37 85 99 1 63-27 99-86 99S16-35 15-95c0-66 28-99 85-99zM99-20c44 1 53-31 53-75 0-43-8-75-51-75s-53 32-53 75 10 74 51 75" id="aR"/><path fill="#3a414a" d="M115-194c55 1 70 41 70 98S169 2 115 4C84 4 66-9 55-30l1 105H24l-1-265h31l2 30c10-21 28-34 59-34zm-8 174c40 0 45-34 45-75s-6-73-45-74c-42 0-51 32-51 76 0 43 10 73 51 73" id="aS"/><g id="i"><use transform="matrix(0.05,0,0,0.05,0,0)" xlink:href="#ar"/><use transform="matrix(0.05,0,0,0.05,5,0)" xlink:href="#aR"/><use transform="matrix(0.05,0,0,0.05,15,0)" xlink:href="#aS"/><use transform="matrix(0.05,0,0,0.05,25,0)" xlink:href="#av"/><use transform="matrix(0.05,0,0,0.05,28.950000000000003,0)" xlink:href="#as"/></g><path fill="#3a414a" d="M101-251c68 0 85 55 85 127S166 4 100 4C33 4 14-52 14-124c0-73 17-127 87-127zm-1 229c47 0 54-49 54-102s-4-102-53-102c-51 0-55 48-55 102 0 53 5 102 54 102" id="aT"/><g id="j"><use transform="matrix(0.05,0,0,0.05,0,0)" xlink:href="#aH"/><use transform="matrix(0.05,0,0,0.05,10.65,0)" xlink:href="#aI"/><use transform="matrix(0.05,0,0,0.05,22.65,0)" xlink:href="#aJ"/><use transform="matrix(0.05,0,0,0.05,35.6,0)" xlink:href="#aK"/><use transform="matrix(0.05,0,0,0.05,48.550000000000004,0)" xlink:href="#aL"/><use transform="matrix(0.05,0,0,0.05,61.5,0)" xlink:href="#aI"/><use transform="matrix(0.05,0,0,0.05,73.5,0)" xlink:href="#aJ"/><use transform="matrix(0.05,0,0,0.05,86.45,0)" xlink:href="#aA"/><use transform="matrix(0.05,0,0,0.05,92.4,0)" xlink:href="#aN"/><use transform="matrix(0.05,0,0,0.05,102.4,0)" xlink:href="#aT"/><use transform="matrix(0.05,0,0,0.05,112.4,0)" xlink:href="#aD"/></g><path fill="#3a414a" d="M135-143c-3-34-86-38-87 0 15 53 115 12 119 90S17 21 10-45l28-5c4 36 97 45 98 0-10-56-113-15-118-90-4-57 82-63 122-42 12 7 21 19 24 35" id="aU"/><path fill="#3a414a" d="M177-190C167-65 218 103 67 71c-23-6-38-20-44-43l32-5c15 47 100 32 89-28v-30C133-14 115 1 83 1 29 1 15-40 15-95c0-56 16-97 71-98 29-1 48 16 59 35 1-10 0-23 2-32h30zM94-22c36 0 50-32 50-73 0-42-14-75-50-75-39 0-46 34-46 75s6 73 46 73" id="aV"/><g id="k"><use transform="matrix(0.05,0,0,0.05,0,0)" xlink:href="#aq"/><use transform="matrix(0.05,0,0,0.05,10,0)" xlink:href="#aU"/><use transform="matrix(0.05,0,0,0.05,19,0)" xlink:href="#aU"/><use transform="matrix(0.05,0,0,0.05,28,0)" xlink:href="#av"/><use transform="matrix(0.05,0,0,0.05,31.950000000000003,0)" xlink:href="#aV"/><use transform="matrix(0.05,0,0,0.05,41.95,0)" xlink:href="#aE"/><use transform="matrix(0.05,0,0,0.05,51.95,0)" xlink:href="#aF"/><use transform="matrix(0.05,0,0,0.05,66.9,0)" xlink:href="#aG"/><use transform="matrix(0.05,0,0,0.05,76.9,0)" xlink:href="#aE"/><use transform="matrix(0.05,0,0,0.05,86.9,0)" xlink:href="#ar"/><use transform="matrix(0.05,0,0,0.05,91.9,0)" xlink:href="#au"/><use transform="matrix(0.05,0,0,0.05,101.9,0)" xlink:href="#av"/><use transform="matrix(0.05,0,0,0.05,105.85000000000001,0)" xlink:href="#aw"/></g><path fill="#3a414a" d="M63-220v92h138v28H63V0H30v-248h175v28H63" id="aW"/><g id="l"><use transform="matrix(0.05,0,0,0.05,0,0)" xlink:href="#aA"/><use transform="matrix(0.05,0,0,0.05,5.95,0)" xlink:href="#aW"/><use transform="matrix(0.05,0,0,0.05,16.900000000000002,0)" xlink:href="#aC"/><use transform="matrix(0.05,0,0,0.05,28.900000000000002,0)" xlink:href="#aD"/></g><path fill="#3a414a" d="M206 0h-36l-40-164L89 0H53L-1-190h32L70-26l43-164h34l41 164 42-164h31" id="aX"/><path fill="#3a414a" d="M143 0L79-87 56-68V0H24v-261h32v163l83-92h37l-77 82L181 0h-38" id="aY"/><g id="m"><use transform="matrix(0.05,0,0,0.05,0,0)" xlink:href="#at"/><use transform="matrix(0.05,0,0,0.05,10,0)" xlink:href="#aR"/><use transform="matrix(0.05,0,0,0.05,20,0)" xlink:href="#aF"/><use transform="matrix(0.05,0,0,0.05,34.95,0)" xlink:href="#aG"/><use transform="matrix(0.05,0,0,0.05,44.95,0)" xlink:href="#aX"/><use transform="matrix(0.05,0,0,0.05,57.900000000000006,0)" xlink:href="#aR"/><use transform="matrix(0.05,0,0,0.05,67.9,0)" xlink:href="#aQ"/><use transform="matrix(0.05,0,0,0.05,73.85000000000001,0)" xlink:href="#aY"/><use transform="matrix(0.05,0,0,0.05,82.85000000000001,0)" xlink:href="#au"/><use transform="matrix(0.05,0,0,0.05,92.85000000000001,0)" xlink:href="#av"/><use transform="matrix(0.05,0,0,0.05,96.80000000000001,0)" xlink:href="#aw"/></g><g id="n"><use transform="matrix(0.05,0,0,0.05,0,0)" xlink:href="#aE"/><use transform="matrix(0.05,0,0,0.05,10,0)" xlink:href="#aR"/><use transform="matrix(0.05,0,0,0.05,20,0)" xlink:href="#ar"/><use transform="matrix(0.05,0,0,0.05,25,0)" xlink:href="#aG"/><use transform="matrix(0.05,0,0,0.05,35,0)" xlink:href="#au"/><use transform="matrix(0.05,0,0,0.05,45,0)" xlink:href="#aP"/><use transform="matrix(0.05,0,0,0.05,55,0)" xlink:href="#aQ"/><use transform="matrix(0.05,0,0,0.05,60.95,0)" xlink:href="#aO"/></g><g id="o"><use transform="matrix(0.05,0,0,0.05,0,0)" xlink:href="#aw"/><use transform="matrix(0.05,0,0,0.05,10,0)" xlink:href="#aq"/><use transform="matrix(0.05,0,0,0.05,20,0)" xlink:href="#ar"/><use transform="matrix(0.05,0,0,0.05,25,0)" xlink:href="#aG"/></g><path fill="#3a414a" d="M30-248c118-7 216 8 213 122C240-48 200 0 122 0H30v-248zM63-27c89 8 146-16 146-99s-60-101-146-95v194" id="aZ"/><path fill="#3a414a" d="M30 0v-248h187v28H63v79h144v27H63v87h162V0H30" id="ba"/><g id="p"><use transform="matrix(0.05,0,0,0.05,0,0)" xlink:href="#aZ"/><use transform="matrix(0.05,0,0,0.05,12.950000000000001,0)" xlink:href="#aI"/><use transform="matrix(0.05,0,0,0.05,23.6,0)" xlink:href="#az"/><use transform="matrix(0.05,0,0,0.05,34.550000000000004,0)" xlink:href="#ba"/></g><g id="q"><use transform="matrix(0.05,0,0,0.05,0,0)" xlink:href="#aS"/><use transform="matrix(0.05,0,0,0.05,10,0)" xlink:href="#aQ"/><use transform="matrix(0.05,0,0,0.05,15.949999999999998,0)" xlink:href="#aG"/><use transform="matrix(0.05,0,0,0.05,25.950000000000003,0)" xlink:href="#aO"/><use transform="matrix(0.05,0,0,0.05,29.899999999999995,0)" xlink:href="#aG"/><use transform="matrix(0.05,0,0,0.05,39.9,0)" xlink:href="#as"/><use transform="matrix(0.05,0,0,0.05,48.9,0)" xlink:href="#ar"/><use transform="matrix(0.05,0,0,0.05,53.900000000000006,0)" xlink:href="#aP"/><use transform="matrix(0.05,0,0,0.05,63.900000000000006,0)" xlink:href="#aQ"/><use transform="matrix(0.05,0,0,0.05,69.85,0)" xlink:href="#aG"/><use transform="matrix(0.05,0,0,0.05,79.85,0)" xlink:href="#au"/><use transform="matrix(0.05,0,0,0.05,89.85,0)" xlink:href="#as"/><use transform="matrix(0.05,0,0,0.05,98.85,0)" xlink:href="#aR"/><use transform="matrix(0.05,0,0,0.05,108.84999999999998,0)" xlink:href="#aE"/><use transform="matrix(0.05,0,0,0.05,118.84999999999998,0)" xlink:href="#ar"/><use transform="matrix(0.05,0,0,0.05,123.84999999999998,0)" xlink:href="#aG"/><use transform="matrix(0.05,0,0,0.05,133.85,0)" xlink:href="#aE"/><use transform="matrix(0.05,0,0,0.05,143.85,0)" xlink:href="#ar"/></g><g id="r"><use transform="matrix(0.05,0,0,0.05,0,0)" xlink:href="#aS"/><use transform="matrix(0.05,0,0,0.05,10,0)" xlink:href="#aQ"/><use transform="matrix(0.05,0,0,0.05,15.949999999999998,0)" xlink:href="#aG"/><use transform="matrix(0.05,0,0,0.05,25.950000000000003,0)" xlink:href="#aO"/><use transform="matrix(0.05,0,0,0.05,29.899999999999995,0)" xlink:href="#aG"/><use transform="matrix(0.05,0,0,0.05,39.9,0)" xlink:href="#as"/><use transform="matrix(0.05,0,0,0.05,48.9,0)" xlink:href="#ar"/><use transform="matrix(0.05,0,0,0.05,53.900000000000006,0)" xlink:href="#aP"/><use transform="matrix(0.05,0,0,0.05,63.900000000000006,0)" xlink:href="#aQ"/><use transform="matrix(0.05,0,0,0.05,69.85,0)" xlink:href="#aG"/><use transform="matrix(0.05,0,0,0.05,79.85,0)" xlink:href="#au"/><use transform="matrix(0.05,0,0,0.05,89.85,0)" xlink:href="#as"/><use transform="matrix(0.05,0,0,0.05,98.85,0)" xlink:href="#aR"/><use transform="matrix(0.05,0,0,0.05,108.84999999999998,0)" xlink:href="#aE"/><use transform="matrix(0.05,0,0,0.05,118.84999999999998,0)" xlink:href="#ar"/><use transform="matrix(0.05,0,0,0.05,123.84999999999998,0)" xlink:href="#aG"/><use transform="matrix(0.05,0,0,0.05,133.85,0)" xlink:href="#aE"/><use transform="matrix(0.05,0,0,0.05,143.85,0)" xlink:href="#ar"/><use transform="matrix(0.05,0,0,0.05,148.85,0)" xlink:href="#au"/><use transform="matrix(0.05,0,0,0.05,158.85,0)" xlink:href="#av"/><use transform="matrix(0.05,0,0,0.05,162.79999999999998,0)" xlink:href="#aw"/></g><g id="s"><use transform="matrix(0.05,0,0,0.05,0,0)" xlink:href="#ax"/><use transform="matrix(0.05,0,0,0.05,5,0)" xlink:href="#ay"/><use transform="matrix(0.05,0,0,0.05,17.950000000000003,0)" xlink:href="#az"/></g><g id="t"><use transform="matrix(0.05,0,0,0.05,0,0)" xlink:href="#as"/><use transform="matrix(0.05,0,0,0.05,9,0)" xlink:href="#aR"/><use transform="matrix(0.05,0,0,0.05,19,0)" xlink:href="#aE"/><use transform="matrix(0.05,0,0,0.05,29,0)" xlink:href="#ar"/><use transform="matrix(0.05,0,0,0.05,34,0)" xlink:href="#aG"/><use transform="matrix(0.05,0,0,0.05,44,0)" xlink:href="#aE"/><use transform="matrix(0.05,0,0,0.05,54,0)" xlink:href="#ar"/><use transform="matrix(0.05,0,0,0.05,59,0)" xlink:href="#au"/><use transform="matrix(0.05,0,0,0.05,69,0)" xlink:href="#aP"/><use transform="matrix(0.05,0,0,0.05,79,0)" xlink:href="#aQ"/><use transform="matrix(0.05,0,0,0.05,84.95,0)" xlink:href="#aO"/></g><g id="u"><use transform="matrix(0.05,0,0,0.05,0,0)" xlink:href="#aH"/><use transform="matrix(0.05,0,0,0.05,10.65,0)" xlink:href="#aI"/><use transform="matrix(0.05,0,0,0.05,22.65,0)" xlink:href="#aJ"/><use transform="matrix(0.05,0,0,0.05,35.6,0)" xlink:href="#aK"/><use transform="matrix(0.05,0,0,0.05,48.550000000000004,0)" xlink:href="#aL"/><use transform="matrix(0.05,0,0,0.05,61.5,0)" xlink:href="#aI"/><use transform="matrix(0.05,0,0,0.05,73.5,0)" xlink:href="#aJ"/></g><g id="v"><use transform="matrix(0.05,0,0,0.05,0,0)" xlink:href="#aA"/><use transform="matrix(0.05,0,0,0.05,5.95,0)" xlink:href="#aN"/><use transform="matrix(0.05,0,0,0.05,15.949999999999998,0)" xlink:href="#aT"/><use transform="matrix(0.05,0,0,0.05,25.950000000000003,0)" xlink:href="#aD"/></g><path fill="#3a414a" d="M179-190L93 31C79 59 56 82 12 73V49c39 6 53-20 64-50L1-190h34L92-34l54-156h33" id="bb"/><g id="w"><use transform="matrix(0.05,0,0,0.05,0,0)" xlink:href="#as"/><use transform="matrix(0.05,0,0,0.05,9,0)" xlink:href="#aR"/><use transform="matrix(0.05,0,0,0.05,19,0)" xlink:href="#aE"/><use transform="matrix(0.05,0,0,0.05,29,0)" xlink:href="#ar"/><use transform="matrix(0.05,0,0,0.05,34,0)" xlink:href="#aG"/><use transform="matrix(0.05,0,0,0.05,44,0)" xlink:href="#aE"/><use transform="matrix(0.05,0,0,0.05,54,0)" xlink:href="#ar"/><use transform="matrix(0.05,0,0,0.05,59,0)" xlink:href="#au"/><use transform="matrix(0.05,0,0,0.05,69,0)" xlink:href="#ar"/><use transform="matrix(0.05,0,0,0.05,74,0)" xlink:href="#bb"/><use transform="matrix(0.05,0,0,0.05,83,0)" xlink:href="#aS"/><use transform="matrix(0.05,0,0,0.05,93,0)" xlink:href="#aG"/></g><g id="x"><use transform="matrix(0.05,0,0,0.05,0,0)" xlink:href="#aw"/><use transform="matrix(0.05,0,0,0.05,10,0)" xlink:href="#aG"/><use transform="matrix(0.05,0,0,0.05,20,0)" xlink:href="#as"/><use transform="matrix(0.05,0,0,0.05,29,0)" xlink:href="#aU"/><use transform="matrix(0.05,0,0,0.05,38,0)" xlink:href="#aQ"/><use transform="matrix(0.05,0,0,0.05,43.95,0)" xlink:href="#av"/><use transform="matrix(0.05,0,0,0.05,47.900000000000006,0)" xlink:href="#aS"/><use transform="matrix(0.05,0,0,0.05,57.900000000000006,0)" xlink:href="#ar"/><use transform="matrix(0.05,0,0,0.05,62.900000000000006,0)" xlink:href="#av"/><use transform="matrix(0.05,0,0,0.05,66.85000000000001,0)" xlink:href="#aR"/><use transform="matrix(0.05,0,0,0.05,76.85000000000001,0)" xlink:href="#aE"/></g><g id="y"><use transform="matrix(0.05,0,0,0.05,0,0)" xlink:href="#aq"/><use transform="matrix(0.05,0,0,0.05,10,0)" xlink:href="#aU"/><use transform="matrix(0.05,0,0,0.05,19,0)" xlink:href="#aU"/><use transform="matrix(0.05,0,0,0.05,28,0)" xlink:href="#av"/><use transform="matrix(0.05,0,0,0.05,31.950000000000003,0)" xlink:href="#aV"/><use transform="matrix(0.05,0,0,0.05,41.95,0)" xlink:href="#aE"/><use transform="matrix(0.05,0,0,0.05,51.95,0)" xlink:href="#aF"/><use transform="matrix(0.05,0,0,0.05,66.9,0)" xlink:href="#aG"/><use transform="matrix(0.05,0,0,0.05,76.9,0)" xlink:href="#aE"/><use transform="matrix(0.05,0,0,0.05,86.9,0)" xlink:href="#ar"/></g><g id="z"><use transform="matrix(0.05,0,0,0.05,0,0)" xlink:href="#aq"/><use transform="matrix(0.05,0,0,0.05,10,0)" xlink:href="#aU"/><use transform="matrix(0.05,0,0,0.05,19,0)" xlink:href="#aU"/><use transform="matrix(0.05,0,0,0.05,28,0)" xlink:href="#av"/><use transform="matrix(0.05,0,0,0.05,31.950000000000003,0)" xlink:href="#aV"/><use transform="matrix(0.05,0,0,0.05,41.95,0)" xlink:href="#aE"/><use transform="matrix(0.05,0,0,0.05,51.95,0)" xlink:href="#aG"/><use transform="matrix(0.05,0,0,0.05,61.95,0)" xlink:href="#aF"/><use transform="matrix(0.05,0,0,0.05,76.9,0)" xlink:href="#aG"/><use transform="matrix(0.05,0,0,0.05,86.9,0)" xlink:href="#aE"/><use transform="matrix(0.05,0,0,0.05,96.9,0)" xlink:href="#ar"/><use transform="matrix(0.05,0,0,0.05,101.9,0)" xlink:href="#au"/><use transform="matrix(0.05,0,0,0.05,111.9,0)" xlink:href="#av"/><use transform="matrix(0.05,0,0,0.05,115.85000000000001,0)" xlink:href="#aw"/></g><g id="A"><use transform="matrix(0.05,0,0,0.05,0,0)" xlink:href="#aq"/><use transform="matrix(0.05,0,0,0.05,10,0)" xlink:href="#aU"/><use transform="matrix(0.05,0,0,0.05,19,0)" xlink:href="#aU"/><use transform="matrix(0.05,0,0,0.05,28,0)" xlink:href="#av"/><use transform="matrix(0.05,0,0,0.05,31.950000000000003,0)" xlink:href="#aV"/><use transform="matrix(0.05,0,0,0.05,41.95,0)" xlink:href="#aE"/><use transform="matrix(0.05,0,0,0.05,51.95,0)" xlink:href="#aF"/><use transform="matrix(0.05,0,0,0.05,66.9,0)" xlink:href="#aG"/><use transform="matrix(0.05,0,0,0.05,76.9,0)" xlink:href="#aE"/><use transform="matrix(0.05,0,0,0.05,86.9,0)" xlink:href="#ar"/><use transform="matrix(0.05,0,0,0.05,91.9,0)" xlink:href="#au"/><use transform="matrix(0.05,0,0,0.05,101.9,0)" xlink:href="#ar"/><use transform="matrix(0.05,0,0,0.05,106.9,0)" xlink:href="#aR"/><use transform="matrix(0.05,0,0,0.05,116.9,0)" xlink:href="#aS"/><use transform="matrix(0.05,0,0,0.05,126.9,0)" xlink:href="#av"/><use transform="matrix(0.05,0,0,0.05,130.85,0)" xlink:href="#as"/></g><g id="B"><use transform="matrix(0.05,0,0,0.05,0,0)" xlink:href="#av"/><use transform="matrix(0.05,0,0,0.05,3.95,0)" xlink:href="#aE"/><use transform="matrix(0.05,0,0,0.05,13.949999999999998,0)" xlink:href="#aU"/><use transform="matrix(0.05,0,0,0.05,22.95,0)" xlink:href="#ar"/><use transform="matrix(0.05,0,0,0.05,27.950000000000003,0)" xlink:href="#aQ"/><use transform="matrix(0.05,0,0,0.05,33.9,0)" xlink:href="#aP"/><use transform="matrix(0.05,0,0,0.05,43.9,0)" xlink:href="#as"/><use transform="matrix(0.05,0,0,0.05,52.900000000000006,0)" xlink:href="#ar"/><use transform="matrix(0.05,0,0,0.05,57.900000000000006,0)" xlink:href="#aR"/><use transform="matrix(0.05,0,0,0.05,67.9,0)" xlink:href="#aQ"/></g><g id="C"><use transform="matrix(0.05,0,0,0.05,0,0)" xlink:href="#av"/><use transform="matrix(0.05,0,0,0.05,3.95,0)" xlink:href="#aE"/><use transform="matrix(0.05,0,0,0.05,13.949999999999998,0)" xlink:href="#aU"/><use transform="matrix(0.05,0,0,0.05,22.95,0)" xlink:href="#ar"/><use transform="matrix(0.05,0,0,0.05,27.950000000000003,0)" xlink:href="#aQ"/><use transform="matrix(0.05,0,0,0.05,33.9,0)" xlink:href="#aP"/><use transform="matrix(0.05,0,0,0.05,43.9,0)" xlink:href="#as"/><use transform="matrix(0.05,0,0,0.05,52.900000000000006,0)" xlink:href="#ar"/><use transform="matrix(0.05,0,0,0.05,57.900000000000006,0)" xlink:href="#aR"/><use transform="matrix(0.05,0,0,0.05,67.9,0)" xlink:href="#aQ"/><use transform="matrix(0.05,0,0,0.05,73.85000000000001,0)" xlink:href="#au"/><use transform="matrix(0.05,0,0,0.05,83.85000000000001,0)" xlink:href="#av"/><use transform="matrix(0.05,0,0,0.05,87.80000000000001,0)" xlink:href="#aw"/></g><g id="D"><use transform="matrix(0.05,0,0,0.05,0,0)" xlink:href="#aG"/><use transform="matrix(0.05,0,0,0.05,10,0)" xlink:href="#aF"/><use transform="matrix(0.05,0,0,0.05,24.950000000000003,0)" xlink:href="#aq"/><use transform="matrix(0.05,0,0,0.05,34.95,0)" xlink:href="#av"/><use transform="matrix(0.05,0,0,0.05,38.900000000000006,0)" xlink:href="#aO"/></g><g id="E"><use transform="matrix(0.05,0,0,0.05,0,0)" xlink:href="#aU"/><use transform="matrix(0.05,0,0,0.05,9,0)" xlink:href="#ar"/><use transform="matrix(0.05,0,0,0.05,14,0)" xlink:href="#aP"/><use transform="matrix(0.05,0,0,0.05,24,0)" xlink:href="#aw"/><use transform="matrix(0.05,0,0,0.05,34,0)" xlink:href="#aG"/><use transform="matrix(0.05,0,0,0.05,44,0)" xlink:href="#aE"/><use transform="matrix(0.05,0,0,0.05,54,0)" xlink:href="#ar"/></g><g id="F"><use transform="matrix(0.05,0,0,0.05,0,0)" xlink:href="#aU"/><use transform="matrix(0.05,0,0,0.05,9,0)" xlink:href="#ar"/><use transform="matrix(0.05,0,0,0.05,14,0)" xlink:href="#aP"/><use transform="matrix(0.05,0,0,0.05,24,0)" xlink:href="#aw"/><use transform="matrix(0.05,0,0,0.05,34,0)" xlink:href="#aG"/><use transform="matrix(0.05,0,0,0.05,44,0)" xlink:href="#aE"/><use transform="matrix(0.05,0,0,0.05,54,0)" xlink:href="#ar"/><use transform="matrix(0.05,0,0,0.05,59,0)" xlink:href="#au"/><use transform="matrix(0.05,0,0,0.05,69,0)" xlink:href="#av"/><use transform="matrix(0.05,0,0,0.05,72.95,0)" xlink:href="#aw"/></g><path fill="#3a414a" d="M126-127c33 6 58 20 58 59 0 88-139 92-164 29-3-8-5-16-6-25l32-3c6 27 21 44 54 44 32 0 52-15 52-46 0-38-36-46-79-43v-28c39 1 72-4 72-42 0-27-17-43-46-43-28 0-47 15-49 41l-32-3c6-42 35-63 81-64 48-1 79 21 79 65 0 36-21 52-52 59" id="bc"/><g id="G"><use transform="matrix(0.05,0,0,0.05,0,0)" xlink:href="#aH"/><use transform="matrix(0.05,0,0,0.05,10.65,0)" xlink:href="#aI"/><use transform="matrix(0.05,0,0,0.05,22.65,0)" xlink:href="#aJ"/><use transform="matrix(0.05,0,0,0.05,35.6,0)" xlink:href="#aK"/><use transform="matrix(0.05,0,0,0.05,48.550000000000004,0)" xlink:href="#aL"/><use transform="matrix(0.05,0,0,0.05,61.5,0)" xlink:href="#aI"/><use transform="matrix(0.05,0,0,0.05,73.5,0)" xlink:href="#aJ"/><use transform="matrix(0.05,0,0,0.05,86.45,0)" xlink:href="#aA"/><use transform="matrix(0.05,0,0,0.05,92.4,0)" xlink:href="#bc"/><use transform="matrix(0.05,0,0,0.05,102.4,0)" xlink:href="#aT"/><use transform="matrix(0.05,0,0,0.05,112.4,0)" xlink:href="#aD"/></g><g id="H"><use transform="matrix(0.05,0,0,0.05,0,0)" xlink:href="#aQ"/><use transform="matrix(0.05,0,0,0.05,5.95,0)" xlink:href="#aG"/><use transform="matrix(0.05,0,0,0.05,15.949999999999998,0)" xlink:href="#aV"/><use transform="matrix(0.05,0,0,0.05,25.950000000000003,0)" xlink:href="#av"/><use transform="matrix(0.05,0,0,0.05,29.899999999999995,0)" xlink:href="#aU"/><use transform="matrix(0.05,0,0,0.05,38.9,0)" xlink:href="#ar"/><use transform="matrix(0.05,0,0,0.05,43.9,0)" xlink:href="#aQ"/><use transform="matrix(0.05,0,0,0.05,49.85,0)" xlink:href="#aq"/><use transform="matrix(0.05,0,0,0.05,59.85,0)" xlink:href="#ar"/><use transform="matrix(0.05,0,0,0.05,64.85,0)" xlink:href="#av"/><use transform="matrix(0.05,0,0,0.05,68.8,0)" xlink:href="#aR"/><use transform="matrix(0.05,0,0,0.05,78.8,0)" xlink:href="#aE"/><use transform="matrix(0.05,0,0,0.05,88.8,0)" xlink:href="#au"/><use transform="matrix(0.05,0,0,0.05,98.8,0)" xlink:href="#aw"/><use transform="matrix(0.05,0,0,0.05,108.80000000000001,0)" xlink:href="#aq"/><use transform="matrix(0.05,0,0,0.05,118.80000000000001,0)" xlink:href="#ar"/><use transform="matrix(0.05,0,0,0.05,123.80000000000001,0)" xlink:href="#aG"/></g><g id="I"><use transform="matrix(0.05,0,0,0.05,0,0)" xlink:href="#ax"/><use transform="matrix(0.05,0,0,0.05,5,0)" xlink:href="#ay"/><use transform="matrix(0.05,0,0,0.05,17.950000000000003,0)" xlink:href="#az"/></g><g id="J"><use transform="matrix(0.05,0,0,0.05,0,0)" xlink:href="#aq"/><use transform="matrix(0.05,0,0,0.05,10,0)" xlink:href="#ar"/><use transform="matrix(0.05,0,0,0.05,15,0)" xlink:href="#ar"/><use transform="matrix(0.05,0,0,0.05,20,0)" xlink:href="#aG"/><use transform="matrix(0.05,0,0,0.05,30,0)" xlink:href="#aE"/><use transform="matrix(0.05,0,0,0.05,40,0)" xlink:href="#aw"/><use transform="matrix(0.05,0,0,0.05,50,0)" xlink:href="#aq"/><use transform="matrix(0.05,0,0,0.05,60,0)" xlink:href="#aE"/><use transform="matrix(0.05,0,0,0.05,70,0)" xlink:href="#as"/><use transform="matrix(0.05,0,0,0.05,79,0)" xlink:href="#aG"/></g><g id="K"><use transform="matrix(0.05,0,0,0.05,0,0)" xlink:href="#aU"/><use transform="matrix(0.05,0,0,0.05,9,0)" xlink:href="#ar"/><use transform="matrix(0.05,0,0,0.05,14,0)" xlink:href="#aP"/><use transform="matrix(0.05,0,0,0.05,24,0)" xlink:href="#aw"/><use transform="matrix(0.05,0,0,0.05,34,0)" xlink:href="#aG"/><use transform="matrix(0.05,0,0,0.05,44,0)" xlink:href="#aE"/><use transform="matrix(0.05,0,0,0.05,54,0)" xlink:href="#ar"/><use transform="matrix(0.05,0,0,0.05,59,0)" xlink:href="#au"/><use transform="matrix(0.05,0,0,0.05,69,0)" xlink:href="#aq"/><use transform="matrix(0.05,0,0,0.05,79,0)" xlink:href="#ar"/><use transform="matrix(0.05,0,0,0.05,84,0)" xlink:href="#ar"/><use transform="matrix(0.05,0,0,0.05,89,0)" xlink:href="#aG"/><use transform="matrix(0.05,0,0,0.05,99,0)" xlink:href="#aE"/><use transform="matrix(0.05,0,0,0.05,109,0)" xlink:href="#aw"/><use transform="matrix(0.05,0,0,0.05,119,0)" xlink:href="#aq"/><use transform="matrix(0.05,0,0,0.05,129,0)" xlink:href="#aE"/><use transform="matrix(0.05,0,0,0.05,139,0)" xlink:href="#as"/><use transform="matrix(0.05,0,0,0.05,148,0)" xlink:href="#aG"/></g><g id="L"><use transform="matrix(0.05,0,0,0.05,0,0)" xlink:href="#aO"/><use transform="matrix(0.05,0,0,0.05,3.95,0)" xlink:href="#aG"/><use transform="matrix(0.05,0,0,0.05,13.949999999999998,0)" xlink:href="#as"/><use transform="matrix(0.05,0,0,0.05,22.95,0)" xlink:href="#ar"/><use transform="matrix(0.05,0,0,0.05,27.950000000000003,0)" xlink:href="#aP"/><use transform="matrix(0.05,0,0,0.05,37.95,0)" xlink:href="#aQ"/><use transform="matrix(0.05,0,0,0.05,43.900000000000006,0)" xlink:href="#aG"/><use transform="matrix(0.05,0,0,0.05,53.900000000000006,0)" xlink:href="#au"/><use transform="matrix(0.05,0,0,0.05,63.900000000000006,0)" xlink:href="#av"/><use transform="matrix(0.05,0,0,0.05,67.85000000000001,0)" xlink:href="#aE"/><use transform="matrix(0.05,0,0,0.05,77.85000000000001,0)" xlink:href="#aU"/><use transform="matrix(0.05,0,0,0.05,86.85000000000001,0)" xlink:href="#ar"/><use transform="matrix(0.05,0,0,0.05,91.85000000000001,0)" xlink:href="#aQ"/><use transform="matrix(0.05,0,0,0.05,97.80000000000001,0)" xlink:href="#aP"/><use transform="matrix(0.05,0,0,0.05,107.80000000000001,0)" xlink:href="#as"/><use transform="matrix(0.05,0,0,0.05,116.80000000000001,0)" xlink:href="#ar"/><use transform="matrix(0.05,0,0,0.05,121.80000000000001,0)" xlink:href="#aR"/><use transform="matrix(0.05,0,0,0.05,131.8,0)" xlink:href="#aQ"/></g><g id="M"><use transform="matrix(0.05,0,0,0.05,0,0)" xlink:href="#aA"/><use transform="matrix(0.05,0,0,0.05,5.95,0)" xlink:href="#aB"/><use transform="matrix(0.05,0,0,0.05,17.95,0)" xlink:href="#aC"/><use transform="matrix(0.05,0,0,0.05,29.950000000000003,0)" xlink:href="#aD"/></g><g id="N"><use transform="matrix(0.05,0,0,0.05,0,0)" xlink:href="#aq"/><use transform="matrix(0.05,0,0,0.05,10,0)" xlink:href="#aU"/><use transform="matrix(0.05,0,0,0.05,19,0)" xlink:href="#aU"/><use transform="matrix(0.05,0,0,0.05,28,0)" xlink:href="#av"/><use transform="matrix(0.05,0,0,0.05,31.950000000000003,0)" xlink:href="#aV"/><use transform="matrix(0.05,0,0,0.05,41.95,0)" xlink:href="#aE"/><use transform="matrix(0.05,0,0,0.05,51.95,0)" xlink:href="#aF"/><use transform="matrix(0.05,0,0,0.05,66.9,0)" xlink:href="#aG"/><use transform="matrix(0.05,0,0,0.05,76.9,0)" xlink:href="#aE"/><use transform="matrix(0.05,0,0,0.05,86.9,0)" xlink:href="#ar"/><use transform="matrix(0.05,0,0,0.05,91.9,0)" xlink:href="#au"/><use transform="matrix(0.05,0,0,0.05,101.9,0)" xlink:href="#aS"/><use transform="matrix(0.05,0,0,0.05,111.9,0)" xlink:href="#aQ"/><use transform="matrix(0.05,0,0,0.05,117.85000000000001,0)" xlink:href="#aR"/><use transform="matrix(0.05,0,0,0.05,127.85000000000001,0)" xlink:href="#ap"/><use transform="matrix(0.05,0,0,0.05,137.85000000000002,0)" xlink:href="#aO"/><use transform="matrix(0.05,0,0,0.05,141.8,0)" xlink:href="#aG"/><use transform="matrix(0.05,0,0,0.05,151.8,0)" xlink:href="#aF"/></g><g id="O"><use transform="matrix(0.05,0,0,0.05,0,0)" xlink:href="#aq"/><use transform="matrix(0.05,0,0,0.05,10,0)" xlink:href="#aU"/><use transform="matrix(0.05,0,0,0.05,19,0)" xlink:href="#aU"/><use transform="matrix(0.05,0,0,0.05,28,0)" xlink:href="#av"/><use transform="matrix(0.05,0,0,0.05,31.950000000000003,0)" xlink:href="#aV"/><use transform="matrix(0.05,0,0,0.05,41.95,0)" xlink:href="#aE"/><use transform="matrix(0.05,0,0,0.05,51.95,0)" xlink:href="#aF"/><use transform="matrix(0.05,0,0,0.05,66.9,0)" xlink:href="#aG"/><use transform="matrix(0.05,0,0,0.05,76.9,0)" xlink:href="#aE"/><use transform="matrix(0.05,0,0,0.05,86.9,0)" xlink:href="#ar"/><use transform="matrix(0.05,0,0,0.05,91.9,0)" xlink:href="#au"/><use transform="matrix(0.05,0,0,0.05,101.9,0)" xlink:href="#aS"/><use transform="matrix(0.05,0,0,0.05,111.9,0)" xlink:href="#aQ"/><use transform="matrix(0.05,0,0,0.05,117.85000000000001,0)" xlink:href="#aR"/><use transform="matrix(0.05,0,0,0.05,127.85000000000001,0)" xlink:href="#ap"/><use transform="matrix(0.05,0,0,0.05,137.85000000000002,0)" xlink:href="#aO"/><use transform="matrix(0.05,0,0,0.05,141.8,0)" xlink:href="#aG"/><use transform="matrix(0.05,0,0,0.05,151.8,0)" xlink:href="#aF"/><use transform="matrix(0.05,0,0,0.05,166.75,0)" xlink:href="#au"/><use transform="matrix(0.05,0,0,0.05,176.75,0)" xlink:href="#av"/><use transform="matrix(0.05,0,0,0.05,180.7,0)" xlink:href="#aw"/></g><g id="P"><use transform="matrix(0.05,0,0,0.05,0,0)" xlink:href="#as"/><use transform="matrix(0.05,0,0,0.05,9,0)" xlink:href="#aR"/><use transform="matrix(0.05,0,0,0.05,19,0)" xlink:href="#aE"/><use transform="matrix(0.05,0,0,0.05,29,0)" xlink:href="#ar"/><use transform="matrix(0.05,0,0,0.05,34,0)" xlink:href="#aG"/><use transform="matrix(0.05,0,0,0.05,44,0)" xlink:href="#aE"/><use transform="matrix(0.05,0,0,0.05,54,0)" xlink:href="#ar"/></g><g id="Q"><use transform="matrix(0.05,0,0,0.05,0,0)" xlink:href="#aU"/><use transform="matrix(0.05,0,0,0.05,9,0)" xlink:href="#ar"/><use transform="matrix(0.05,0,0,0.05,14,0)" xlink:href="#aq"/><use transform="matrix(0.05,0,0,0.05,24,0)" xlink:href="#ar"/><use transform="matrix(0.05,0,0,0.05,29,0)" xlink:href="#aP"/><use transform="matrix(0.05,0,0,0.05,39,0)" xlink:href="#aU"/></g><g id="R"><use transform="matrix(0.05,0,0,0.05,0,0)" xlink:href="#at"/><use transform="matrix(0.05,0,0,0.05,10,0)" xlink:href="#aR"/><use transform="matrix(0.05,0,0,0.05,20,0)" xlink:href="#aF"/><use transform="matrix(0.05,0,0,0.05,34.95,0)" xlink:href="#aG"/><use transform="matrix(0.05,0,0,0.05,44.95,0)" xlink:href="#aX"/><use transform="matrix(0.05,0,0,0.05,57.900000000000006,0)" xlink:href="#aR"/><use transform="matrix(0.05,0,0,0.05,67.9,0)" xlink:href="#aQ"/><use transform="matrix(0.05,0,0,0.05,73.85000000000001,0)" xlink:href="#aY"/></g><g id="S"><use transform="matrix(0.05,0,0,0.05,0,0)" xlink:href="#at"/><use transform="matrix(0.05,0,0,0.05,10,0)" xlink:href="#aR"/><use transform="matrix(0.05,0,0,0.05,20,0)" xlink:href="#aF"/><use transform="matrix(0.05,0,0,0.05,34.95,0)" xlink:href="#aG"/><use transform="matrix(0.05,0,0,0.05,44.95,0)" xlink:href="#aX"/><use transform="matrix(0.05,0,0,0.05,57.900000000000006,0)" xlink:href="#aR"/><use transform="matrix(0.05,0,0,0.05,67.9,0)" xlink:href="#aQ"/><use transform="matrix(0.05,0,0,0.05,73.85000000000001,0)" xlink:href="#aY"/><use transform="matrix(0.05,0,0,0.05,82.85000000000001,0)" xlink:href="#au"/><use transform="matrix(0.05,0,0,0.05,92.85000000000001,0)" xlink:href="#ar"/><use transform="matrix(0.05,0,0,0.05,97.85000000000001,0)" xlink:href="#aR"/><use transform="matrix(0.05,0,0,0.05,107.85000000000001,0)" xlink:href="#aS"/><use transform="matrix(0.05,0,0,0.05,117.85000000000001,0)" xlink:href="#av"/><use transform="matrix(0.05,0,0,0.05,121.80000000000001,0)" xlink:href="#as"/></g><g id="T"><use transform="matrix(0.05,0,0,0.05,0,0)" xlink:href="#aU"/><use transform="matrix(0.05,0,0,0.05,9,0)" xlink:href="#ar"/><use transform="matrix(0.05,0,0,0.05,14,0)" xlink:href="#aP"/><use transform="matrix(0.05,0,0,0.05,24,0)" xlink:href="#aw"/><use transform="matrix(0.05,0,0,0.05,34,0)" xlink:href="#aG"/><use transform="matrix(0.05,0,0,0.05,44,0)" xlink:href="#aE"/><use transform="matrix(0.05,0,0,0.05,54,0)" xlink:href="#ar"/><use transform="matrix(0.05,0,0,0.05,59,0)" xlink:href="#au"/><use transform="matrix(0.05,0,0,0.05,69,0)" xlink:href="#aS"/><use transform="matrix(0.05,0,0,0.05,79,0)" xlink:href="#aU"/><use transform="matrix(0.05,0,0,0.05,88,0)" xlink:href="#aS"/></g><g id="U"><use transform="matrix(0.05,0,0,0.05,0,0)" xlink:href="#aS"/><use transform="matrix(0.05,0,0,0.05,10,0)" xlink:href="#aU"/><use transform="matrix(0.05,0,0,0.05,19,0)" xlink:href="#aS"/><use transform="matrix(0.05,0,0,0.05,29,0)" xlink:href="#au"/><use transform="matrix(0.05,0,0,0.05,39,0)" xlink:href="#av"/><use transform="matrix(0.05,0,0,0.05,42.95,0)" xlink:href="#aw"/></g><path fill="#3a414a" d="M108 0H70L1-190h34L89-25l56-165h34" id="bd"/><g id="V"><use transform="matrix(0.05,0,0,0.05,0,0)" xlink:href="#aS"/><use transform="matrix(0.05,0,0,0.05,10,0)" xlink:href="#aQ"/><use transform="matrix(0.05,0,0,0.05,15.949999999999998,0)" xlink:href="#aR"/><use transform="matrix(0.05,0,0,0.05,25.950000000000003,0)" xlink:href="#ap"/><use transform="matrix(0.05,0,0,0.05,35.95,0)" xlink:href="#aO"/><use transform="matrix(0.05,0,0,0.05,39.900000000000006,0)" xlink:href="#aG"/><use transform="matrix(0.05,0,0,0.05,49.900000000000006,0)" xlink:href="#aF"/><use transform="matrix(0.05,0,0,0.05,64.85000000000001,0)" xlink:href="#au"/><use transform="matrix(0.05,0,0,0.05,74.85000000000001,0)" xlink:href="#aU"/><use transform="matrix(0.05,0,0,0.05,83.85000000000001,0)" xlink:href="#aR"/><use transform="matrix(0.05,0,0,0.05,93.85000000000001,0)" xlink:href="#aO"/><use transform="matrix(0.05,0,0,0.05,97.80000000000001,0)" xlink:href="#bd"/><use transform="matrix(0.05,0,0,0.05,106.80000000000001,0)" xlink:href="#av"/><use transform="matrix(0.05,0,0,0.05,110.75,0)" xlink:href="#aE"/><use transform="matrix(0.05,0,0,0.05,120.75,0)" xlink:href="#aV"/><use transform="matrix(0.05,0,0,0.05,130.75,0)" xlink:href="#au"/><use transform="matrix(0.05,0,0,0.05,140.75,0)" xlink:href="#aS"/><use transform="matrix(0.05,0,0,0.05,150.75,0)" xlink:href="#aG"/><use transform="matrix(0.05,0,0,0.05,160.75,0)" xlink:href="#aQ"/><use transform="matrix(0.05,0,0,0.05,166.7,0)" xlink:href="#as"/><use transform="matrix(0.05,0,0,0.05,175.7,0)" xlink:href="#aG"/><use transform="matrix(0.05,0,0,0.05,185.7,0)" xlink:href="#aE"/><use transform="matrix(0.05,0,0,0.05,195.7,0)" xlink:href="#ar"/><use transform="matrix(0.05,0,0,0.05,200.7,0)" xlink:href="#aq"/><use transform="matrix(0.05,0,0,0.05,210.69999999999996,0)" xlink:href="#aV"/><use transform="matrix(0.05,0,0,0.05,220.69999999999996,0)" xlink:href="#aG"/></g><path fill="#3a414a" d="M141 0L90-78 38 0H4l68-98-65-92h35l48 74 47-74h35l-64 92 68 98h-35" id="be"/><g id="W"><use transform="matrix(0.05,0,0,0.05,0,0)" xlink:href="#ax"/><use transform="matrix(0.05,0,0,0.05,5,0)" xlink:href="#aE"/><use transform="matrix(0.05,0,0,0.05,15,0)" xlink:href="#aw"/><use transform="matrix(0.05,0,0,0.05,25,0)" xlink:href="#aG"/><use transform="matrix(0.05,0,0,0.05,35,0)" xlink:href="#be"/><use transform="matrix(0.05,0,0,0.05,44,0)" xlink:href="#aG"/><use transform="matrix(0.05,0,0,0.05,54,0)" xlink:href="#aU"/></g><g id="X"><use transform="matrix(0.05,0,0,0.05,0,0)" xlink:href="#av"/><use transform="matrix(0.05,0,0,0.05,3.95,0)" xlink:href="#aw"/><use transform="matrix(0.05,0,0,0.05,13.949999999999998,0)" xlink:href="#be"/><use transform="matrix(0.05,0,0,0.05,22.95,0)" xlink:href="#au"/><use transform="matrix(0.05,0,0,0.05,32.95,0)" xlink:href="#aU"/><use transform="matrix(0.05,0,0,0.05,41.95,0)" xlink:href="#ar"/><use transform="matrix(0.05,0,0,0.05,46.95,0)" xlink:href="#aP"/><use transform="matrix(0.05,0,0,0.05,56.95,0)" xlink:href="#aw"/><use transform="matrix(0.05,0,0,0.05,66.95,0)" xlink:href="#aG"/><use transform="matrix(0.05,0,0,0.05,76.95,0)" xlink:href="#aE"/><use transform="matrix(0.05,0,0,0.05,86.95,0)" xlink:href="#ar"/><use transform="matrix(0.05,0,0,0.05,91.95,0)" xlink:href="#au"/><use transform="matrix(0.05,0,0,0.05,101.95,0)" xlink:href="#av"/><use transform="matrix(0.05,0,0,0.05,105.9,0)" xlink:href="#aw"/></g><g id="Y"><use transform="matrix(0.05,0,0,0.05,0,0)" xlink:href="#at"/><use transform="matrix(0.05,0,0,0.05,10,0)" xlink:href="#aR"/><use transform="matrix(0.05,0,0,0.05,20,0)" xlink:href="#aF"/><use transform="matrix(0.05,0,0,0.05,34.95,0)" xlink:href="#aG"/><use transform="matrix(0.05,0,0,0.05,44.95,0)" xlink:href="#aX"/><use transform="matrix(0.05,0,0,0.05,57.900000000000006,0)" xlink:href="#aR"/><use transform="matrix(0.05,0,0,0.05,67.9,0)" xlink:href="#aQ"/><use transform="matrix(0.05,0,0,0.05,73.85000000000001,0)" xlink:href="#aY"/><use transform="matrix(0.05,0,0,0.05,82.85000000000001,0)" xlink:href="#au"/><use transform="matrix(0.05,0,0,0.05,92.85000000000001,0)" xlink:href="#aS"/><use transform="matrix(0.05,0,0,0.05,102.85000000000001,0)" xlink:href="#aQ"/><use transform="matrix(0.05,0,0,0.05,108.80000000000001,0)" xlink:href="#aR"/><use transform="matrix(0.05,0,0,0.05,118.80000000000001,0)" xlink:href="#ap"/><use transform="matrix(0.05,0,0,0.05,128.8,0)" xlink:href="#aO"/><use transform="matrix(0.05,0,0,0.05,132.75,0)" xlink:href="#aG"/><use transform="matrix(0.05,0,0,0.05,142.75,0)" xlink:href="#aF"/></g><g id="Z"><use transform="matrix(0.05,0,0,0.05,0,0)" xlink:href="#at"/><use transform="matrix(0.05,0,0,0.05,10,0)" xlink:href="#aR"/><use transform="matrix(0.05,0,0,0.05,20,0)" xlink:href="#aF"/><use transform="matrix(0.05,0,0,0.05,34.95,0)" xlink:href="#aG"/><use transform="matrix(0.05,0,0,0.05,44.95,0)" xlink:href="#aX"/><use transform="matrix(0.05,0,0,0.05,57.900000000000006,0)" xlink:href="#aR"/><use transform="matrix(0.05,0,0,0.05,67.9,0)" xlink:href="#aQ"/><use transform="matrix(0.05,0,0,0.05,73.85000000000001,0)" xlink:href="#aY"/><use transform="matrix(0.05,0,0,0.05,82.85000000000001,0)" xlink:href="#au"/><use transform="matrix(0.05,0,0,0.05,92.85000000000001,0)" xlink:href="#aS"/><use transform="matrix(0.05,0,0,0.05,102.85000000000001,0)" xlink:href="#aQ"/><use transform="matrix(0.05,0,0,0.05,108.80000000000001,0)" xlink:href="#aR"/><use transform="matrix(0.05,0,0,0.05,118.80000000000001,0)" xlink:href="#ap"/><use transform="matrix(0.05,0,0,0.05,128.8,0)" xlink:href="#aO"/><use transform="matrix(0.05,0,0,0.05,132.75,0)" xlink:href="#aG"/><use transform="matrix(0.05,0,0,0.05,142.75,0)" xlink:href="#aF"/><use transform="matrix(0.05,0,0,0.05,157.7,0)" xlink:href="#au"/><use transform="matrix(0.05,0,0,0.05,167.7,0)" xlink:href="#av"/><use transform="matrix(0.05,0,0,0.05,171.64999999999998,0)" xlink:href="#aw"/></g><g id="aa"><use transform="matrix(0.05,0,0,0.05,0,0)" xlink:href="#aQ"/><use transform="matrix(0.05,0,0,0.05,5.95,0)" xlink:href="#aq"/><use transform="matrix(0.05,0,0,0.05,15.949999999999998,0)" xlink:href="#ar"/><use transform="matrix(0.05,0,0,0.05,20.95,0)" xlink:href="#av"/><use transform="matrix(0.05,0,0,0.05,24.9,0)" xlink:href="#aE"/><use transform="matrix(0.05,0,0,0.05,34.9,0)" xlink:href="#aV"/></g><g id="ab"><use transform="matrix(0.05,0,0,0.05,0,0)" xlink:href="#aQ"/><use transform="matrix(0.05,0,0,0.05,5.95,0)" xlink:href="#aq"/><use transform="matrix(0.05,0,0,0.05,15.949999999999998,0)" xlink:href="#ar"/><use transform="matrix(0.05,0,0,0.05,20.95,0)" xlink:href="#av"/><use transform="matrix(0.05,0,0,0.05,24.9,0)" xlink:href="#aE"/><use transform="matrix(0.05,0,0,0.05,34.9,0)" xlink:href="#aV"/><use transform="matrix(0.05,0,0,0.05,44.9,0)" xlink:href="#au"/><use transform="matrix(0.05,0,0,0.05,54.900000000000006,0)" xlink:href="#av"/><use transform="matrix(0.05,0,0,0.05,58.85,0)" xlink:href="#aw"/></g><g id="ac"><use transform="matrix(0.05,0,0,0.05,0,0)" xlink:href="#aQ"/><use transform="matrix(0.05,0,0,0.05,5.95,0)" xlink:href="#aq"/><use transform="matrix(0.05,0,0,0.05,15.949999999999998,0)" xlink:href="#ar"/><use transform="matrix(0.05,0,0,0.05,20.95,0)" xlink:href="#av"/><use transform="matrix(0.05,0,0,0.05,24.9,0)" xlink:href="#aE"/><use transform="matrix(0.05,0,0,0.05,34.9,0)" xlink:href="#aV"/></g><path fill="#3a414a" d="M101-234c-31-9-42 10-38 44h38v23H63V0H32v-167H5v-23h27c-7-52 17-82 69-68v24" id="bf"/><g id="ad"><use transform="matrix(0.05,0,0,0.05,0,0)" xlink:href="#bf"/><use transform="matrix(0.05,0,0,0.05,5,0)" xlink:href="#aG"/><use transform="matrix(0.05,0,0,0.05,15,0)" xlink:href="#aG"/><use transform="matrix(0.05,0,0,0.05,25,0)" xlink:href="#aw"/><use transform="matrix(0.05,0,0,0.05,35,0)" xlink:href="#ap"/><use transform="matrix(0.05,0,0,0.05,45,0)" xlink:href="#aq"/><use transform="matrix(0.05,0,0,0.05,55,0)" xlink:href="#as"/><use transform="matrix(0.05,0,0,0.05,64,0)" xlink:href="#aY"/></g><g id="ae"><use transform="matrix(0.05,0,0,0.05,0,0)" xlink:href="#aO"/><use transform="matrix(0.05,0,0,0.05,3.95,0)" xlink:href="#aG"/><use transform="matrix(0.05,0,0,0.05,13.949999999999998,0)" xlink:href="#as"/><use transform="matrix(0.05,0,0,0.05,22.95,0)" xlink:href="#ar"/><use transform="matrix(0.05,0,0,0.05,27.950000000000003,0)" xlink:href="#aP"/><use transform="matrix(0.05,0,0,0.05,37.95,0)" xlink:href="#aQ"/><use transform="matrix(0.05,0,0,0.05,43.900000000000006,0)" xlink:href="#aG"/><use transform="matrix(0.05,0,0,0.05,53.900000000000006,0)" xlink:href="#au"/><use transform="matrix(0.05,0,0,0.05,63.900000000000006,0)" xlink:href="#as"/><use transform="matrix(0.05,0,0,0.05,72.9,0)" xlink:href="#aR"/><use transform="matrix(0.05,0,0,0.05,82.9,0)" xlink:href="#aE"/><use transform="matrix(0.05,0,0,0.05,92.9,0)" xlink:href="#ar"/><use transform="matrix(0.05,0,0,0.05,97.9,0)" xlink:href="#aG"/><use transform="matrix(0.05,0,0,0.05,107.9,0)" xlink:href="#aE"/><use transform="matrix(0.05,0,0,0.05,117.9,0)" xlink:href="#ar"/></g><g id="af"><use transform="matrix(0.05,0,0,0.05,0,0)" xlink:href="#aA"/><use transform="matrix(0.05,0,0,0.05,5.95,0)" xlink:href="#aB"/><use transform="matrix(0.05,0,0,0.05,17.95,0)" xlink:href="#aC"/><use transform="matrix(0.05,0,0,0.05,29.950000000000003,0)" xlink:href="#aD"/><use transform="matrix(0.05,0,0,0.05,35.9,0)" xlink:href="#aA"/><use transform="matrix(0.05,0,0,0.05,41.85,0)" xlink:href="#aW"/><use transform="matrix(0.05,0,0,0.05,52.800000000000004,0)" xlink:href="#aC"/><use transform="matrix(0.05,0,0,0.05,64.80000000000001,0)" xlink:href="#aD"/></g><g id="ag"><use transform="matrix(0.05,0,0,0.05,0,0)" xlink:href="#as"/><use transform="matrix(0.05,0,0,0.05,9,0)" xlink:href="#aO"/><use transform="matrix(0.05,0,0,0.05,12.949999999999998,0)" xlink:href="#aq"/><use transform="matrix(0.05,0,0,0.05,22.95,0)" xlink:href="#aU"/><use transform="matrix(0.05,0,0,0.05,31.950000000000003,0)" xlink:href="#aU"/><use transform="matrix(0.05,0,0,0.05,40.95,0)" xlink:href="#au"/><use transform="matrix(0.05,0,0,0.05,50.95,0)" xlink:href="#ar"/><use transform="matrix(0.05,0,0,0.05,55.95,0)" xlink:href="#av"/><use transform="matrix(0.05,0,0,0.05,59.900000000000006,0)" xlink:href="#aF"/><use transform="matrix(0.05,0,0,0.05,74.85000000000001,0)" xlink:href="#aG"/><use transform="matrix(0.05,0,0,0.05,84.85000000000001,0)" xlink:href="#aO"/><use transform="matrix(0.05,0,0,0.05,88.80000000000001,0)" xlink:href="#av"/><use transform="matrix(0.05,0,0,0.05,92.75000000000001,0)" xlink:href="#aE"/><use transform="matrix(0.05,0,0,0.05,102.75,0)" xlink:href="#aG"/></g><g id="ah"><use transform="matrix(0.05,0,0,0.05,0,0)" xlink:href="#av"/><use transform="matrix(0.05,0,0,0.05,3.95,0)" xlink:href="#aw"/><use transform="matrix(0.05,0,0,0.05,13.949999999999998,0)" xlink:href="#be"/><use transform="matrix(0.05,0,0,0.05,22.95,0)" xlink:href="#au"/><use transform="matrix(0.05,0,0,0.05,32.95,0)" xlink:href="#av"/><use transform="matrix(0.05,0,0,0.05,36.900000000000006,0)" xlink:href="#aE"/><use transform="matrix(0.05,0,0,0.05,46.900000000000006,0)" xlink:href="#aU"/><use transform="matrix(0.05,0,0,0.05,55.900000000000006,0)" xlink:href="#ar"/><use transform="matrix(0.05,0,0,0.05,60.900000000000006,0)" xlink:href="#aQ"/><use transform="matrix(0.05,0,0,0.05,66.85000000000001,0)" xlink:href="#aP"/><use transform="matrix(0.05,0,0,0.05,76.85000000000001,0)" xlink:href="#as"/><use transform="matrix(0.05,0,0,0.05,85.85000000000001,0)" xlink:href="#ar"/><use transform="matrix(0.05,0,0,0.05,90.85000000000001,0)" xlink:href="#aR"/><use transform="matrix(0.05,0,0,0.05,100.85000000000001,0)" xlink:href="#aQ"/><use transform="matrix(0.05,0,0,0.05,106.80000000000001,0)" xlink:href="#au"/><use transform="matrix(0.05,0,0,0.05,116.80000000000001,0)" xlink:href="#av"/><use transform="matrix(0.05,0,0,0.05,120.75,0)" xlink:href="#aw"/></g><g id="ai"><use transform="matrix(0.05,0,0,0.05,0,0)" xlink:href="#aO"/><use transform="matrix(0.05,0,0,0.05,3.95,0)" xlink:href="#aG"/><use transform="matrix(0.05,0,0,0.05,13.949999999999998,0)" xlink:href="#aU"/><use transform="matrix(0.05,0,0,0.05,22.95,0)" xlink:href="#aU"/><use transform="matrix(0.05,0,0,0.05,31.950000000000003,0)" xlink:href="#av"/><use transform="matrix(0.05,0,0,0.05,35.9,0)" xlink:href="#aR"/><use transform="matrix(0.05,0,0,0.05,45.9,0)" xlink:href="#aE"/></g><g id="aj"><use transform="matrix(0.05,0,0,0.05,0,0)" xlink:href="#aO"/><use transform="matrix(0.05,0,0,0.05,3.95,0)" xlink:href="#aG"/><use transform="matrix(0.05,0,0,0.05,13.949999999999998,0)" xlink:href="#aU"/><use transform="matrix(0.05,0,0,0.05,22.95,0)" xlink:href="#aU"/><use transform="matrix(0.05,0,0,0.05,31.950000000000003,0)" xlink:href="#av"/><use transform="matrix(0.05,0,0,0.05,35.9,0)" xlink:href="#aR"/><use transform="matrix(0.05,0,0,0.05,45.9,0)" xlink:href="#aE"/><use transform="matrix(0.05,0,0,0.05,55.900000000000006,0)" xlink:href="#au"/><use transform="matrix(0.05,0,0,0.05,65.9,0)" xlink:href="#av"/><use transform="matrix(0.05,0,0,0.05,69.85000000000001,0)" xlink:href="#aw"/></g><g id="ak"><use transform="matrix(0.05,0,0,0.05,0,0)" xlink:href="#aA"/><use transform="matrix(0.05,0,0,0.05,5.95,0)" xlink:href="#aB"/><use transform="matrix(0.05,0,0,0.05,17.95,0)" xlink:href="#aC"/><use transform="matrix(0.05,0,0,0.05,29.950000000000003,0)" xlink:href="#aD"/><use transform="matrix(0.05,0,0,0.05,35.9,0)" xlink:href="#aD"/></g><path fill="#3a414a" d="M240 0l2-218c-23 76-54 145-80 218h-23L58-218 59 0H30v-248h44l77 211c21-75 51-140 76-211h43V0h-30" id="bg"/><path fill="#3a414a" d="M33-154v-36h34v36H33zM33 0v-36h34V0H33" id="bh"/><g id="al"><use transform="matrix(0.05,0,0,0.05,0,0)" xlink:href="#bg"/><use transform="matrix(0.05,0,0,0.05,14.950000000000001,0)" xlink:href="#bh"/></g><use transform="matrix(0.05,0,0,0.05,0,0)" xlink:href="#bg" id="am"/><use transform="matrix(0.05,0,0,0.05,0,0)" xlink:href="#aM" id="an"/><use transform="matrix(0.05,0,0,0.05,0,0)" xlink:href="#bh" id="ao"/></defs></g></svg>